<?xml version="1.0" encoding="utf-8"?>
<!-- Generator: Adobe Illustrator 25.3.1, SVG Export Plug-In . SVG Version: 6.00 Build 0)  -->
<svg version="1.1" xmlns="http://www.w3.org/2000/svg" xmlns:xlink="http://www.w3.org/1999/xlink" x="0px" y="0px"
	 width="1356.6px" height="603.6px" viewBox="0 0 1356.6 603.6" style="enable-background:new 0 0 1356.6 603.6;"
	 xml:space="preserve">
<style type="text/css">
	.st0{fill:#F0F2F6;}
	.st1{fill:#FFFFFF;}
	.st2{fill:#EAEAEA;}
	.st3{fill:none;stroke:#000000;stroke-width:1.4478;stroke-miterlimit:10;stroke-dasharray:2.8942,7.2356;}
	.st4{fill:none;stroke:#3585F9;stroke-width:2;stroke-miterlimit:10;}
	.st5{fill:#3585F9;}
	.st6{fill:none;stroke:#848484;stroke-width:2.0237;stroke-miterlimit:10;}
	.st7{fill:#848484;}
	.st8{fill:#1D1D1B;}
</style>
<g id="fondo">
	<rect id="rect419_1_" x="-105" y="-77.1" class="st0" width="1573.2" height="732.5">
	</rect>
</g>
<g id="svg472" inkscape:export-xdpi="72" inkscape:export-ydpi="72" xmlns:cc="http://creativecommons.org/ns#" xmlns:dc="http://purl.org/dc/elements/1.1/" xmlns:inkscape="http://www.inkscape.org/namespaces/inkscape" xmlns:rdf="http://www.w3.org/1999/02/22-rdf-syntax-ns#" xmlns:sodipodi="http://sodipodi.sourceforge.net/DTD/sodipodi-0.dtd" xmlns:svg="http://www.w3.org/2000/svg">
	<rect x="983.9" y="278.8" class="st1" width="331.9" height="284.6"/>
	<rect x="1060.8" y="386.5" class="st2" width="178.1" height="106.2"/>
	<path class="st3" d="M1021.7,317.3H1278v210.3h-256.3V317.3z"/>
	<g>
		<path d="M1122.3,362.8l-4.2-14.4h1.5l3.4,11.9l3.3-11.9l1.5,0l3.4,11.9l3.3-11.9h1.5l-4.1,14.4h-1.5l-3.4-11.8l-3.4,11.8H1122.3z"
			/>
		<path d="M1141,363.1c-0.8,0-1.5-0.1-2-0.4c-0.5-0.3-1-0.7-1.2-1.2c-0.3-0.5-0.4-1-0.4-1.6c0-0.6,0.1-1.1,0.4-1.5
			c0.2-0.4,0.6-0.8,1-1c0.4-0.3,0.9-0.5,1.4-0.6c0.5-0.1,1.2-0.3,1.8-0.4c0.7-0.1,1.3-0.2,2-0.3s1.2-0.2,1.7-0.2l-0.5,0.3
			c0-1.1-0.2-1.9-0.6-2.4c-0.4-0.5-1.2-0.8-2.3-0.8c-0.7,0-1.4,0.2-1.9,0.5c-0.5,0.3-0.9,0.9-1.1,1.6l-1.4-0.4
			c0.2-1,0.7-1.7,1.5-2.2c0.7-0.5,1.7-0.8,2.9-0.8c1,0,1.8,0.2,2.5,0.6s1.2,0.9,1.5,1.6c0.1,0.3,0.2,0.7,0.3,1
			c0,0.4,0.1,0.8,0.1,1.2v6.7h-1.3v-2.7l0.4,0.2c-0.4,0.9-0.9,1.6-1.7,2.1C1143,362.8,1142,363.1,1141,363.1z M1141.1,361.8
			c0.7,0,1.3-0.1,1.8-0.4s0.9-0.6,1.2-1c0.3-0.4,0.5-0.9,0.6-1.5c0.1-0.3,0.1-0.7,0.1-1.1c0-0.4,0-0.7,0-0.9l0.6,0.3
			c-0.5,0.1-1,0.1-1.6,0.2c-0.6,0.1-1.2,0.1-1.7,0.2s-1.1,0.2-1.5,0.3c-0.3,0.1-0.6,0.2-0.9,0.4c-0.3,0.2-0.5,0.4-0.7,0.6
			c-0.2,0.3-0.3,0.6-0.3,1c0,0.3,0.1,0.6,0.2,0.9c0.2,0.3,0.4,0.5,0.8,0.7C1140.1,361.7,1140.6,361.8,1141.1,361.8z"/>
		<path d="M1148,362.8v-0.3l7-9.1h-6.4V352h8.9v0.3l-7,9.1h6.6v1.4H1148z"/>
		<path d="M1163.7,363c-0.6,0-1.2-0.1-1.7-0.3c-0.5-0.2-0.9-0.5-1.2-0.8c-0.3-0.3-0.6-0.7-0.8-1.2c-0.2-0.4-0.4-0.9-0.4-1.4
			c-0.1-0.5-0.1-1-0.1-1.5V352h1.5v5.5c0,0.6,0.1,1.1,0.2,1.6c0.1,0.5,0.3,0.9,0.5,1.3s0.6,0.7,1,0.9c0.4,0.2,0.9,0.3,1.4,0.3
			c0.5,0,1-0.1,1.4-0.3c0.4-0.2,0.7-0.4,1-0.8c0.3-0.3,0.5-0.7,0.6-1.2c0.1-0.5,0.2-1,0.2-1.6l1,0.2c0,1.1-0.2,2-0.6,2.8
			c-0.4,0.8-0.9,1.3-1.6,1.7S1164.6,363,1163.7,363z M1167.3,362.8v-2.7h-0.2V352h1.5v10.8H1167.3z"/>
		<path d="M1171.4,362.8v-14.4h1.3v8.1h0.2v6.3H1171.4z M1179.3,362.8v-5.5c0-0.6-0.1-1.2-0.2-1.7s-0.3-0.9-0.5-1.3s-0.6-0.7-1-0.9
			s-0.9-0.3-1.4-0.3c-0.5,0-1,0.1-1.4,0.3c-0.4,0.2-0.7,0.4-1,0.8c-0.3,0.3-0.5,0.7-0.6,1.2c-0.1,0.5-0.2,1-0.2,1.6l-1-0.2
			c0-1.1,0.2-2,0.6-2.8s0.9-1.3,1.6-1.7c0.7-0.4,1.5-0.6,2.3-0.6c0.6,0,1.2,0.1,1.7,0.3c0.5,0.2,0.9,0.5,1.2,0.8s0.6,0.7,0.8,1.2
			c0.2,0.4,0.4,0.9,0.5,1.4c0.1,0.5,0.1,1,0.1,1.5v5.9H1179.3z"/>
	</g>
	<polygon class="st1" points="37.8,564.6 37.8,39.6 380.3,39.6 380.3,564.6 380.3,564.6 	"/>
	<g>
		<g>
			<path d="M1121.2,433.6l5-14.4h1.9l5,14.4h-1.5l-4.7-13.6h0.6l-4.7,13.6H1121.2z M1123.4,430.1v-1.4h7.4v1.4H1123.4z"/>
			<path d="M1133.9,433.6v-0.3l7-9.1h-6.5v-1.4h8.9v0.3l-7,9.1h6.6v1.4H1133.9z"/>
			<path d="M1149.6,433.9c-0.6,0-1.2-0.1-1.7-0.3c-0.5-0.2-0.9-0.5-1.2-0.8c-0.3-0.3-0.6-0.7-0.8-1.2c-0.2-0.4-0.4-0.9-0.5-1.4
				c-0.1-0.5-0.1-1-0.1-1.5v-5.9h1.5v5.5c0,0.6,0.1,1.1,0.2,1.6c0.1,0.5,0.3,0.9,0.5,1.3s0.6,0.7,1,0.9s0.9,0.3,1.4,0.3
				c0.5,0,1-0.1,1.4-0.3c0.4-0.2,0.7-0.4,1-0.8c0.3-0.3,0.5-0.7,0.6-1.2c0.1-0.5,0.2-1,0.2-1.6l1,0.2c0,1.1-0.2,2-0.6,2.8
				s-0.9,1.3-1.6,1.7S1150.5,433.9,1149.6,433.9z M1153.3,433.6V431h-0.2v-8.1h1.5v10.8H1153.3z"/>
			<path d="M1157.4,433.6v-10.8h1.3v2.6l-0.3-0.3c0.1-0.3,0.3-0.6,0.5-0.9s0.4-0.5,0.6-0.7c0.3-0.2,0.6-0.4,1-0.6
				c0.4-0.1,0.8-0.2,1.1-0.2s0.7,0,1,0.1v1.4c-0.4-0.1-0.8-0.1-1.3-0.1c-0.5,0.1-0.9,0.2-1.3,0.6c-0.4,0.3-0.6,0.6-0.8,1
				c-0.2,0.4-0.3,0.8-0.4,1.2c-0.1,0.4-0.1,0.9-0.1,1.3v5.4H1157.4z"/>
			<path d="M1169.2,433.9c-1.1,0-2-0.2-2.7-0.7c-0.8-0.5-1.4-1.1-1.8-2c-0.4-0.8-0.6-1.8-0.6-3c0-1.2,0.2-2.2,0.6-3.1
				c0.4-0.9,1-1.5,1.8-2s1.7-0.7,2.7-0.7c1.1,0,2,0.2,2.7,0.7c0.8,0.5,1.3,1.2,1.7,2.1c0.4,0.9,0.6,2,0.5,3.3h-1.5v-0.5
				c0-1.4-0.3-2.5-0.9-3.2c-0.6-0.7-1.4-1.1-2.5-1.1c-1.2,0-2,0.4-2.7,1.1c-0.6,0.8-0.9,1.8-0.9,3.2c0,1.4,0.3,2.4,0.9,3.2
				c0.6,0.8,1.5,1.1,2.6,1.1c0.8,0,1.4-0.2,2-0.5c0.6-0.4,1-0.9,1.4-1.5l1.4,0.5c-0.4,0.9-1.1,1.7-1.9,2.2
				S1170.2,433.9,1169.2,433.9z M1165,428.6v-1.2h8.2v1.2H1165z"/>
			<path d="M1116.8,457.6v-10.8h1.3v2.7h0.2v8.1H1116.8z M1123.3,457.6l0-7c0-0.9-0.2-1.5-0.7-2c-0.5-0.5-1.1-0.7-1.8-0.7
				c-0.7,0-1.4,0.3-1.8,0.8c-0.5,0.5-0.7,1.2-0.7,2l-0.9-0.5c0-0.7,0.2-1.3,0.5-1.9c0.3-0.6,0.8-1,1.3-1.3c0.6-0.3,1.2-0.5,1.9-0.5
				c0.7,0,1.3,0.1,1.8,0.4c0.5,0.3,1,0.7,1.3,1.3s0.5,1.2,0.5,2l0,7.3H1123.3z M1129.7,457.6l0-7.1c0-0.8-0.2-1.5-0.7-2
				c-0.5-0.5-1.1-0.7-1.8-0.7c-0.4,0-0.8,0.1-1.2,0.3c-0.4,0.2-0.7,0.5-1,0.9c-0.2,0.4-0.4,1-0.4,1.6l-0.9-0.2c0-0.8,0.1-1.4,0.5-2
				c0.3-0.6,0.8-1,1.3-1.4c0.6-0.3,1.2-0.5,1.9-0.5c1.1,0,2,0.3,2.6,1s1,1.6,1,2.7l0,7.4H1129.7z"/>
			<path d="M1138.3,457.9c-1.1,0-2-0.2-2.8-0.7c-0.8-0.5-1.3-1.2-1.8-2c-0.4-0.9-0.6-1.8-0.6-3c0-1.1,0.2-2.1,0.6-3
				c0.4-0.9,1-1.5,1.8-2c0.8-0.5,1.7-0.7,2.7-0.7c1.1,0,2,0.2,2.8,0.7s1.3,1.2,1.8,2c0.4,0.9,0.6,1.8,0.6,3c0,1.1-0.2,2.1-0.6,3
				c-0.4,0.9-1,1.5-1.8,2S1139.4,457.9,1138.3,457.9z M1138.3,456.5c1.2,0,2.1-0.4,2.7-1.2c0.6-0.8,0.9-1.8,0.9-3.1
				c0-1.3-0.3-2.3-0.9-3.1s-1.5-1.2-2.7-1.2c-0.8,0-1.5,0.2-2,0.5s-0.9,0.9-1.2,1.5c-0.3,0.6-0.4,1.4-0.4,2.2c0,1.3,0.3,2.3,0.9,3.1
				C1136.2,456.1,1137.1,456.5,1138.3,456.5z"/>
			<path d="M1149.8,457.9c-1,0-1.9-0.3-2.6-0.8c-0.7-0.5-1.3-1.2-1.6-2s-0.6-1.8-0.6-2.9c0-1.1,0.2-2,0.6-2.9c0.4-0.9,0.9-1.5,1.6-2
				c0.7-0.5,1.6-0.8,2.5-0.8c1,0,1.9,0.2,2.6,0.7c0.7,0.5,1.2,1.2,1.6,2s0.5,1.8,0.5,2.9c0,1.1-0.2,2-0.5,2.9s-0.9,1.5-1.6,2
				C1151.6,457.7,1150.8,457.9,1149.8,457.9z M1149.9,456.6c0.8,0,1.4-0.2,1.9-0.6s0.9-0.9,1.1-1.5c0.2-0.7,0.4-1.4,0.4-2.2
				c0-0.8-0.1-1.6-0.4-2.2c-0.2-0.7-0.6-1.2-1.1-1.5c-0.5-0.4-1.1-0.5-1.9-0.5c-0.8,0-1.4,0.2-1.9,0.6c-0.5,0.4-0.9,0.9-1.1,1.6
				c-0.2,0.7-0.4,1.4-0.4,2.2c0,0.8,0.1,1.6,0.4,2.2s0.6,1.2,1.1,1.6C1148.6,456.4,1149.2,456.6,1149.9,456.6z M1153.3,457.6v-8.1
				h-0.2v-6.3h1.5v14.4H1153.3z"/>
			<path d="M1161.6,457.9c-0.6,0-1.2-0.1-1.7-0.3c-0.5-0.2-0.9-0.5-1.2-0.8c-0.3-0.3-0.6-0.7-0.8-1.2c-0.2-0.4-0.4-0.9-0.5-1.4
				c-0.1-0.5-0.1-1-0.1-1.5v-5.9h1.5v5.5c0,0.6,0.1,1.1,0.2,1.6c0.1,0.5,0.3,0.9,0.5,1.3s0.6,0.7,1,0.9s0.9,0.3,1.4,0.3
				c0.5,0,1-0.1,1.4-0.3c0.4-0.2,0.7-0.4,1-0.8c0.3-0.3,0.5-0.7,0.6-1.2c0.1-0.5,0.2-1,0.2-1.6l1,0.2c0,1.1-0.2,2-0.6,2.8
				s-0.9,1.3-1.6,1.7S1162.5,457.9,1161.6,457.9z M1165.2,457.6V455h-0.2v-8.1h1.5v10.8H1165.2z"/>
			<path d="M1169.5,457.6v-14.7h1.5v14.7H1169.5z"/>
			<path d="M1178.6,457.9c-1.1,0-2-0.2-2.7-0.7c-0.8-0.5-1.4-1.1-1.8-2c-0.4-0.8-0.6-1.8-0.6-3c0-1.2,0.2-2.2,0.6-3.1
				c0.4-0.9,1-1.5,1.8-2s1.7-0.7,2.7-0.7c1.1,0,2,0.2,2.7,0.7c0.8,0.5,1.3,1.2,1.7,2.1c0.4,0.9,0.6,2,0.5,3.3h-1.5v-0.5
				c0-1.4-0.3-2.5-0.9-3.2c-0.6-0.7-1.4-1.1-2.5-1.1c-1.2,0-2,0.4-2.7,1.1c-0.6,0.8-0.9,1.8-0.9,3.2c0,1.4,0.3,2.4,0.9,3.2
				c0.6,0.8,1.5,1.1,2.6,1.1c0.8,0,1.4-0.2,2-0.5c0.6-0.4,1-0.9,1.4-1.5l1.4,0.5c-0.4,0.9-1.1,1.7-1.9,2.2
				S1179.6,457.9,1178.6,457.9z M1174.4,452.6v-1.2h8.2v1.2H1174.4z"/>
		</g>
	</g>
	
		<sodipodi:namedview  bordercolor="#666666" borderopacity="1" gridtolerance="10" guidetolerance="10" id="namedview474" inkscape:current-layer="svg472" inkscape:cx="303.89333" inkscape:cy="224.47717" inkscape:document-rotation="0" inkscape:pageopacity="0" inkscape:pageshadow="2" inkscape:window-height="1056" inkscape:window-maximized="1" inkscape:window-width="1920" inkscape:window-x="1920" inkscape:window-y="0" inkscape:zoom="1.667127" objecttolerance="10" pagecolor="#ffffff" showgrid="false">
		</sodipodi:namedview>
	<rect x="555.2" y="306.4" class="st1" width="329.9" height="229.8"/>
	<rect x="631.1" y="383.3" class="st2" width="178.1" height="74.1"/>
	<g>
		<g>
			<path d="M676.8,427.8l5-14.4h1.9l5,14.4h-1.5l-4.7-13.6h0.6l-4.7,13.6H676.8z M679,424.3V423h7.4v1.4H679z"/>
			<path d="M689.4,427.8v-0.3l7-9.1H690V417h8.9v0.3l-7,9.1h6.6v1.4H689.4z"/>
			<path d="M705.2,428.1c-0.6,0-1.2-0.1-1.7-0.3c-0.5-0.2-0.9-0.5-1.2-0.8c-0.3-0.3-0.6-0.7-0.8-1.2c-0.2-0.4-0.4-0.9-0.5-1.4
				c-0.1-0.5-0.1-1-0.1-1.5V417h1.5v5.5c0,0.6,0.1,1.1,0.2,1.6c0.1,0.5,0.3,0.9,0.5,1.3s0.6,0.7,1,0.9s0.9,0.3,1.4,0.3
				c0.5,0,1-0.1,1.4-0.3c0.4-0.2,0.7-0.4,1-0.8c0.3-0.3,0.5-0.7,0.6-1.2c0.1-0.5,0.2-1,0.2-1.6l1,0.2c0,1.1-0.2,2-0.6,2.8
				s-0.9,1.3-1.6,1.7S706,428.1,705.2,428.1z M708.8,427.8v-2.7h-0.2V417h1.5v10.8H708.8z"/>
			<path d="M712.9,427.8V417h1.3v2.6l-0.3-0.3c0.1-0.3,0.3-0.6,0.5-0.9s0.4-0.5,0.6-0.7c0.3-0.2,0.6-0.4,1-0.6
				c0.4-0.1,0.8-0.2,1.1-0.2s0.7,0,1,0.1v1.4c-0.4-0.1-0.8-0.1-1.3-0.1c-0.5,0.1-0.9,0.2-1.3,0.6c-0.4,0.3-0.6,0.6-0.8,1
				c-0.2,0.4-0.3,0.8-0.4,1.2c-0.1,0.4-0.1,0.9-0.1,1.3v5.4H712.9z"/>
			<path d="M724.7,428.1c-1.1,0-2-0.2-2.7-0.7c-0.8-0.5-1.4-1.1-1.8-2c-0.4-0.8-0.6-1.8-0.6-3c0-1.2,0.2-2.2,0.6-3.1
				c0.4-0.9,1-1.5,1.8-2s1.7-0.7,2.7-0.7c1.1,0,2,0.2,2.7,0.7c0.8,0.5,1.3,1.2,1.7,2.1c0.4,0.9,0.6,2,0.5,3.3h-1.5v-0.5
				c0-1.4-0.3-2.5-0.9-3.2c-0.6-0.7-1.4-1.1-2.5-1.1c-1.2,0-2,0.4-2.7,1.1c-0.6,0.8-0.9,1.8-0.9,3.2c0,1.4,0.3,2.4,0.9,3.2
				c0.6,0.8,1.5,1.1,2.6,1.1c0.8,0,1.4-0.2,2-0.5c0.6-0.4,1-0.9,1.4-1.5l1.4,0.5c-0.4,0.9-1.1,1.7-1.9,2.2S725.7,428.1,724.7,428.1z
				 M720.6,422.8v-1.2h8.2v1.2H720.6z"/>
			<path d="M734.8,427.8l5-14.4h1.9l5,14.4h-1.5l-4.7-13.6h0.6l-4.7,13.6H734.8z M737,424.3V423h7.4v1.4H737z"/>
			<path d="M748.5,427.8v-14.4h5.6c0.1,0,0.3,0,0.5,0c0.2,0,0.4,0,0.5,0.1c0.8,0.1,1.4,0.4,1.9,0.8c0.5,0.4,0.9,0.9,1.2,1.5
				c0.3,0.6,0.4,1.3,0.4,2.1c0,0.7-0.1,1.4-0.4,2.1s-0.7,1.1-1.2,1.5s-1.2,0.7-1.9,0.8c-0.2,0-0.4,0-0.5,0.1c-0.2,0-0.3,0-0.5,0H750
				v5.5H748.5z M750,421h4c0.1,0,0.3,0,0.4,0c0.2,0,0.3,0,0.5-0.1c0.5-0.1,0.9-0.3,1.2-0.6c0.3-0.3,0.6-0.7,0.7-1.1
				c0.2-0.4,0.2-0.8,0.2-1.3c0-0.4-0.1-0.9-0.2-1.3c-0.2-0.4-0.4-0.8-0.7-1.1c-0.3-0.3-0.7-0.5-1.2-0.6c-0.2,0-0.3-0.1-0.5-0.1
				c-0.2,0-0.3,0-0.4,0h-4V421z"/>
			<path d="M760.8,427.8v-14.4h1.5v14.4H760.8z"/>
		</g>
	</g>
	<path class="st3" d="M591.9,346.3h256.3v152.2H591.9V346.3z"/>
	<g>
		<path d="M117.4,120.5l5-14.4h2l5,14.4h-1.5l-4.7-13.6h0.6l-4.7,13.6H117.4z M119.6,117v-1.4h7.4v1.4H119.6z"/>
		<path d="M130,120.5v-0.3l7-9.1h-6.5v-1.4h8.9v0.3l-7,9.1h6.6v1.4H130z"/>
		<path d="M145.8,120.7c-0.6,0-1.2-0.1-1.7-0.3c-0.5-0.2-0.9-0.5-1.2-0.8c-0.3-0.3-0.6-0.7-0.8-1.2c-0.2-0.4-0.4-0.9-0.5-1.4
			c-0.1-0.5-0.1-1-0.1-1.5v-5.9h1.5v5.5c0,0.6,0.1,1.1,0.2,1.6c0.1,0.5,0.3,0.9,0.5,1.3s0.6,0.7,1,0.9c0.4,0.2,0.9,0.3,1.4,0.3
			c0.5,0,1-0.1,1.4-0.3c0.4-0.2,0.7-0.4,1-0.8c0.3-0.3,0.5-0.7,0.6-1.2s0.2-1,0.2-1.6l1,0.2c0,1.1-0.2,2-0.6,2.8s-0.9,1.3-1.6,1.7
			C147.4,120.5,146.6,120.7,145.8,120.7z M149.4,120.5v-2.7h-0.2v-8.1h1.5v10.8H149.4z"/>
		<path d="M153.5,120.5v-10.8h1.3v2.6l-0.3-0.3c0.1-0.3,0.3-0.6,0.5-0.9s0.4-0.5,0.6-0.7c0.3-0.2,0.6-0.4,1-0.6
			c0.4-0.1,0.8-0.2,1.1-0.2s0.7,0,1,0.1v1.4c-0.4-0.1-0.8-0.1-1.3-0.1c-0.5,0.1-0.9,0.2-1.3,0.6c-0.4,0.3-0.6,0.6-0.8,1
			c-0.2,0.4-0.3,0.8-0.4,1.2c-0.1,0.4-0.1,0.9-0.1,1.3v5.4H153.5z"/>
		<path d="M165.3,120.8c-1.1,0-2-0.2-2.7-0.7c-0.8-0.5-1.4-1.1-1.8-2s-0.6-1.8-0.6-3c0-1.2,0.2-2.2,0.6-3.1c0.4-0.9,1-1.5,1.8-2
			c0.8-0.5,1.7-0.7,2.7-0.7c1.1,0,2,0.2,2.7,0.7c0.8,0.5,1.3,1.2,1.7,2.1c0.4,0.9,0.6,2,0.5,3.3h-1.5v-0.5c0-1.4-0.3-2.5-0.9-3.2
			c-0.6-0.7-1.4-1.1-2.5-1.1c-1.2,0-2,0.4-2.7,1.1c-0.6,0.8-0.9,1.8-0.9,3.2c0,1.4,0.3,2.4,0.9,3.2c0.6,0.8,1.5,1.1,2.6,1.1
			c0.8,0,1.4-0.2,2-0.5c0.6-0.4,1-0.9,1.4-1.5l1.4,0.5c-0.4,0.9-1.1,1.7-1.9,2.2S166.3,120.8,165.3,120.8z M161.2,115.5v-1.2h8.2
			v1.2H161.2z"/>
		<path d="M176.6,107.6V106h1.5v1.6H176.6z M176.6,120.5v-10.8h1.5v10.8H176.6z"/>
		<path d="M181.1,120.5v-10.8h1.3v2.7h0.1v8.1H181.1z M188.9,120.5v-5.5c0-0.6-0.1-1.2-0.2-1.7s-0.3-0.9-0.5-1.3s-0.6-0.7-1-0.9
			c-0.4-0.2-0.9-0.3-1.4-0.3c-0.5,0-1,0.1-1.4,0.3c-0.4,0.2-0.7,0.4-1,0.8c-0.3,0.3-0.5,0.7-0.6,1.2c-0.1,0.5-0.2,1-0.2,1.6l-1-0.2
			c0-1.1,0.2-2,0.6-2.8s0.9-1.3,1.6-1.7c0.7-0.4,1.5-0.6,2.3-0.6c0.6,0,1.2,0.1,1.7,0.3s0.9,0.5,1.2,0.8c0.3,0.3,0.6,0.7,0.8,1.2
			c0.2,0.4,0.4,0.9,0.5,1.4c0.1,0.5,0.1,1,0.1,1.5v5.9H188.9z"/>
		<path d="M192.2,110.9v-1.3h6.3v1.3H192.2z M194,120.5v-11.6c0-0.3,0-0.6,0-0.8c0-0.3,0.1-0.5,0.2-0.8s0.2-0.5,0.4-0.7
			c0.2-0.2,0.5-0.4,0.7-0.5s0.5-0.2,0.8-0.2c0.3,0,0.6-0.1,0.8-0.1h1.4v1.2h-1.3c-0.6,0-1,0.1-1.3,0.4c-0.3,0.3-0.4,0.7-0.4,1.3
			v11.8H194z"/>
		<path d="M200.1,120.5v-10.8h1.3v2.6l-0.3-0.3c0.1-0.3,0.3-0.6,0.5-0.9c0.2-0.3,0.4-0.5,0.6-0.7c0.3-0.2,0.6-0.4,1-0.6
			c0.4-0.1,0.8-0.2,1.1-0.2s0.7,0,1,0.1v1.4c-0.4-0.1-0.8-0.1-1.3-0.1c-0.5,0.1-0.9,0.2-1.3,0.6c-0.4,0.3-0.6,0.6-0.8,1
			c-0.2,0.4-0.3,0.8-0.4,1.2c-0.1,0.4-0.1,0.9-0.1,1.3v5.4H200.1z"/>
		<path d="M210.4,120.8c-0.8,0-1.5-0.1-2-0.4c-0.5-0.3-1-0.7-1.2-1.2c-0.3-0.5-0.4-1-0.4-1.6c0-0.6,0.1-1.1,0.4-1.5
			c0.2-0.4,0.6-0.8,1-1c0.4-0.3,0.9-0.5,1.4-0.6c0.5-0.1,1.2-0.3,1.8-0.4c0.7-0.1,1.3-0.2,2-0.3s1.2-0.2,1.7-0.2l-0.5,0.3
			c0-1.1-0.2-1.9-0.6-2.4c-0.4-0.5-1.2-0.8-2.3-0.8c-0.7,0-1.4,0.2-1.9,0.5c-0.5,0.3-0.9,0.9-1.1,1.6l-1.4-0.4
			c0.2-1,0.7-1.7,1.5-2.2c0.7-0.5,1.7-0.8,2.9-0.8c1,0,1.8,0.2,2.5,0.6c0.7,0.4,1.2,0.9,1.5,1.6c0.1,0.3,0.2,0.7,0.3,1
			c0,0.4,0.1,0.8,0.1,1.2v6.7h-1.3v-2.7l0.4,0.2c-0.4,0.9-0.9,1.6-1.7,2.1C212.4,120.5,211.4,120.8,210.4,120.8z M210.5,119.5
			c0.7,0,1.3-0.1,1.8-0.4c0.5-0.2,0.9-0.6,1.2-1s0.5-0.9,0.6-1.5c0.1-0.3,0.1-0.7,0.1-1.1c0-0.4,0-0.7,0-0.9l0.6,0.3
			c-0.5,0.1-1,0.1-1.6,0.2c-0.6,0.1-1.2,0.1-1.7,0.2s-1.1,0.2-1.5,0.3c-0.3,0.1-0.6,0.2-0.9,0.4c-0.3,0.2-0.5,0.4-0.7,0.6
			c-0.2,0.3-0.3,0.6-0.3,1c0,0.3,0.1,0.6,0.2,0.9c0.2,0.3,0.4,0.5,0.8,0.7C209.5,119.4,209.9,119.5,210.5,119.5z"/>
		<path d="M222.4,120.7c-1.3,0-2.3-0.3-3.1-0.8c-0.8-0.5-1.3-1.3-1.5-2.3l1.5-0.2c0.2,0.6,0.5,1.1,1.1,1.5c0.6,0.4,1.3,0.5,2.1,0.5
			c0.8,0,1.5-0.2,1.9-0.5c0.5-0.3,0.7-0.8,0.7-1.4c0-0.3-0.1-0.6-0.2-0.8c-0.1-0.2-0.5-0.4-0.9-0.6c-0.5-0.2-1.1-0.4-2.1-0.6
			c-1-0.3-1.7-0.5-2.3-0.8c-0.6-0.3-0.9-0.6-1.2-0.9s-0.3-0.8-0.3-1.3c0-0.6,0.2-1.2,0.5-1.6s0.8-0.8,1.4-1.1
			c0.6-0.3,1.3-0.4,2.1-0.4s1.5,0.1,2.2,0.4c0.6,0.3,1.2,0.6,1.6,1.1c0.4,0.5,0.6,1,0.7,1.6l-1.5,0.3c-0.1-0.6-0.4-1.1-0.9-1.5
			s-1.2-0.6-2-0.6c-0.8,0-1.4,0.1-1.9,0.4c-0.5,0.3-0.7,0.7-0.7,1.2c0,0.3,0.1,0.5,0.3,0.7c0.2,0.2,0.5,0.4,0.9,0.6
			c0.5,0.2,1.1,0.4,2,0.6c1,0.3,1.8,0.5,2.3,0.8c0.6,0.3,1,0.6,1.2,1c0.2,0.4,0.4,0.9,0.4,1.4c0,1-0.4,1.8-1.1,2.4
			S223.7,120.7,222.4,120.7z"/>
		<path d="M227.7,110.9v-1.3h7.1v1.3H227.7z M234.8,120.5c-0.6,0.1-1.2,0.2-1.8,0.1c-0.6,0-1.1-0.2-1.6-0.4
			c-0.5-0.2-0.8-0.6-1.1-1.1c-0.2-0.4-0.3-0.8-0.3-1.2c0-0.4,0-0.9,0-1.4v-9.9h1.5v9.8c0,0.5,0,0.8,0,1.1c0,0.3,0.1,0.6,0.2,0.8
			c0.2,0.4,0.6,0.7,1.1,0.8c0.5,0.1,1.2,0.1,1.9-0.1V120.5z"/>
		<path d="M236.9,120.5v-10.8h1.3v2.6l-0.3-0.3c0.1-0.3,0.3-0.6,0.5-0.9s0.4-0.5,0.6-0.7c0.3-0.2,0.6-0.4,1-0.6
			c0.4-0.1,0.8-0.2,1.1-0.2s0.7,0,1,0.1v1.4c-0.4-0.1-0.8-0.1-1.3-0.1c-0.5,0.1-0.9,0.2-1.3,0.6c-0.4,0.3-0.6,0.6-0.8,1
			c-0.2,0.4-0.3,0.8-0.4,1.2c-0.1,0.4-0.1,0.9-0.1,1.3v5.4H236.9z"/>
		<path d="M248.2,120.7c-0.6,0-1.2-0.1-1.7-0.3c-0.5-0.2-0.9-0.5-1.2-0.8c-0.3-0.3-0.6-0.7-0.8-1.2c-0.2-0.4-0.4-0.9-0.5-1.4
			c-0.1-0.5-0.1-1-0.1-1.5v-5.9h1.5v5.5c0,0.6,0.1,1.1,0.2,1.6c0.1,0.5,0.3,0.9,0.5,1.3s0.6,0.7,1,0.9c0.4,0.2,0.9,0.3,1.4,0.3
			c0.5,0,1-0.1,1.4-0.3c0.4-0.2,0.7-0.4,1-0.8c0.3-0.3,0.5-0.7,0.6-1.2s0.2-1,0.2-1.6l1,0.2c0,1.1-0.2,2-0.6,2.8s-0.9,1.3-1.6,1.7
			C249.9,120.5,249.1,120.7,248.2,120.7z M251.9,120.5v-2.7h-0.2v-8.1h1.5v10.8H251.9z"/>
		<path d="M260.5,120.8c-1.1,0-2-0.2-2.8-0.7c-0.8-0.5-1.3-1.2-1.7-2c-0.4-0.9-0.6-1.8-0.6-3c0-1.1,0.2-2.1,0.6-3
			c0.4-0.9,1-1.5,1.7-2c0.8-0.5,1.7-0.7,2.7-0.7c1.1,0,2,0.3,2.9,0.8c0.8,0.5,1.4,1.3,1.7,2.2l-1.4,0.5c-0.3-0.6-0.7-1.1-1.2-1.5
			c-0.5-0.4-1.2-0.5-1.9-0.5c-0.8,0-1.5,0.2-2,0.5c-0.5,0.4-0.9,0.9-1.2,1.5c-0.3,0.6-0.4,1.4-0.4,2.2c0,1.3,0.3,2.3,0.9,3.1
			c0.6,0.8,1.5,1.2,2.6,1.2c0.7,0,1.4-0.2,1.9-0.5c0.5-0.3,0.9-0.8,1.2-1.5l1.5,0.4c-0.4,1-1,1.7-1.8,2.2S261.5,120.8,260.5,120.8z"
			/>
		<path d="M265.8,110.9v-1.3h7.1v1.3H265.8z M272.9,120.5c-0.6,0.1-1.2,0.2-1.8,0.1s-1.1-0.2-1.6-0.4c-0.5-0.2-0.8-0.6-1.1-1.1
			c-0.2-0.4-0.3-0.8-0.3-1.2c0-0.4,0-0.9,0-1.4v-9.9h1.5v9.8c0,0.5,0,0.8,0,1.1s0.1,0.6,0.2,0.8c0.2,0.4,0.6,0.7,1.1,0.8
			c0.5,0.1,1.2,0.1,1.9-0.1V120.5z"/>
		<path d="M279.2,120.7c-0.6,0-1.2-0.1-1.7-0.3c-0.5-0.2-0.9-0.5-1.2-0.8c-0.3-0.3-0.6-0.7-0.8-1.2c-0.2-0.4-0.4-0.9-0.5-1.4
			c-0.1-0.5-0.1-1-0.1-1.5v-5.9h1.5v5.5c0,0.6,0.1,1.1,0.2,1.6c0.1,0.5,0.3,0.9,0.5,1.3s0.6,0.7,1,0.9s0.9,0.3,1.4,0.3
			c0.5,0,1-0.1,1.4-0.3c0.4-0.2,0.7-0.4,1-0.8c0.3-0.3,0.5-0.7,0.6-1.2c0.1-0.5,0.2-1,0.2-1.6l1,0.2c0,1.1-0.2,2-0.6,2.8
			c-0.4,0.8-0.9,1.3-1.6,1.7S280.1,120.7,279.2,120.7z M282.8,120.5v-2.7h-0.2v-8.1h1.5v10.8H282.8z"/>
		<path d="M286.9,120.5v-10.8h1.3v2.6l-0.3-0.3c0.1-0.3,0.3-0.6,0.5-0.9c0.2-0.3,0.4-0.5,0.6-0.7c0.3-0.2,0.6-0.4,1-0.6
			c0.4-0.1,0.8-0.2,1.1-0.2s0.7,0,1,0.1v1.4c-0.4-0.1-0.8-0.1-1.3-0.1c-0.5,0.1-0.9,0.2-1.3,0.6c-0.4,0.3-0.6,0.6-0.8,1
			c-0.2,0.4-0.3,0.8-0.4,1.2c-0.1,0.4-0.1,0.9-0.1,1.3v5.4H286.9z"/>
		<path d="M298.7,120.8c-1.1,0-2-0.2-2.7-0.7c-0.8-0.5-1.4-1.1-1.8-2s-0.6-1.8-0.6-3c0-1.2,0.2-2.2,0.6-3.1c0.4-0.9,1-1.5,1.8-2
			s1.7-0.7,2.7-0.7c1.1,0,2,0.2,2.7,0.7c0.8,0.5,1.3,1.2,1.7,2.1c0.4,0.9,0.6,2,0.5,3.3h-1.5v-0.5c0-1.4-0.3-2.5-0.9-3.2
			c-0.6-0.7-1.4-1.1-2.5-1.1c-1.2,0-2,0.4-2.7,1.1c-0.6,0.8-0.9,1.8-0.9,3.2c0,1.4,0.3,2.4,0.9,3.2s1.5,1.1,2.6,1.1
			c0.8,0,1.4-0.2,2-0.5c0.6-0.4,1-0.9,1.4-1.5l1.4,0.5c-0.4,0.9-1.1,1.7-1.9,2.2S299.8,120.8,298.7,120.8z M294.6,115.5v-1.2h8.2
			v1.2H294.6z"/>
	</g>
	<path class="st3" d="M76.4,76.4h265.4v451.4H76.4V76.4z"/>
	<g>
		<g>
			<polyline class="st4" points="296.1,354.8 468.9,354.8 468.9,409.8 591.7,409.8 			"/>
			<g>
				<path class="st5" d="M591.4,417.3c4.2,0,7.5-3.4,7.5-7.5s-3.4-7.5-7.5-7.5c-4.2,0-7.5,3.4-7.5,7.5S587.2,417.3,591.4,417.3z"/>
			</g>
		</g>
	</g>
	<g>
		<g>
			<line class="st6" x1="847.7" y1="421.1" x2="1022.5" y2="421.1"/>
			<g>
				<path class="st7" d="M848.1,428.7c-4.2,0-7.6-3.4-7.6-7.6s3.4-7.6,7.6-7.6c4.2,0,7.6,3.4,7.6,7.6S852.3,428.7,848.1,428.7z"/>
			</g>
			<g>
				<path class="st7" d="M1022.1,428.7c4.2,0,7.6-3.4,7.6-7.6s-3.4-7.6-7.6-7.6c-4.2,0-7.6,3.4-7.6,7.6S1017.9,428.7,1022.1,428.7z"
					/>
			</g>
		</g>
	</g>
	<g>
		<g>
			<polyline class="st4" points="295.6,468.7 474.1,468.7 474.1,435.8 591.2,435.8 			"/>
			<g>
				<circle class="st5" cx="590.9" cy="435.8" r="7.5"/>
			</g>
		</g>
	</g>
	<g>
		<g>
			<g id="line260_3_">
				<g>
					<polyline class="st4" points="296.1,204.6 1150.3,204.6 1150.3,318.2 					"/>
					<g>
						<path class="st5" d="M1142.7,317.8c0,4.2,3.4,7.5,7.5,7.5s7.5-3.4,7.5-7.5c0-4.2-3.4-7.5-7.5-7.5S1142.7,313.6,1142.7,317.8z"
							/>
					</g>
				</g>
			</g>
		</g>
	</g>
	<rect x="114.4" y="297.6" class="st2" width="188.1" height="115.1"/>
	<rect x="135.4" y="344.8" class="st1" width="146" height="42.7"/>
	<g>
		<path d="M181.8,329.4c-0.8,0-1.5-0.1-2.2-0.4c-0.6-0.3-1.2-0.7-1.6-1.1s-0.7-1.1-0.8-1.8l1.2-0.2c0.2,0.7,0.6,1.3,1.2,1.8
			c0.6,0.4,1.4,0.6,2.2,0.6c0.6,0,1.1-0.1,1.5-0.3s0.8-0.4,1.1-0.8c0.3-0.3,0.4-0.7,0.4-1.2c0-0.3-0.1-0.6-0.2-0.8
			c-0.1-0.2-0.2-0.4-0.4-0.5c-0.2-0.1-0.4-0.3-0.6-0.3s-0.4-0.2-0.6-0.2l-2.9-0.9c-0.4-0.1-0.7-0.2-1-0.4c-0.3-0.2-0.6-0.3-0.8-0.6
			c-0.2-0.2-0.4-0.5-0.5-0.8s-0.2-0.6-0.2-1c0-0.7,0.2-1.2,0.5-1.7c0.3-0.5,0.8-0.8,1.4-1.1c0.6-0.3,1.3-0.4,2-0.4
			c0.8,0,1.5,0.1,2.1,0.4c0.6,0.3,1.1,0.7,1.5,1.2c0.4,0.5,0.7,1.1,0.8,1.8l-1.2,0.2c-0.1-0.5-0.3-0.9-0.6-1.3
			c-0.3-0.4-0.7-0.7-1.1-0.9c-0.4-0.2-0.9-0.3-1.5-0.3c-0.5,0-1,0.1-1.4,0.3c-0.4,0.2-0.7,0.4-1,0.7c-0.2,0.3-0.4,0.6-0.4,1
			c0,0.4,0.1,0.7,0.3,0.9c0.2,0.2,0.5,0.4,0.8,0.6s0.6,0.2,0.9,0.3l2.3,0.7c0.2,0.1,0.5,0.2,0.8,0.3c0.3,0.1,0.6,0.3,0.9,0.5
			c0.3,0.2,0.6,0.5,0.7,0.9c0.2,0.4,0.3,0.8,0.3,1.4c0,0.5-0.1,1-0.3,1.4s-0.5,0.8-0.9,1.1s-0.8,0.5-1.3,0.7
			C182.9,329.4,182.4,329.4,181.8,329.4z"/>
		<path d="M191.3,329.4c-0.8,0-1.6-0.2-2.2-0.6c-0.6-0.4-1.1-0.9-1.4-1.6s-0.5-1.5-0.5-2.4c0-0.9,0.2-1.8,0.5-2.4
			c0.3-0.7,0.8-1.2,1.4-1.6c0.6-0.4,1.3-0.6,2.2-0.6c0.9,0,1.6,0.2,2.2,0.6c0.6,0.4,1.1,1,1.4,1.7c0.3,0.7,0.5,1.6,0.4,2.6H194v-0.4
			c0-1.1-0.3-2-0.7-2.5s-1.1-0.9-2-0.9c-0.9,0-1.6,0.3-2.1,0.9s-0.7,1.5-0.7,2.6c0,1.1,0.2,1.9,0.7,2.5s1.2,0.9,2.1,0.9
			c0.6,0,1.2-0.1,1.6-0.4s0.8-0.7,1.1-1.2l1.1,0.4c-0.3,0.8-0.8,1.3-1.5,1.7C192.9,329.2,192.1,329.4,191.3,329.4z M188,325.2v-1
			h6.6v1H188z"/>
		<path d="M197,329.2v-8.6h1.1v2.1l-0.2-0.3c0.1-0.3,0.2-0.5,0.4-0.7c0.2-0.2,0.3-0.4,0.5-0.5c0.2-0.2,0.5-0.3,0.8-0.5
			s0.6-0.2,0.9-0.2c0.3,0,0.6,0,0.8,0.1v1.1c-0.3-0.1-0.7-0.1-1-0.1c-0.4,0-0.7,0.2-1,0.4c-0.3,0.2-0.5,0.5-0.6,0.8
			c-0.1,0.3-0.2,0.6-0.3,1c0,0.3-0.1,0.7-0.1,1v4.3H197z"/>
		<path d="M205.1,329.2l-3.1-8.6h1.2l2.6,7.1l2.5-7.1h1.2l-3.1,8.6H205.1z"/>
		<path d="M211.1,318.9v-1.3h1.2v1.3H211.1z M211.1,329.2v-8.6h1.2v8.6H211.1z"/>
		<path d="M218.2,329.4c-0.9,0-1.6-0.2-2.2-0.6c-0.6-0.4-1.1-0.9-1.4-1.6c-0.3-0.7-0.5-1.5-0.5-2.4c0-0.9,0.2-1.7,0.5-2.4
			c0.3-0.7,0.8-1.2,1.4-1.6s1.3-0.6,2.2-0.6c0.9,0,1.6,0.2,2.3,0.6c0.6,0.4,1.1,1,1.3,1.8l-1.2,0.4c-0.2-0.5-0.5-0.9-1-1.2
			c-0.4-0.3-0.9-0.4-1.5-0.4c-0.6,0-1.2,0.1-1.6,0.4c-0.4,0.3-0.7,0.7-0.9,1.2c-0.2,0.5-0.3,1.1-0.3,1.8c0,1,0.3,1.9,0.7,2.5
			c0.5,0.6,1.2,0.9,2.1,0.9c0.6,0,1.1-0.1,1.5-0.4c0.4-0.3,0.7-0.7,0.9-1.2l1.2,0.4c-0.3,0.8-0.8,1.4-1.4,1.8
			C219.8,329.2,219.1,329.4,218.2,329.4z"/>
		<path d="M227.2,329.4c-0.8,0-1.6-0.2-2.2-0.6c-0.6-0.4-1.1-0.9-1.4-1.6s-0.5-1.5-0.5-2.4c0-0.9,0.2-1.8,0.5-2.4
			c0.3-0.7,0.8-1.2,1.4-1.6c0.6-0.4,1.3-0.6,2.2-0.6c0.9,0,1.6,0.2,2.2,0.6c0.6,0.4,1.1,1,1.4,1.7c0.3,0.7,0.5,1.6,0.4,2.6h-1.2
			v-0.4c0-1.1-0.3-2-0.7-2.5s-1.1-0.9-2-0.9c-0.9,0-1.6,0.3-2.1,0.9s-0.7,1.5-0.7,2.6c0,1.1,0.2,1.9,0.7,2.5s1.2,0.9,2.1,0.9
			c0.6,0,1.2-0.1,1.6-0.4s0.8-0.7,1.1-1.2l1.1,0.4c-0.3,0.8-0.8,1.3-1.5,1.7C228.8,329.2,228,329.4,227.2,329.4z M223.9,325.2v-1
			h6.6v1H223.9z"/>
		<path d="M236.1,329.4c-1,0-1.8-0.2-2.5-0.7c-0.7-0.4-1.1-1-1.2-1.8l1.2-0.2c0.1,0.5,0.4,0.9,0.9,1.2c0.5,0.3,1,0.4,1.7,0.4
			c0.7,0,1.2-0.1,1.6-0.4c0.4-0.3,0.6-0.6,0.6-1.1c0-0.3-0.1-0.5-0.2-0.7s-0.4-0.3-0.7-0.5s-0.9-0.3-1.6-0.5
			c-0.8-0.2-1.4-0.4-1.8-0.6c-0.4-0.2-0.8-0.5-0.9-0.7c-0.2-0.3-0.3-0.6-0.3-1c0-0.5,0.1-0.9,0.4-1.3s0.7-0.7,1.2-0.9
			c0.5-0.2,1.1-0.3,1.7-0.3s1.2,0.1,1.8,0.3c0.5,0.2,0.9,0.5,1.2,0.9c0.3,0.4,0.5,0.8,0.6,1.3l-1.2,0.2c-0.1-0.5-0.3-0.9-0.8-1.2
			c-0.4-0.3-1-0.4-1.6-0.5c-0.6,0-1.1,0.1-1.5,0.3s-0.6,0.6-0.6,1c0,0.2,0.1,0.4,0.2,0.6s0.4,0.3,0.8,0.5c0.4,0.1,0.9,0.3,1.6,0.5
			c0.8,0.2,1.4,0.4,1.9,0.6s0.8,0.5,1,0.8s0.3,0.7,0.3,1.1c0,0.8-0.3,1.5-0.9,1.9C238,329.2,237.2,329.4,236.1,329.4z"/>
	</g>
	<g>
		<path class="st8" d="M150.1,371.2l4-11.5h1.6l4,11.5h-1.2l-3.8-10.9h0.5l-3.7,10.9H150.1z M151.9,368.4v-1.1h6v1.1H151.9z"/>
		<path class="st8" d="M164.7,371.5c-0.9,0-1.6-0.2-2.2-0.6c-0.6-0.4-1.1-0.9-1.4-1.6c-0.3-0.7-0.5-1.5-0.5-2.4
			c0-0.9,0.2-1.7,0.5-2.4c0.3-0.7,0.8-1.2,1.4-1.6s1.3-0.6,2.2-0.6c0.9,0,1.6,0.2,2.3,0.6c0.6,0.4,1.1,1,1.3,1.8l-1.2,0.4
			c-0.2-0.5-0.5-0.9-1-1.2c-0.4-0.3-0.9-0.4-1.5-0.4c-0.6,0-1.2,0.1-1.6,0.4c-0.4,0.3-0.7,0.7-0.9,1.2c-0.2,0.5-0.3,1.1-0.3,1.8
			c0,1,0.3,1.9,0.7,2.5c0.5,0.6,1.2,0.9,2.1,0.9c0.6,0,1.1-0.1,1.5-0.4c0.4-0.3,0.7-0.7,0.9-1.2l1.2,0.4c-0.3,0.8-0.8,1.4-1.4,1.8
			C166.3,371.3,165.5,371.5,164.7,371.5z"/>
		<path class="st8" d="M169,363.6v-1h5.7v1H169z M174.6,371.2c-0.5,0.1-1,0.1-1.4,0.1c-0.5,0-0.9-0.1-1.3-0.3
			c-0.4-0.2-0.7-0.5-0.8-0.8c-0.2-0.3-0.2-0.6-0.3-1c0-0.3,0-0.7,0-1.1v-7.9h1.2v7.9c0,0.4,0,0.7,0,0.9s0.1,0.5,0.2,0.6
			c0.2,0.4,0.5,0.6,0.9,0.6s0.9,0.1,1.6,0V371.2z"/>
		<path class="st8" d="M176.5,360.9v-1.3h1.2v1.3H176.5z M176.5,371.2v-8.6h1.2v8.6H176.5z"/>
		<path class="st8" d="M182.4,371.2l-3.1-8.6h1.2l2.6,7.1l2.5-7.1h1.2l-3.1,8.6H182.4z"/>
		<path class="st8" d="M191.9,371.5c-0.8,0-1.6-0.2-2.2-0.6c-0.6-0.4-1.1-0.9-1.4-1.6s-0.5-1.5-0.5-2.4c0-0.9,0.2-1.8,0.5-2.4
			c0.3-0.7,0.8-1.2,1.4-1.6c0.6-0.4,1.3-0.6,2.2-0.6c0.9,0,1.6,0.2,2.2,0.6c0.6,0.4,1.1,1,1.4,1.7c0.3,0.7,0.5,1.6,0.4,2.6h-1.2
			v-0.4c0-1.1-0.3-2-0.7-2.5s-1.1-0.9-2-0.9c-0.9,0-1.6,0.3-2.1,0.9s-0.7,1.5-0.7,2.6c0,1.1,0.2,1.9,0.7,2.5s1.2,0.9,2.1,0.9
			c0.6,0,1.2-0.1,1.6-0.4s0.8-0.7,1.1-1.2l1.1,0.4c-0.3,0.8-0.8,1.3-1.5,1.7C193.5,371.3,192.7,371.5,191.9,371.5z M188.6,367.2v-1
			h6.6v1H188.6z"/>
		<path d="M204.1,371.5c-0.8,0-1.5-0.2-2.1-0.6c-0.6-0.4-1-0.9-1.3-1.6c-0.3-0.7-0.5-1.5-0.5-2.3c0-0.9,0.2-1.6,0.5-2.3
			s0.7-1.2,1.3-1.6c0.6-0.4,1.2-0.6,2-0.6c0.8,0,1.5,0.2,2,0.6c0.6,0.4,1,0.9,1.3,1.6c0.3,0.7,0.4,1.5,0.4,2.3
			c0,0.9-0.1,1.6-0.4,2.3c-0.3,0.7-0.7,1.2-1.2,1.6C205.6,371.3,204.9,371.5,204.1,371.5z M204.3,370.4c0.6,0,1.1-0.1,1.5-0.4
			c0.4-0.3,0.7-0.7,0.9-1.2c0.2-0.5,0.3-1.1,0.3-1.8c0-0.7-0.1-1.3-0.3-1.8c-0.2-0.5-0.5-0.9-0.9-1.2c-0.4-0.3-0.9-0.4-1.5-0.4
			c-0.6,0-1.1,0.2-1.5,0.5c-0.4,0.3-0.7,0.7-0.9,1.2c-0.2,0.5-0.3,1.1-0.3,1.8c0,0.7,0.1,1.2,0.3,1.8c0.2,0.5,0.5,0.9,0.9,1.2
			S203.7,370.4,204.3,370.4z M207,371.2v-6.5h-0.1v-5h1.2v11.5H207z"/>
		<path d="M210.4,360.9v-1.3h1.2v1.3H210.4z M210.4,371.2v-8.6h1.2v8.6H210.4z"/>
		<path d="M214,371.2v-8.6h1.1v2.1l-0.2-0.3c0.1-0.3,0.2-0.5,0.4-0.7c0.2-0.2,0.3-0.4,0.5-0.5c0.2-0.2,0.5-0.3,0.8-0.5
			s0.6-0.2,0.9-0.2c0.3,0,0.6,0,0.8,0.1v1.1c-0.3-0.1-0.7-0.1-1-0.1c-0.4,0-0.7,0.2-1,0.4c-0.3,0.2-0.5,0.5-0.6,0.8
			c-0.1,0.3-0.2,0.6-0.3,1c0,0.3-0.1,0.7-0.1,1v4.3H214z"/>
		<path d="M223.5,371.5c-0.8,0-1.6-0.2-2.2-0.6c-0.6-0.4-1.1-0.9-1.4-1.6s-0.5-1.5-0.5-2.4c0-0.9,0.2-1.8,0.5-2.4
			c0.3-0.7,0.8-1.2,1.4-1.6c0.6-0.4,1.3-0.6,2.2-0.6c0.9,0,1.6,0.2,2.2,0.6c0.6,0.4,1.1,1,1.4,1.7c0.3,0.7,0.5,1.6,0.4,2.6h-1.2
			v-0.4c0-1.1-0.3-2-0.7-2.5s-1.1-0.9-2-0.9c-0.9,0-1.6,0.3-2.1,0.9s-0.7,1.5-0.7,2.6c0,1.1,0.2,1.9,0.7,2.5s1.2,0.9,2.1,0.9
			c0.6,0,1.2-0.1,1.6-0.4s0.8-0.7,1.1-1.2l1.1,0.4c-0.3,0.8-0.8,1.3-1.5,1.7C225,371.3,224.3,371.5,223.5,371.5z M220.1,367.2v-1
			h6.6v1H220.1z"/>
		<path d="M232.7,371.5c-0.9,0-1.6-0.2-2.2-0.6c-0.6-0.4-1.1-0.9-1.4-1.6c-0.3-0.7-0.5-1.5-0.5-2.4c0-0.9,0.2-1.7,0.5-2.4
			c0.3-0.7,0.8-1.2,1.4-1.6s1.3-0.6,2.2-0.6c0.9,0,1.6,0.2,2.3,0.6c0.6,0.4,1.1,1,1.3,1.8l-1.2,0.4c-0.2-0.5-0.5-0.9-1-1.2
			c-0.4-0.3-0.9-0.4-1.5-0.4c-0.6,0-1.2,0.1-1.6,0.4c-0.4,0.3-0.7,0.7-0.9,1.2c-0.2,0.5-0.3,1.1-0.3,1.8c0,1,0.3,1.9,0.7,2.5
			c0.5,0.6,1.2,0.9,2.1,0.9c0.6,0,1.1-0.1,1.5-0.4c0.4-0.3,0.7-0.7,0.9-1.2l1.2,0.4c-0.3,0.8-0.8,1.4-1.4,1.8
			C234.3,371.3,233.6,371.5,232.7,371.5z"/>
		<path d="M237.1,363.6v-1h5.7v1H237.1z M242.7,371.2c-0.5,0.1-1,0.1-1.4,0.1c-0.5,0-0.9-0.1-1.3-0.3c-0.4-0.2-0.7-0.5-0.8-0.8
			c-0.2-0.3-0.2-0.6-0.3-1c0-0.3,0-0.7,0-1.1v-7.9h1.2v7.9c0,0.4,0,0.7,0,0.9s0.1,0.5,0.2,0.6c0.2,0.4,0.5,0.6,0.9,0.6
			s0.9,0.1,1.6,0V371.2z"/>
		<path d="M248,371.5c-0.9,0-1.6-0.2-2.2-0.6c-0.6-0.4-1.1-0.9-1.4-1.6c-0.3-0.7-0.5-1.5-0.5-2.4c0-0.9,0.2-1.7,0.5-2.4
			s0.8-1.2,1.4-1.6s1.3-0.6,2.2-0.6c0.9,0,1.6,0.2,2.2,0.6s1.1,0.9,1.4,1.6c0.3,0.7,0.5,1.5,0.5,2.4c0,0.9-0.2,1.7-0.5,2.4
			c-0.3,0.7-0.8,1.2-1.4,1.6C249.6,371.3,248.9,371.5,248,371.5z M248,370.3c1,0,1.7-0.3,2.1-1c0.5-0.6,0.7-1.5,0.7-2.5
			c0-1-0.2-1.9-0.7-2.5c-0.5-0.6-1.2-0.9-2.1-0.9c-0.6,0-1.2,0.1-1.6,0.4c-0.4,0.3-0.7,0.7-0.9,1.2s-0.3,1.1-0.3,1.8
			c0,1,0.2,1.9,0.7,2.5C246.4,370,247.1,370.3,248,370.3z"/>
		<path d="M253.9,371.2v-8.6h1.1v2.1l-0.2-0.3c0.1-0.3,0.2-0.5,0.4-0.7c0.2-0.2,0.3-0.4,0.5-0.5c0.2-0.2,0.5-0.3,0.8-0.5
			s0.6-0.2,0.9-0.2c0.3,0,0.6,0,0.8,0.1v1.1c-0.3-0.1-0.7-0.1-1-0.1c-0.4,0-0.7,0.2-1,0.4c-0.3,0.2-0.5,0.5-0.6,0.8
			c-0.1,0.3-0.2,0.6-0.3,1c0,0.3-0.1,0.7-0.1,1v4.3H253.9z"/>
		<path d="M260.9,375.1l1.7-4.5l0,1.3l-3.8-9.3h1.2l3.1,7.8h-0.5l2.9-7.8h1.2l-4.6,12.5H260.9z"/>
	</g>
	<rect x="114.9" y="447.2" class="st2" width="187" height="42.7"/>
	<g>
		<path d="M172.5,474.6l4-11.5h1.6l4,11.5h-1.2l-3.8-10.9h0.5l-3.7,10.9H172.5z M174.2,471.8v-1.1h6v1.1H174.2z"/>
		<path d="M187,474.8c-0.9,0-1.6-0.2-2.2-0.6c-0.6-0.4-1.1-0.9-1.4-1.6c-0.3-0.7-0.5-1.5-0.5-2.4c0-0.9,0.2-1.7,0.5-2.4
			c0.3-0.7,0.8-1.2,1.4-1.6s1.3-0.6,2.2-0.6c0.9,0,1.6,0.2,2.3,0.6c0.6,0.4,1.1,1,1.3,1.8l-1.2,0.4c-0.2-0.5-0.5-0.9-1-1.2
			c-0.4-0.3-0.9-0.4-1.5-0.4c-0.6,0-1.2,0.1-1.6,0.4s-0.7,0.7-0.9,1.2c-0.2,0.5-0.3,1.1-0.3,1.8c0,1,0.2,1.9,0.7,2.5
			c0.5,0.6,1.2,0.9,2.1,0.9c0.6,0,1.1-0.1,1.5-0.4c0.4-0.3,0.7-0.7,0.9-1.2l1.2,0.4c-0.3,0.8-0.8,1.4-1.4,1.8
			C188.6,474.6,187.9,474.8,187,474.8z"/>
		<path d="M191.3,466.9v-1h5.7v1H191.3z M197,474.6c-0.5,0.1-1,0.1-1.4,0.1c-0.5,0-0.9-0.1-1.3-0.3c-0.4-0.2-0.7-0.5-0.8-0.8
			c-0.2-0.3-0.2-0.6-0.3-1c0-0.3,0-0.7,0-1.1v-7.9h1.2v7.9c0,0.4,0,0.7,0,0.9s0.1,0.5,0.2,0.6c0.2,0.4,0.5,0.6,0.9,0.6
			s0.9,0.1,1.6,0V474.6z"/>
		<path d="M198.8,464.3V463h1.2v1.3H198.8z M198.8,474.6v-8.6h1.2v8.6H198.8z"/>
		<path d="M204.8,474.6l-3.1-8.6h1.2l2.6,7.1l2.5-7.1h1.2l-3.1,8.6H204.8z"/>
		<path d="M214.2,474.8c-0.8,0-1.6-0.2-2.2-0.6c-0.6-0.4-1.1-0.9-1.4-1.6c-0.3-0.7-0.5-1.5-0.5-2.4c0-0.9,0.2-1.8,0.5-2.4
			s0.8-1.2,1.4-1.6c0.6-0.4,1.3-0.6,2.2-0.6c0.9,0,1.6,0.2,2.2,0.6c0.6,0.4,1.1,1,1.4,1.7c0.3,0.7,0.5,1.6,0.4,2.6h-1.2v-0.4
			c0-1.1-0.3-2-0.7-2.5c-0.5-0.6-1.1-0.9-2-0.9c-0.9,0-1.6,0.3-2.1,0.9s-0.7,1.5-0.7,2.6c0,1.1,0.2,1.9,0.7,2.5s1.2,0.9,2.1,0.9
			c0.6,0,1.2-0.1,1.6-0.4s0.8-0.7,1.1-1.2l1.1,0.4c-0.3,0.8-0.8,1.3-1.5,1.7C215.8,474.6,215,474.8,214.2,474.8z M210.9,470.6v-1
			h6.6v1H210.9z"/>
		<path d="M223.3,474.6v-11.8h1.2v11.8H223.3z"/>
		<path d="M230.4,474.8c-0.9,0-1.6-0.2-2.2-0.6c-0.6-0.4-1.1-0.9-1.4-1.6s-0.5-1.5-0.5-2.4c0-0.9,0.2-1.7,0.5-2.4s0.8-1.2,1.4-1.6
			c0.6-0.4,1.3-0.6,2.2-0.6c0.9,0,1.6,0.2,2.2,0.6c0.6,0.4,1.1,0.9,1.4,1.6c0.3,0.7,0.5,1.5,0.5,2.4c0,0.9-0.2,1.7-0.5,2.4
			s-0.8,1.2-1.4,1.6C232,474.6,231.3,474.8,230.4,474.8z M230.4,473.7c1,0,1.7-0.3,2.1-1c0.5-0.6,0.7-1.5,0.7-2.5
			c0-1-0.2-1.9-0.7-2.5c-0.5-0.6-1.2-0.9-2.1-0.9c-0.6,0-1.2,0.1-1.6,0.4s-0.7,0.7-0.9,1.2c-0.2,0.5-0.3,1.1-0.3,1.8
			c0,1,0.2,1.9,0.7,2.5C228.8,473.4,229.5,473.7,230.4,473.7z"/>
		<path d="M239.6,474.8c-0.8,0-1.5-0.2-2.1-0.6c-0.6-0.4-1-0.9-1.3-1.6s-0.5-1.5-0.5-2.3c0-0.9,0.2-1.6,0.5-2.3
			c0.3-0.7,0.7-1.2,1.3-1.6c0.6-0.4,1.2-0.6,2-0.6c0.8,0,1.5,0.2,2,0.6c0.6,0.4,1,0.9,1.3,1.6c0.3,0.7,0.4,1.5,0.4,2.3
			c0,0.9-0.1,1.6-0.4,2.3c-0.3,0.7-0.7,1.2-1.2,1.6C241.1,474.6,240.4,474.8,239.6,474.8z M239.7,478.6c-0.4,0-0.9-0.1-1.3-0.2
			c-0.4-0.1-0.8-0.3-1.2-0.6c-0.4-0.3-0.7-0.6-0.9-1.1l1.1-0.6c0.2,0.5,0.6,0.8,1,1c0.4,0.2,0.9,0.3,1.3,0.3c0.6,0,1.1-0.1,1.5-0.3
			s0.7-0.6,0.8-1c0.2-0.5,0.3-1,0.3-1.7v-2.3h0.1v-6.2h1v8.5c0,0.2,0,0.5,0,0.7c0,0.2,0,0.4-0.1,0.7c-0.1,0.6-0.3,1.2-0.6,1.6
			s-0.7,0.7-1.2,0.9S240.4,478.6,239.7,478.6z M239.8,473.7c0.6,0,1.1-0.1,1.5-0.4c0.4-0.3,0.7-0.7,0.9-1.2s0.3-1.1,0.3-1.8
			c0-0.7-0.1-1.3-0.3-1.8s-0.5-0.9-0.9-1.2c-0.4-0.3-0.9-0.4-1.5-0.4c-0.6,0-1.1,0.2-1.5,0.5c-0.4,0.3-0.7,0.7-0.9,1.2
			c-0.2,0.5-0.3,1.1-0.3,1.8c0,0.7,0.1,1.2,0.3,1.8c0.2,0.5,0.5,0.9,0.9,1.2C238.7,473.6,239.2,473.7,239.8,473.7z"/>
	</g>
	<rect x="114.4" y="147.3" class="st2" width="188.1" height="115.1"/>
	<rect x="135.4" y="194.5" class="st1" width="146" height="42.7"/>
	<g>
		<path d="M173.2,178.9v-11.5h1.2v11.5H173.2z"/>
		<path d="M176.7,178.9v-8.6h1.1v2.1h0.1v6.5H176.7z M183,178.9v-4.4c0-0.5,0-0.9-0.1-1.3s-0.2-0.8-0.4-1.1s-0.5-0.5-0.8-0.7
			c-0.3-0.2-0.7-0.2-1.2-0.2c-0.4,0-0.8,0.1-1.1,0.2s-0.6,0.4-0.8,0.6c-0.2,0.3-0.4,0.6-0.5,1c-0.1,0.4-0.2,0.8-0.2,1.3l-0.8-0.2
			c0-0.9,0.2-1.6,0.5-2.2s0.7-1.1,1.3-1.4c0.5-0.3,1.2-0.5,1.9-0.5c0.5,0,1,0.1,1.4,0.2c0.4,0.2,0.7,0.4,1,0.6
			c0.3,0.3,0.5,0.6,0.7,0.9c0.2,0.3,0.3,0.7,0.4,1.1c0.1,0.4,0.1,0.8,0.1,1.2v4.8H183z"/>
		<path d="M189.5,179.2c-1,0-1.8-0.2-2.5-0.7c-0.7-0.4-1.1-1-1.2-1.8l1.2-0.2c0.1,0.5,0.4,0.9,0.9,1.2s1,0.4,1.7,0.4
			c0.7,0,1.2-0.1,1.6-0.4s0.6-0.6,0.6-1.1c0-0.3-0.1-0.5-0.2-0.7s-0.4-0.3-0.7-0.5s-0.9-0.3-1.6-0.5c-0.8-0.2-1.4-0.4-1.8-0.6
			s-0.8-0.5-0.9-0.7c-0.2-0.3-0.3-0.6-0.3-1c0-0.5,0.1-0.9,0.4-1.3s0.7-0.7,1.2-0.9c0.5-0.2,1.1-0.3,1.7-0.3c0.7,0,1.2,0.1,1.7,0.3
			c0.5,0.2,0.9,0.5,1.2,0.9c0.3,0.4,0.5,0.8,0.6,1.3l-1.2,0.2c-0.1-0.5-0.3-0.9-0.8-1.2c-0.4-0.3-1-0.4-1.6-0.5
			c-0.6,0-1.1,0.1-1.5,0.3s-0.6,0.6-0.6,1c0,0.2,0.1,0.4,0.2,0.6s0.4,0.3,0.8,0.5s0.9,0.3,1.6,0.5c0.8,0.2,1.4,0.4,1.9,0.6
			s0.8,0.5,1,0.8c0.2,0.3,0.3,0.7,0.3,1.1c0,0.8-0.3,1.5-0.9,1.9C191.4,178.9,190.5,179.2,189.5,179.2z"/>
		<path d="M193.7,171.3v-1h5.7v1H193.7z M199.3,178.9c-0.5,0.1-1,0.1-1.4,0.1c-0.5,0-0.9-0.1-1.3-0.3c-0.4-0.2-0.7-0.5-0.8-0.8
			c-0.2-0.3-0.2-0.6-0.3-1c0-0.3,0-0.7,0-1.1v-7.9h1.2v7.9c0,0.4,0,0.7,0,0.9c0,0.2,0.1,0.5,0.2,0.6c0.2,0.4,0.5,0.6,0.9,0.6
			c0.4,0.1,0.9,0.1,1.6,0V178.9z"/>
		<path d="M203.5,179.2c-0.7,0-1.2-0.1-1.6-0.4c-0.4-0.2-0.8-0.5-1-0.9s-0.3-0.8-0.3-1.3c0-0.5,0.1-0.9,0.3-1.2s0.4-0.6,0.8-0.8
			c0.3-0.2,0.7-0.4,1.1-0.5c0.4-0.1,0.9-0.2,1.5-0.3c0.5-0.1,1.1-0.2,1.6-0.2c0.5-0.1,1-0.1,1.3-0.2l-0.4,0.3c0-0.9-0.1-1.5-0.5-1.9
			s-0.9-0.6-1.8-0.6c-0.6,0-1.1,0.1-1.5,0.4c-0.4,0.3-0.7,0.7-0.9,1.3l-1.1-0.3c0.2-0.8,0.6-1.4,1.2-1.8c0.6-0.4,1.4-0.6,2.3-0.6
			c0.8,0,1.5,0.1,2,0.4s0.9,0.7,1.2,1.3c0.1,0.3,0.2,0.5,0.2,0.8c0,0.3,0,0.6,0,0.9v5.4h-1v-2.2l0.3,0.1c-0.3,0.7-0.7,1.3-1.4,1.7
			C205.1,179,204.4,179.2,203.5,179.2z M203.7,178.2c0.5,0,1-0.1,1.4-0.3s0.7-0.5,1-0.8c0.2-0.3,0.4-0.7,0.5-1.2
			c0.1-0.3,0.1-0.6,0.1-0.9c0-0.3,0-0.6,0-0.7l0.4,0.2c-0.4,0.1-0.8,0.1-1.3,0.2s-0.9,0.1-1.4,0.2c-0.5,0.1-0.9,0.2-1.2,0.2
			c-0.2,0.1-0.5,0.2-0.7,0.3c-0.2,0.1-0.4,0.3-0.6,0.5s-0.2,0.5-0.2,0.8c0,0.3,0.1,0.5,0.2,0.7c0.1,0.2,0.3,0.4,0.6,0.6
			C202.8,178.1,203.2,178.2,203.7,178.2z"/>
		<path d="M209.9,178.9v-8.6h1.1v2.1h0.1v6.5H209.9z M216.2,178.9v-4.4c0-0.5,0-0.9-0.1-1.3s-0.2-0.8-0.4-1.1s-0.5-0.5-0.8-0.7
			c-0.3-0.2-0.7-0.2-1.2-0.2c-0.4,0-0.8,0.1-1.1,0.2s-0.6,0.4-0.8,0.6c-0.2,0.3-0.4,0.6-0.5,1c-0.1,0.4-0.2,0.8-0.2,1.3l-0.8-0.2
			c0-0.9,0.2-1.6,0.5-2.2s0.7-1.1,1.3-1.4c0.5-0.3,1.2-0.5,1.9-0.5c0.5,0,1,0.1,1.4,0.2c0.4,0.2,0.7,0.4,1,0.6
			c0.3,0.3,0.5,0.6,0.7,0.9c0.2,0.3,0.3,0.7,0.4,1.1c0.1,0.4,0.1,0.8,0.1,1.2v4.8H216.2z"/>
		<path d="M223,179.2c-0.9,0-1.6-0.2-2.2-0.6c-0.6-0.4-1.1-0.9-1.4-1.6c-0.3-0.7-0.5-1.5-0.5-2.4c0-0.9,0.2-1.7,0.5-2.4
			c0.3-0.7,0.8-1.2,1.4-1.6c0.6-0.4,1.3-0.6,2.2-0.6c0.9,0,1.6,0.2,2.3,0.6c0.6,0.4,1.1,1,1.3,1.8l-1.2,0.4c-0.2-0.5-0.5-0.9-1-1.2
			c-0.4-0.3-0.9-0.4-1.5-0.4c-0.6,0-1.2,0.1-1.6,0.4s-0.7,0.7-0.9,1.2c-0.2,0.5-0.3,1.1-0.3,1.8c0,1,0.3,1.9,0.7,2.5
			c0.5,0.6,1.2,0.9,2.1,0.9c0.6,0,1.1-0.1,1.5-0.4c0.4-0.3,0.7-0.7,0.9-1.2l1.2,0.4c-0.3,0.8-0.8,1.4-1.4,1.8
			C224.6,179,223.9,179.2,223,179.2z"/>
		<path d="M232,179.2c-0.8,0-1.6-0.2-2.2-0.6c-0.6-0.4-1.1-0.9-1.4-1.6c-0.3-0.7-0.5-1.5-0.5-2.4c0-0.9,0.2-1.8,0.5-2.4
			c0.3-0.7,0.8-1.2,1.4-1.6c0.6-0.4,1.3-0.6,2.2-0.6c0.9,0,1.6,0.2,2.2,0.6s1.1,1,1.4,1.7c0.3,0.7,0.5,1.6,0.4,2.6h-1.2v-0.4
			c0-1.1-0.3-2-0.7-2.5c-0.5-0.6-1.1-0.9-2-0.9c-0.9,0-1.6,0.3-2.1,0.9s-0.7,1.5-0.7,2.6c0,1.1,0.2,1.9,0.7,2.5s1.2,0.9,2.1,0.9
			c0.6,0,1.2-0.1,1.6-0.4c0.5-0.3,0.8-0.7,1.1-1.2l1.1,0.4c-0.3,0.8-0.8,1.3-1.5,1.7C233.5,179,232.8,179.2,232,179.2z M228.6,174.9
			v-1h6.6v1H228.6z"/>
		<path d="M240.9,179.2c-1,0-1.8-0.2-2.5-0.7c-0.7-0.4-1.1-1-1.2-1.8l1.2-0.2c0.1,0.5,0.4,0.9,0.9,1.2s1,0.4,1.7,0.4
			c0.7,0,1.2-0.1,1.6-0.4s0.6-0.6,0.6-1.1c0-0.3-0.1-0.5-0.2-0.7s-0.4-0.3-0.7-0.5s-0.9-0.3-1.6-0.5c-0.8-0.2-1.4-0.4-1.8-0.6
			s-0.8-0.5-0.9-0.7c-0.2-0.3-0.3-0.6-0.3-1c0-0.5,0.1-0.9,0.4-1.3s0.7-0.7,1.2-0.9c0.5-0.2,1.1-0.3,1.7-0.3c0.7,0,1.2,0.1,1.7,0.3
			c0.5,0.2,0.9,0.5,1.2,0.9c0.3,0.4,0.5,0.8,0.6,1.3l-1.2,0.2c-0.1-0.5-0.3-0.9-0.8-1.2c-0.4-0.3-1-0.4-1.6-0.5
			c-0.6,0-1.1,0.1-1.5,0.3s-0.6,0.6-0.6,1c0,0.2,0.1,0.4,0.2,0.6s0.4,0.3,0.8,0.5s0.9,0.3,1.6,0.5c0.8,0.2,1.4,0.4,1.9,0.6
			s0.8,0.5,1,0.8c0.2,0.3,0.3,0.7,0.3,1.1c0,0.8-0.3,1.5-0.9,1.9C242.8,178.9,241.9,179.2,240.9,179.2z"/>
	</g>
	<g>
		<path class="st8" d="M162.9,221l-3.3-11.5h1.2l2.7,9.5l2.7-9.5l1.2,0l2.7,9.5l2.7-9.5h1.2l-3.3,11.5h-1.2l-2.7-9.4l-2.7,9.4H162.9
			z"/>
		<path class="st8" d="M177.9,221.2c-0.7,0-1.2-0.1-1.6-0.4c-0.4-0.2-0.8-0.5-1-0.9s-0.3-0.8-0.3-1.3c0-0.5,0.1-0.9,0.3-1.2
			s0.4-0.6,0.8-0.8c0.3-0.2,0.7-0.4,1.1-0.5c0.4-0.1,0.9-0.2,1.5-0.3c0.5-0.1,1.1-0.2,1.6-0.2c0.5-0.1,1-0.1,1.3-0.2l-0.4,0.3
			c0-0.9-0.1-1.5-0.5-1.9s-0.9-0.6-1.8-0.6c-0.6,0-1.1,0.1-1.5,0.4c-0.4,0.3-0.7,0.7-0.9,1.3l-1.1-0.3c0.2-0.8,0.6-1.4,1.2-1.8
			c0.6-0.4,1.4-0.6,2.3-0.6c0.8,0,1.5,0.1,2,0.4s0.9,0.7,1.2,1.3c0.1,0.3,0.2,0.5,0.2,0.8c0,0.3,0,0.6,0,0.9v5.4h-1v-2.2l0.3,0.1
			c-0.3,0.7-0.7,1.3-1.4,1.7C179.5,221,178.7,221.2,177.9,221.2z M178,220.2c0.5,0,1-0.1,1.4-0.3s0.7-0.5,1-0.8
			c0.2-0.3,0.4-0.7,0.5-1.2c0.1-0.3,0.1-0.6,0.1-0.9c0-0.3,0-0.6,0-0.7l0.4,0.2c-0.4,0.1-0.8,0.1-1.3,0.2s-0.9,0.1-1.4,0.2
			c-0.5,0.1-0.9,0.2-1.2,0.2c-0.2,0.1-0.5,0.2-0.7,0.3c-0.2,0.1-0.4,0.3-0.6,0.5s-0.2,0.5-0.2,0.8c0,0.3,0.1,0.5,0.2,0.7
			c0.1,0.2,0.3,0.4,0.6,0.6C177.2,220.1,177.6,220.2,178,220.2z"/>
		<path class="st8" d="M183.5,221v-0.2l5.6-7.3h-5.2v-1.1h7.1v0.3l-5.6,7.3h5.3v1.1H183.5z"/>
		<path class="st8" d="M196.1,221.2c-0.5,0-1-0.1-1.4-0.2s-0.7-0.4-1-0.6s-0.5-0.6-0.7-0.9c-0.2-0.3-0.3-0.7-0.4-1.1
			c-0.1-0.4-0.1-0.8-0.1-1.2v-4.8h1.2v4.4c0,0.5,0,0.9,0.1,1.3s0.2,0.8,0.4,1.1s0.5,0.5,0.8,0.7c0.3,0.2,0.7,0.2,1.2,0.2
			c0.4,0,0.8-0.1,1.1-0.2s0.6-0.4,0.8-0.6c0.2-0.3,0.4-0.6,0.5-1s0.2-0.8,0.2-1.3l0.8,0.2c0,0.9-0.2,1.6-0.5,2.2
			c-0.3,0.6-0.7,1.1-1.3,1.4S196.8,221.2,196.1,221.2z M199,221v-2.1h-0.1v-6.5h1.2v8.6H199z"/>
		<path class="st8" d="M202.3,221v-11.5h1.1v6.5h0.1v5H202.3z M208.5,221v-4.4c0-0.5,0-0.9-0.1-1.3s-0.2-0.8-0.4-1.1
			s-0.5-0.5-0.8-0.7c-0.3-0.2-0.7-0.2-1.2-0.2c-0.4,0-0.8,0.1-1.1,0.2s-0.6,0.4-0.8,0.6c-0.2,0.3-0.4,0.6-0.5,1
			c-0.1,0.4-0.2,0.8-0.2,1.3l-0.8-0.2c0-0.9,0.2-1.6,0.5-2.2s0.7-1.1,1.3-1.4c0.5-0.3,1.2-0.5,1.9-0.5c0.5,0,1,0.1,1.4,0.2
			c0.4,0.2,0.7,0.4,1,0.6c0.3,0.3,0.5,0.6,0.7,0.9c0.2,0.3,0.3,0.7,0.4,1.1c0.1,0.4,0.1,0.8,0.1,1.2v4.8H208.5z"/>
		<path class="st8" d="M217.5,221.2c-0.7,0-1.2-0.1-1.6-0.4c-0.4-0.2-0.8-0.5-1-0.9s-0.3-0.8-0.3-1.3c0-0.5,0.1-0.9,0.3-1.2
			s0.4-0.6,0.8-0.8c0.3-0.2,0.7-0.4,1.1-0.5c0.4-0.1,0.9-0.2,1.5-0.3c0.5-0.1,1.1-0.2,1.6-0.2c0.5-0.1,1-0.1,1.3-0.2l-0.4,0.3
			c0-0.9-0.1-1.5-0.5-1.9s-0.9-0.6-1.8-0.6c-0.6,0-1.1,0.1-1.5,0.4c-0.4,0.3-0.7,0.7-0.9,1.3l-1.1-0.3c0.2-0.8,0.6-1.4,1.2-1.8
			c0.6-0.4,1.4-0.6,2.3-0.6c0.8,0,1.5,0.1,2,0.4s0.9,0.7,1.2,1.3c0.1,0.3,0.2,0.5,0.2,0.8c0,0.3,0,0.6,0,0.9v5.4h-1v-2.2l0.3,0.1
			c-0.3,0.7-0.7,1.3-1.4,1.7C219.1,221,218.3,221.2,217.5,221.2z M217.6,220.2c0.5,0,1-0.1,1.4-0.3s0.7-0.5,1-0.8
			c0.2-0.3,0.4-0.7,0.5-1.2c0.1-0.3,0.1-0.6,0.1-0.9c0-0.3,0-0.6,0-0.7l0.4,0.2c-0.4,0.1-0.8,0.1-1.3,0.2s-0.9,0.1-1.4,0.2
			c-0.5,0.1-0.9,0.2-1.2,0.2c-0.2,0.1-0.5,0.2-0.7,0.3c-0.2,0.1-0.4,0.3-0.6,0.5s-0.2,0.5-0.2,0.8c0,0.3,0.1,0.5,0.2,0.7
			c0.1,0.2,0.3,0.4,0.6,0.6C216.8,220.1,217.1,220.2,217.6,220.2z"/>
		<path class="st8" d="M227.2,221.2c-0.8,0-1.5-0.2-2.1-0.6c-0.6-0.4-1-0.9-1.3-1.6c-0.3-0.7-0.5-1.5-0.5-2.3c0-0.9,0.2-1.6,0.5-2.3
			c0.3-0.7,0.7-1.2,1.3-1.6c0.6-0.4,1.2-0.6,2-0.6c0.8,0,1.5,0.2,2,0.6c0.6,0.4,1,0.9,1.3,1.6c0.3,0.7,0.4,1.5,0.4,2.3
			c0,0.9-0.1,1.6-0.4,2.3c-0.3,0.7-0.7,1.2-1.2,1.6C228.7,221,228,221.2,227.2,221.2z M227.3,225c-0.4,0-0.9-0.1-1.3-0.2
			c-0.4-0.1-0.8-0.3-1.2-0.6c-0.4-0.3-0.7-0.6-0.9-1.1l1.1-0.6c0.2,0.5,0.6,0.8,1,1c0.4,0.2,0.9,0.3,1.3,0.3c0.6,0,1.1-0.1,1.5-0.3
			s0.7-0.6,0.8-1c0.2-0.5,0.3-1,0.3-1.7v-2.3h0.1v-6.2h1v8.5c0,0.2,0,0.5,0,0.7s0,0.4-0.1,0.7c-0.1,0.6-0.3,1.2-0.6,1.6
			s-0.7,0.7-1.2,0.9S228,225,227.3,225z M227.3,220.1c0.6,0,1.1-0.1,1.5-0.4c0.4-0.3,0.7-0.7,0.9-1.2s0.3-1.1,0.3-1.8
			c0-0.7-0.1-1.3-0.3-1.8s-0.5-0.9-0.9-1.2c-0.4-0.3-0.9-0.4-1.5-0.4c-0.6,0-1.1,0.2-1.5,0.5c-0.4,0.3-0.7,0.7-0.9,1.2
			c-0.2,0.5-0.3,1.1-0.3,1.8c0,0.7,0.1,1.2,0.3,1.8c0.2,0.5,0.5,0.9,0.9,1.2C226.2,220,226.7,220.1,227.3,220.1z"/>
		<path class="st8" d="M237,221.2c-0.8,0-1.6-0.2-2.2-0.6c-0.6-0.4-1.1-0.9-1.4-1.6c-0.3-0.7-0.5-1.5-0.5-2.4c0-0.9,0.2-1.8,0.5-2.4
			c0.3-0.7,0.8-1.2,1.4-1.6c0.6-0.4,1.3-0.6,2.2-0.6c0.9,0,1.6,0.2,2.2,0.6s1.1,1,1.4,1.7c0.3,0.7,0.5,1.6,0.4,2.6h-1.2v-0.4
			c0-1.1-0.3-2-0.7-2.5c-0.5-0.6-1.1-0.9-2-0.9c-0.9,0-1.6,0.3-2.1,0.9s-0.7,1.5-0.7,2.6c0,1.1,0.2,1.9,0.7,2.5s1.2,0.9,2.1,0.9
			c0.6,0,1.2-0.1,1.6-0.4c0.5-0.3,0.8-0.7,1.1-1.2l1.1,0.4c-0.3,0.8-0.8,1.3-1.5,1.7C238.6,221,237.8,221.2,237,221.2z M233.7,217
			v-1h6.6v1H233.7z"/>
		<path class="st8" d="M242.7,221v-8.6h1.1v2.1h0.1v6.5H242.7z M248.9,221v-4.4c0-0.5,0-0.9-0.1-1.3s-0.2-0.8-0.4-1.1
			s-0.5-0.5-0.8-0.7c-0.3-0.2-0.7-0.2-1.2-0.2c-0.4,0-0.8,0.1-1.1,0.2s-0.6,0.4-0.8,0.6c-0.2,0.3-0.4,0.6-0.5,1
			c-0.1,0.4-0.2,0.8-0.2,1.3l-0.8-0.2c0-0.9,0.2-1.6,0.5-2.2s0.7-1.1,1.3-1.4c0.5-0.3,1.2-0.5,1.9-0.5c0.5,0,1,0.1,1.4,0.2
			c0.4,0.2,0.7,0.4,1,0.6c0.3,0.3,0.5,0.6,0.7,0.9c0.2,0.3,0.3,0.7,0.4,1.1c0.1,0.4,0.1,0.8,0.1,1.2v4.8H248.9z"/>
		<path class="st8" d="M251.2,213.3v-1h5.7v1H251.2z M256.9,221c-0.5,0.1-1,0.1-1.4,0.1c-0.5,0-0.9-0.1-1.3-0.3
			c-0.4-0.2-0.7-0.5-0.8-0.8c-0.2-0.3-0.2-0.6-0.3-1c0-0.3,0-0.7,0-1.1v-7.9h1.2v7.9c0,0.4,0,0.7,0,0.9c0,0.2,0.1,0.5,0.2,0.6
			c0.2,0.4,0.5,0.6,0.9,0.6c0.4,0.1,0.9,0.1,1.6,0V221z"/>
	</g>
</g>
</svg>
