<?xml version="1.0" encoding="UTF-8" standalone="no"?>
<svg
   xmlns:dc="http://purl.org/dc/elements/1.1/"
   xmlns:cc="http://creativecommons.org/ns#"
   xmlns:rdf="http://www.w3.org/1999/02/22-rdf-syntax-ns#"
   xmlns:svg="http://www.w3.org/2000/svg"
   xmlns="http://www.w3.org/2000/svg"
   xmlns:sodipodi="http://sodipodi.sourceforge.net/DTD/sodipodi-0.dtd"
   xmlns:inkscape="http://www.inkscape.org/namespaces/inkscape"
   viewBox="0 0 979 798"
   version="1.1"
   id="svg4181"
   sodipodi:docname="sca_sequence_diagram.svg"
   inkscape:version="0.92.4 (5da689c313, 2019-01-14)">
  <metadata
     id="metadata4185">
    <rdf:RDF>
      <cc:Work
         rdf:about="">
        <dc:format>image/svg+xml</dc:format>
        <dc:type
           rdf:resource="http://purl.org/dc/dcmitype/StillImage" />
        <dc:title>SCA_e</dc:title>
      </cc:Work>
    </rdf:RDF>
  </metadata>
  <sodipodi:namedview
     pagecolor="#ffffff"
     bordercolor="#666666"
     borderopacity="1"
     objecttolerance="10"
     gridtolerance="10"
     guidetolerance="10"
     inkscape:pageopacity="0"
     inkscape:pageshadow="2"
     inkscape:window-width="1850"
     inkscape:window-height="1136"
     id="namedview4183"
     showgrid="false"
     inkscape:zoom="1.197995"
     inkscape:cx="340.08368"
     inkscape:cy="399"
     inkscape:window-x="1990"
     inkscape:window-y="27"
     inkscape:window-maximized="1"
     inkscape:current-layer="svg4181" />
  <defs
     id="defs3979">
    <style
       id="style3977">.a,.b,.c,.f,.n{fill:none;}.a{stroke:#666;stroke-miterlimit:10;}.a,.b,.c,.f,.i,.n{stroke-linecap:round;}.a,.c{stroke-dasharray:4;}.b,.c{stroke:#0094ce;}.b,.c,.f,.i,.n{stroke-linejoin:round;}.d{fill:#00aae7;}.e,.j{font-size:16px;}.e,.i{fill:#fff;}.e,.j,.k{font-family:OpenSans-Regular, Open Sans;}.f,.i,.n{stroke:#00a9e5;}.g,.h{fill:#00a9e5;}.h{opacity:0.5;}.k{font-size:19.43px;fill:#4d4d4d;}.l{fill:#ffb600;}.m{fill:#0094d0;}.n{stroke-dasharray:4 4;}</style>
  </defs>
  <title
     id="title3981">SCA_e</title>
  <rect
     class="a"
     x="336.5"
     y="19.5"
     width="294"
     height="86"
     rx="8.43"
     id="rect3983"
     style="stroke-width:2;stroke-miterlimit:10;stroke-dasharray:8;stroke-dashoffset:0" />
  <rect
     class="a"
     x="28"
     y="204.5"
     width="575"
     height="114"
     rx="8.43"
     id="rect3985"
     style="stroke-width:2;stroke-miterlimit:10;stroke-dasharray:8;stroke-dashoffset:0" />
  <rect
     class="a"
     x="28"
     y="415.5"
     width="575"
     height="178"
     rx="8.43"
     id="rect3987"
     style="stroke-width:2;stroke-miterlimit:20;stroke-dasharray:8;stroke-dashoffset:0.2" />
  <line
     class="b"
     x1="222.5"
     y1="96.5"
     x2="222.5"
     y2="758"
     id="line3989" />
  <line
     class="c"
     x1="222.5"
     y1="761.5"
     x2="222.5"
     y2="781.5"
     id="line3991" />
  <line
     class="c"
     x1="396.5"
     y1="761.5"
     x2="396.5"
     y2="781.5"
     id="line3993" />
  <line
     class="c"
     x1="570.5"
     y1="761.5"
     x2="570.5"
     y2="781.5"
     id="line3995" />
  <line
     class="c"
     x1="744.5"
     y1="761.5"
     x2="744.5"
     y2="781.5"
     id="line3997" />
  <line
     class="c"
     x1="918.5"
     y1="761.5"
     x2="918.5"
     y2="781.5"
     id="line3999" />
  <line
     class="b"
     x1="396.5"
     y1="96.5"
     x2="396.5"
     y2="758"
     id="line4001" />
  <rect
     class="d"
     x="172.5"
     y="73.96"
     width="100"
     height="21.73"
     rx="4.46"
     id="rect4003" />
  <text
     class="e"
     transform="translate(184.25 89.52)"
     id="text4005">SCA Agent</text>
  <rect
     class="d"
     x="346.5"
     y="73.83"
     width="100"
     height="22"
     rx="4.46"
     id="rect4007" />
  <text
     class="e"
     transform="translate(361.46 89.52)"
     id="text4009">Analysisd</text>
  <polyline
     class="f"
     points="223 144 274.5 144 274.5 179 232.5 179"
     id="polyline4011" />
  <path
     class="g"
     d="M239.27,174.2a.5.5,0,0,1-.15.69L232.67,179l6.45,4.11a.5.5,0,0,1-.54.84l-7.11-4.53a.49.49,0,0,1,0-.84l7.11-4.53a.45.45,0,0,1,.27-.08A.49.49,0,0,1,239.27,174.2Z"
     id="path4013" />
  <rect
     class="h"
     x="218"
     y="131"
     width="9"
     height="609"
     rx="2.37"
     id="rect4015" />
  <rect
     class="h"
     x="223"
     y="161"
     width="9"
     height="37"
     rx="2.37"
     id="rect4017" />
  <rect
     class="h"
     x="397"
     y="271"
     width="9"
     height="37"
     rx="2.37"
     id="rect4019" />
  <rect
     class="h"
     x="397"
     y="383"
     width="9"
     height="61"
     rx="2.37"
     id="rect4021" />
  <rect
     class="h"
     x="392"
     y="131"
     width="9"
     height="609"
     rx="2.37"
     id="rect4023" />
  <line
     class="b"
     x1="570.5"
     y1="96.5"
     x2="570.5"
     y2="758"
     id="line4025" />
  <rect
     class="d"
     x="521"
     y="73.83"
     width="99"
     height="22"
     rx="4.46"
     id="rect4027" />
  <text
     class="e"
     transform="translate(559.48 89.52)"
     id="text4029">DB</text>
  <rect
     class="h"
     x="566"
     y="131"
     width="9"
     height="609"
     rx="2.37"
     id="rect4031" />
  <line
     class="b"
     x1="744.5"
     y1="96.5"
     x2="744.5"
     y2="758"
     id="line4033" />
  <rect
     class="d"
     x="694.5"
     y="73.83"
     width="100"
     height="22"
     rx="4.46"
     id="rect4035" />
  <text
     class="e"
     transform="translate(704.89 89.52)"
     id="text4037">Wazuh API</text>
  <rect
     class="h"
     x="740"
     y="131"
     width="9"
     height="609"
     rx="2.37"
     id="rect4039" />
  <rect
     class="d"
     x="868.5"
     y="73.83"
     width="100"
     height="22"
     rx="4.46"
     id="rect4041" />
  <text
     class="e"
     transform="translate(876.14 89.52)"
     id="text4043">Wazuh App</text>
  <line
     class="b"
     x1="918.5"
     y1="96.5"
     x2="918.5"
     y2="758"
     id="line4045" />
  <rect
     class="h"
     x="914"
     y="131"
     width="9"
     height="609"
     rx="2.37"
     id="rect4047" />
  <rect
     class="i"
     x="244.5"
     y="151.5"
     width="117"
     height="20"
     rx="2.11"
     id="rect4049" />
  <text
     class="j"
     transform="translate(33.6 226.52)"
     id="text4053">There are<tspan
   x="0"
   y="22"
   id="tspan4051">changes</tspan>
</text>
  <text
     class="j"
     transform="translate(250.23 166.19)"
     id="text4055">Execute Policy</text>
  <polyline
     class="f"
     points="397 254 448.5 254 448.5 289 406.5 289"
     id="polyline4057" />
  <path
     class="g"
     d="M413.27,284.2a.5.5,0,0,1-.15.69L406.67,289l6.45,4.11a.5.5,0,0,1-.54.84l-7.11-4.53a.49.49,0,0,1,0-.84l7.11-4.53a.45.45,0,0,1,.27-.08A.49.49,0,0,1,413.27,284.2Z"
     id="path4059" />
  <rect
     class="i"
     x="427.5"
     y="261.5"
     width="87"
     height="20"
     rx="2.11"
     id="rect4061" />
  <text
     class="j"
     transform="translate(432 276.19)"
     id="text4063">Issue Alert</text>
  <polyline
     class="f"
     points="397 366 448.5 366 448.5 401 406.5 401"
     id="polyline4065" />
  <path
     class="g"
     d="M413.27,396.2a.5.5,0,0,1-.15.69L406.67,401l6.45,4.11a.5.5,0,0,1-.54.84l-7.11-4.53a.49.49,0,0,1,0-.84l7.11-4.53a.45.45,0,0,1,.27-.08A.49.49,0,0,1,413.27,396.2Z"
     id="path4067" />
  <rect
     class="i"
     x="420.5"
     y="373.5"
     width="119"
     height="20"
     rx="2.11"
     id="rect4069" />
  <text
     class="j"
     transform="translate(424.49 388.19)"
     id="text4071">Check Integrity</text>
  <rect
     class="h"
     x="397"
     y="551"
     width="9"
     height="36"
     rx="2.37"
     id="rect4073" />
  <polyline
     class="f"
     points="397 534 448.5 534 448.5 569 406.5 569"
     id="polyline4075" />
  <path
     class="g"
     d="M413.27,564.2a.5.5,0,0,1-.15.69L406.67,569l6.45,4.11a.5.5,0,1,1-.54.84l-7.11-4.53a.49.49,0,0,1,0-.84l7.11-4.53a.45.45,0,0,1,.27-.08A.49.49,0,0,1,413.27,564.2Z"
     id="path4077" />
  <rect
     class="i"
     x="426.5"
     y="541.5"
     width="89"
     height="20"
     rx="2.11"
     id="rect4079" />
  <text
     class="j"
     transform="translate(432 556.19)"
     id="text4081">Issue Alert</text>
  <line
     class="f"
     x1="223"
     y1="225.5"
     x2="394"
     y2="225.5"
     id="line4083" />
  <path
     class="g"
     d="M387.23,230.3a.5.5,0,0,1,.15-.69l6.45-4.11-6.45-4.11a.5.5,0,1,1,.54-.84l7.11,4.53a.49.49,0,0,1,0,.84l-7.11,4.53a.45.45,0,0,1-.27.08A.49.49,0,0,1,387.23,230.3Z"
     id="path4085" />
  <text
     class="k"
     transform="translate(427.91 51.19)"
     id="text4087">Wazuh Manager</text>
  <path
     class="l"
     d="M415.65,34.18H394.38a2.59,2.59,0,0,0-2.6,2.6v1.29a2.59,2.59,0,0,0,2.6,2.6H403a8.41,8.41,0,0,1,13.63-.19,2.6,2.6,0,0,0,1.62-2.41V36.78A2.59,2.59,0,0,0,415.65,34.18Zm-20.56,4.3a1.06,1.06,0,1,1,1.06-1.06A1.05,1.05,0,0,1,395.09,38.48Zm3.18,0a1.06,1.06,0,1,1,1.06-1.06A1.05,1.05,0,0,1,398.27,38.48Z"
     id="path4089" />
  <path
     class="l"
     d="M416.62,50.51a8.41,8.41,0,0,1-13.6-.17h-8.61a2.6,2.6,0,0,0-2.6,2.59v1.3a2.61,2.61,0,0,0,2.6,2.6h21.27a2.6,2.6,0,0,0,2.6-2.6v-1.3A2.59,2.59,0,0,0,416.62,50.51Zm-21.53,4.13a1.06,1.06,0,1,1,1.06-1.06A1.06,1.06,0,0,1,395.09,54.64Zm3.18,0a1.06,1.06,0,1,1,1.06-1.06A1.06,1.06,0,0,1,398.27,54.64Z"
     id="path4091" />
  <path
     class="l"
     d="M402.13,42.24h-7.72a2.61,2.61,0,0,0-2.6,2.6v1.29a2.6,2.6,0,0,0,2.6,2.6h7.72a8.43,8.43,0,0,1,0-6.49Zm-7,4.3a1.06,1.06,0,1,1,1.06-1A1,1,0,0,1,395.09,46.54Zm3.18,0a1.06,1.06,0,1,1,1.06-1A1,1,0,0,1,398.27,46.54Z"
     id="path4093" />
  <path
     class="d"
     d="M407.61,48l1.44-2.62H411L412.26,48l3.25-6.13a6.7,6.7,0,0,0-11.18-.11Z"
     id="path4095" />
  <path
     class="m"
     d="M413.08,49.79a1,1,0,0,1-.38.4.92.92,0,0,1-.49.13.89.89,0,0,1-.48-.13,1,1,0,0,1-.37-.4L409.89,47l-1.48,2.79a1,1,0,0,1-.37.4.91.91,0,0,1-.48.13.93.93,0,0,1-.87-.53l-3.27-6.06a6.8,6.8,0,0,0-.24,1.76,6.7,6.7,0,1,0,13.4,0,6.79,6.79,0,0,0-.23-1.76Z"
     id="path4097" />
  <text
     class="j"
     transform="translate(36.2 438.52)"
     id="text4103">Stored policy<tspan
   x="0"
   y="22"
   id="tspan4099">information does</tspan>
<tspan
   x="0"
   y="44"
   id="tspan4101">not match</tspan>
</text>
  <rect
     class="d"
     x="247"
     y="215.5"
     width="117"
     height="20"
     rx="2.11"
     id="rect4105" />
  <text
     class="e"
     transform="translate(252.73 230.19)"
     id="text4107">Send Changes</text>
  <line
     class="f"
     x1="223"
     y1="351.5"
     x2="394"
     y2="351.5"
     id="line4109" />
  <path
     class="g"
     d="M387.23,356.3a.5.5,0,0,1,.15-.69l6.45-4.11-6.45-4.11a.5.5,0,1,1,.54-.84l7.11,4.53a.49.49,0,0,1,0,.84l-7.11,4.53a.45.45,0,0,1-.27.08A.49.49,0,0,1,387.23,356.3Z"
     id="path4111" />
  <rect
     class="d"
     x="250"
     y="341.5"
     width="111"
     height="20"
     rx="2.11"
     id="rect4113" />
  <text
     class="e"
     transform="translate(254.88 356.19)"
     id="text4115">Scan Integrity</text>
  <line
     class="f"
     x1="223"
     y1="484.5"
     x2="394"
     y2="484.5"
     id="line4117" />
  <path
     class="g"
     d="M387.23,489.3a.5.5,0,0,1,.15-.69l6.45-4.11-6.45-4.11a.5.5,0,0,1,.54-.84l7.11,4.53a.49.49,0,0,1,0,.84l-7.11,4.53a.45.45,0,0,1-.27.08A.49.49,0,0,1,387.23,489.3Z"
     id="path4119" />
  <rect
     class="d"
     x="248"
     y="474"
     width="115"
     height="20"
     rx="2.11"
     id="rect4121" />
  <text
     class="e"
     transform="translate(258.46 488.69)"
     id="text4123">Send Checks</text>
  <line
     class="f"
     x1="397"
     y1="512.5"
     x2="568"
     y2="512.5"
     id="line4125" />
  <path
     class="g"
     d="M561.23,517.3a.5.5,0,0,1,.15-.69l6.45-4.11-6.45-4.11a.5.5,0,0,1,.54-.84l7.11,4.53a.49.49,0,0,1,0,.84l-7.11,4.53a.45.45,0,0,1-.27.08A.49.49,0,0,1,561.23,517.3Z"
     id="path4127" />
  <rect
     class="d"
     x="438"
     y="502.5"
     width="83"
     height="20"
     rx="2.11"
     id="rect4129" />
  <text
     class="e"
     transform="translate(452.11 517.19)"
     id="text4131">Update</text>
  <line
     class="f"
     x1="396.5"
     y1="437.5"
     x2="225.5"
     y2="437.5"
     id="line4133" />
  <path
     class="g"
     d="M232.27,432.7a.5.5,0,0,1-.15.69l-6.45,4.11,6.45,4.11a.5.5,0,1,1-.54.84l-7.11-4.53a.49.49,0,0,1,0-.84l7.11-4.53a.45.45,0,0,1,.27-.08A.49.49,0,0,1,232.27,432.7Z"
     id="path4135" />
  <rect
     class="d"
     x="248"
     y="427"
     width="115"
     height="20"
     rx="2.11"
     id="rect4137" />
  <text
     class="e"
     transform="translate(255.49 441.69)"
     id="text4139">Request Scan</text>
  <line
     class="f"
     x1="744.5"
     y1="618"
     x2="573.5"
     y2="618"
     id="line4141" />
  <path
     class="g"
     d="M580.27,613.2a.5.5,0,0,1-.15.69L573.67,618l6.45,4.11a.5.5,0,1,1-.54.84l-7.11-4.53a.49.49,0,0,1,0-.84l7.11-4.53a.45.45,0,0,1,.27-.08A.49.49,0,0,1,580.27,613.2Z"
     id="path4143" />
  <rect
     class="d"
     x="612"
     y="608"
     width="83"
     height="20"
     rx="2.11"
     id="rect4145" />
  <text
     class="e"
     transform="translate(630.57 622.69)"
     id="text4147">Query</text>
  <line
     class="f"
     x1="918.5"
     y1="594.5"
     x2="747.5"
     y2="594.5"
     id="line4149" />
  <path
     class="g"
     d="M754.27,589.7a.5.5,0,0,1-.15.69l-6.45,4.11,6.45,4.11a.5.5,0,1,1-.54.84l-7.11-4.53a.49.49,0,0,1,0-.84l7.11-4.53a.45.45,0,0,1,.27-.08A.49.49,0,0,1,754.27,589.7Z"
     id="path4151" />
  <rect
     class="d"
     x="786"
     y="584.5"
     width="83"
     height="20"
     rx="2.11"
     id="rect4153" />
  <text
     class="e"
     transform="translate(804.57 599.19)"
     id="text4155">Query</text>
  <line
     class="n"
     x1="742.5"
     y1="661"
     x2="570.5"
     y2="661"
     id="line4157" />
  <path
     class="g"
     d="M735.73,656.2a.5.5,0,0,0,.15.69l6.45,4.11-6.45,4.11a.5.5,0,0,0,.54.84l7.11-4.53a.49.49,0,0,0,0-.84l-7.11-4.53a.45.45,0,0,0-.27-.08A.49.49,0,0,0,735.73,656.2Z"
     id="path4159" />
  <rect
     class="d"
     x="598"
     y="651"
     width="111"
     height="20"
     rx="2.11"
     id="rect4161" />
  <text
     class="e"
     transform="translate(603.35 665.69)"
     id="text4163">Query results</text>
  <line
     class="n"
     x1="915.5"
     y1="687.5"
     x2="744.5"
     y2="687.5"
     id="line4165" />
  <path
     class="g"
     d="M908.73,682.7a.5.5,0,0,0,.15.69l6.45,4.11-6.45,4.11a.5.5,0,0,0,.54.84l7.11-4.53a.49.49,0,0,0,0-.84l-7.11-4.53a.45.45,0,0,0-.27-.08A.49.49,0,0,0,908.73,682.7Z"
     id="path4167" />
  <rect
     class="d"
     x="770"
     y="677.5"
     width="115"
     height="20"
     rx="2.11"
     id="rect4169" />
  <text
     class="e"
     transform="translate(777.35 692.19)"
     id="text4171">Query results</text>
  <line
     class="f"
     x1="396.5"
     y1="236.5"
     x2="567.5"
     y2="236.5"
     id="line4173" />
  <path
     class="g"
     d="M560.73,241.3a.5.5,0,0,1,.15-.69l6.45-4.11-6.45-4.11a.5.5,0,1,1,.54-.84l7.11,4.53a.49.49,0,0,1,0,.84l-7.11,4.53a.45.45,0,0,1-.27.08A.49.49,0,0,1,560.73,241.3Z"
     id="path4175" />
  <rect
     class="d"
     x="442"
     y="226.5"
     width="83"
     height="20"
     rx="2.11"
     id="rect4177" />
  <text
     class="e"
     transform="translate(456.11 241.19)"
     id="text4179">Update</text>
</svg>
