<svg width="40" height="40" viewBox="0 0 36 36" fill="none" xmlns="http://www.w3.org/2000/svg">
<path d="M35.9944 18.899C35.9944 15.8726 34.1138 13.2575 31.3224 12.2291C31.4406 11.5895 31.4996 10.9403 31.4986 10.2898C31.4986 4.67757 26.9443 0.123291 21.3321 0.123291C18.0706 0.123291 15.0148 1.68057 13.1048 4.35442C12.1646 3.61979 11.0187 3.23785 9.81394 3.23785C6.84619 3.23785 4.40747 5.64718 4.40747 8.64432C4.40747 9.29078 4.52503 9.93723 4.73062 10.5249C1.90997 11.4945 0 14.1977 0 17.1947C0 20.2213 1.88058 22.8657 4.70123 23.8941C4.58381 24.5112 4.52503 25.1576 4.52503 25.8333C4.52503 31.4161 9.07931 35.9706 14.6621 35.9706C17.953 35.9706 20.9796 34.3839 22.8894 31.7394C23.8296 32.4739 25.005 32.8854 26.2097 32.8854C29.1774 32.8854 31.6162 30.4759 31.6162 27.4789C31.6162 26.8325 31.4986 26.186 31.293 25.5984C34.0549 24.5994 35.9942 21.8961 35.9942 18.899H35.9944Z" fill="white"/>
<path d="M14.0744 15.52L22.096 19.193L30.2057 12.0823C30.324 11.4922 30.383 10.8918 30.3819 10.2899C30.3819 5.29491 26.3272 1.23999 21.332 1.23999C18.3349 1.23999 15.5436 2.7091 13.8688 5.17721L12.5171 12.1705L14.0744 15.5202V15.52Z" fill="#F4BD19"/>
<path d="M5.75897 24.0117C5.64154 24.5993 5.58276 25.2164 5.58276 25.8335C5.58276 30.8285 9.66693 34.9128 14.6621 34.9128C17.6886 34.9128 20.48 33.4143 22.1841 30.946L23.5064 23.9529L21.714 20.5444L13.6631 16.8716L5.75897 24.0117V24.0117Z" fill="#3CBEB1"/>
<path d="M5.70031 10.1135L11.1949 11.4065L12.4289 5.14779C11.6651 4.56012 10.7541 4.26636 9.78448 4.26636C7.4044 4.26636 5.43579 6.20558 5.43579 8.61505C5.43579 9.11455 5.52396 9.64344 5.70017 10.1135H5.70031Z" fill="#E9478C"/>
<path d="M5.23021 11.4355C2.7621 12.229 1.05786 14.609 1.05786 17.1947C1.05786 19.7217 2.61514 21.9842 4.96583 22.8657L12.6936 15.8724L11.2831 12.8462L5.23021 11.4357V11.4355Z" fill="#2C458F"/>
<path d="M23.5947 30.9166C24.3586 31.5044 25.2696 31.8276 26.2098 31.8276C28.5899 31.8276 30.5585 29.8884 30.5585 27.4789C30.5585 26.95 30.4703 26.4504 30.2941 25.9803L24.7995 24.6875L23.5947 30.9166V30.9166Z" fill="#95C63D"/>
<path d="M24.7113 23.2476L30.7642 24.658C33.2323 23.8354 34.9365 21.4847 34.9365 18.8989C34.9365 16.3718 33.3793 14.1389 31.0286 13.228L23.0952 20.1624L24.7113 23.2477V23.2476Z" fill="#176655"/>
</svg>
