<svg width="46" height="46" viewBox="0 0 36 36" fill="none" xmlns="http://www.w3.org/2000/svg">
<path d="M18.96 28.5932C23.88 28.0967 27.72 23.7519 27.72 18.5381C27.72 13.3243 23.88 8.97946 18.96 8.4829V2.40015C27.12 2.8967 33.72 9.97256 33.72 18.5381C33.72 27.1036 27.24 34.1795 18.96 34.676V28.5932V28.5932Z" fill="#36499B"/>
<path d="M14.0399 34.0553C15.6305 34.0553 16.9199 32.7214 16.9199 31.076C16.9199 29.4306 15.6305 28.0967 14.0399 28.0967C12.4493 28.0967 11.1599 29.4306 11.1599 31.076C11.1599 32.7214 12.4493 34.0553 14.0399 34.0553Z" fill="#0081C3"/>
<path d="M7.6798 29.214C9.27038 29.214 10.5598 27.8801 10.5598 26.2347C10.5598 24.5893 9.27038 23.2554 7.6798 23.2554C6.08922 23.2554 4.7998 24.5893 4.7998 26.2347C4.7998 27.8801 6.08922 29.214 7.6798 29.214Z" fill="#67CFEE"/>
<path d="M5.2799 21.6417C6.87048 21.6417 8.1599 20.3078 8.1599 18.6624C8.1599 17.017 6.87048 15.6831 5.2799 15.6831C3.68932 15.6831 2.3999 17.017 2.3999 18.6624C2.3999 20.3078 3.68932 21.6417 5.2799 21.6417Z" fill="#9D7AD1"/>
<path d="M7.6798 13.9449C9.27038 13.9449 10.5598 12.6111 10.5598 10.9656C10.5598 9.32021 9.27038 7.98633 7.6798 7.98633C6.08922 7.98633 4.7998 9.32021 4.7998 10.9656C4.7998 12.6111 6.08922 13.9449 7.6798 13.9449Z" fill="#FF5892"/>
<path d="M14.0399 8.97937C15.6305 8.97937 16.9199 7.64549 16.9199 6.00006C16.9199 4.35463 15.6305 3.02075 14.0399 3.02075C12.4493 3.02075 11.1599 4.35463 11.1599 6.00006C11.1599 7.64549 12.4493 8.97937 14.0399 8.97937Z" fill="#E470C0"/>
</svg>
