<svg id="edit-icon" width="14" height="14" viewBox="0 0 14 14" xmlns="http://www.w3.org/2000/svg"><path d="M11.1481 2.14807L10 1L1 10V13H4L13 4L11.8561 2.85607L3.854 10.854C3.756 10.951 3.628 11 3.5 11C3.372 11 3.244 10.951 3.146 10.854C2.951 10.658 2.951 10.342 3.146 10.146L11.1481 2.14807ZM10 0C10.256 0 10.512 0.098 10.707 0.293L13.707 3.293C14.098 3.683 14.098 4.317 13.707 4.707L4.707 13.707C4.52 13.895 4.265 14 4 14H1C0.448 14 0 13.552 0 13V10C0 9.735 0.105 9.48 0.293 9.293L9.293 0.293C9.488 0.098 9.744 0 10 0ZM4 13H1V10L4 13Z"/></svg>