<svg width="12" height="12" class="theme-common-icon" id="menu-chevron" xmlns="http://www.w3.org/2000/svg" viewBox="0 0 12 12"><path fill-rule="evenodd" clip-rule="evenodd" d="M2.19089 3.07202C2.38783 2.94073 2.65391 2.99395 2.7852 3.19089L5.85716 7.79882L8.92911 3.19089C9.06041 2.99395 9.32649 2.94073 9.52343 3.07202C9.72037 3.20332 9.77359 3.4694 9.64229 3.66634L6.21375 8.80916C6.13426 8.92839 6.00045 9 5.85716 9C5.71387 9 5.58005 8.92839 5.50057 8.80916L2.07202 3.66634C1.94073 3.4694 1.99395 3.20332 2.19089 3.07202Z"/></svg>
<svg width="21.88" height="25" class="theme-common-icon" id="wide-chevron" xmlns="http://www.w3.org/2000/svg" viewBox="0 0 448 512"><path d="M207.029 381.476L12.686 187.132c-9.373-9.373-9.373-24.569 0-33.941l22.667-22.667c9.357-9.357 24.522-9.375 33.901-.04L224 284.505l154.745-154.021c9.379-9.335 24.544-9.317 33.901.04l22.667 22.667c9.373 9.373 9.373 24.569 0 33.941L240.971 381.476c-9.373 9.372-24.569 9.372-33.942 0z"></path></svg>
<svg width="31" height="31" viewBox="0 1 17 17" class="theme-common-icon" id="search-header" xmlns="http://www.w3.org/2000/svg"><path fill-rule="evenodd" clip-rule="evenodd" d="M11.2986 11.296C11.5978 11.0472 12.0828 11.0472 12.382 11.296L15.4463 13.845C15.7455 14.0939 15.7455 14.4974 15.4463 14.7463C15.1471 14.9951 14.7891 14.9951 14.49 14.7463L11.2986 12.1972C10.9994 11.9484 10.9994 11.5449 11.2986 11.296Z"></path><path fill-rule="evenodd" clip-rule="evenodd" d="M8.23534 4.16542C5.93121 4.16542 4.06334 6.02995 4.06334 8.32996C4.06334 10.63 5.93121 12.4945 8.23534 12.4945C10.5395 12.4945 12.4073 10.63 12.4073 8.32996C12.4073 6.02995 10.5395 4.16542 8.23534 4.16542ZM3.25586 8.32996C3.25586 5.58478 5.48525 3.35938 8.23534 3.35938C10.9854 3.35938 13.2148 5.58478 13.2148 8.32996C13.2148 11.0751 10.9854 13.3006 8.23534 13.3006C5.48525 13.3006 3.25586 11.0751 3.25586 8.32996Z"></path><path fill-rule="evenodd" clip-rule="evenodd" d="M8.23489 4.80704C6.28524 4.80704 4.70474 6.38472 4.70474 8.33088C4.70474 10.2771 6.28524 11.8547 8.23489 11.8547C10.1845 11.8547 11.765 10.2771 11.765 8.33088C11.765 6.38472 10.1845 4.80704 8.23489 4.80704ZM4.02148 8.33088C4.02148 6.00804 5.90789 4.125 8.23489 4.125C10.5619 4.125 12.4483 6.00804 12.4483 8.33088C12.4483 10.6537 10.5619 12.5368 8.23489 12.5368C5.90789 12.5368 4.02148 10.6537 4.02148 8.33088Z"></path></svg>
<svg width="17" height="17" viewBox="0 0 17 17" class="theme-common-icon" id="get-wazuh" fill="none" xmlns="http://www.w3.org/2000/svg">
<g id="Group 2020">
<path id="Vector" d="M11.9995 0.519531H5.51953C2.75811 0.519531 0.519531 2.75811 0.519531 5.51953V11.9995C0.519531 14.7609 2.75811 16.9995 5.51953 16.9995H11.9995C14.7609 16.9995 16.9995 14.7609 16.9995 11.9995V5.51953C16.9995 2.75811 14.7609 0.519531 11.9995 0.519531Z" fill="black"/>
<path id="Union" fill-rule="evenodd" clip-rule="evenodd" d="M9.21718 7.19531V4.02344H8.01855V7.19531L8.01855 9.38265V11.6354L5.69326 9.3101L4.8457 10.1577L8.6371 13.9491L8.64101 13.9451L8.64296 13.9471L12.4325 10.1576L11.5849 9.31001L9.21718 11.6778V9.38265V7.19531Z" fill="white"/>
</g>
</svg>
