<svg id="wazuh-icons-sprite" version="1.1" xmlns="http://www.w3.org/2000/svg" xmlns:xlink="http://www.w3.org/1999/xlink" xml:space="preserve">
  <style type="text/css">
    .st3-lt{fill-rule:evenodd;clip-rule:evenodd;fill:none;stroke:#256BD1;stroke-linecap:round;stroke-linejoin:round;stroke-miterlimit:10;}
    .st3-dt{fill-rule:evenodd;clip-rule:evenodd;fill:none;stroke:#499CFE;stroke-linecap:round;stroke-linejoin:round;stroke-miterlimit:10;}
    .st6-lt{fill:none;stroke:#256BD1;stroke-miterlimit:10;}
    .st6-dt{fill:none;stroke:#499CFE;stroke-miterlimit:10;}
    .st7-lt{fill:#050505;}
    .st7-dt{fill:#FFFFFF;}
    .st10-lt{fill:none;stroke:#256BD1;stroke-width:1.5;stroke-linecap:round;stroke-linejoin:round;stroke-miterlimit:10;}
    .st10-dt{fill:none;stroke:#499CFE;stroke-width:1.5;stroke-linecap:round;stroke-linejoin:round;stroke-miterlimit:10;}
    .st11-lt{fill:none;stroke:#050505;stroke-width:1.5;stroke-miterlimit:10;}
    .st11-dt{fill:none;stroke:#FFFFFF;stroke-width:1.5;stroke-miterlimit:10;}
    .st15-lt{fill:none;stroke:#000000;stroke-miterlimit:10;}
    .st15-dt{fill:none;stroke:#FFFFFF;stroke-miterlimit:10;}
    .st16-lt{fill:none;stroke:#000000;stroke-miterlimit:10;}
    .st16-dt{fill:none;stroke:#FFFFFF;stroke-miterlimit:10;}
    .st18-lt{fill-rule:evenodd;clip-rule:evenodd;fill:none;stroke:#050505;stroke-miterlimit:10;}
    .st18-dt{fill-rule:evenodd;clip-rule:evenodd;fill:none;stroke:#FFFFFF;stroke-miterlimit:10;}
    .st19-lt{fill:none;stroke:#050505;stroke-miterlimit:10;}
    .st19-dt{fill:none;stroke:#FFFFFF;stroke-miterlimit:10;}
    .st20-lt{fill:none;stroke:#256BD1;stroke-linecap:round;stroke-linejoin:round;stroke-miterlimit:10;}
    .st20-dt{fill:none;stroke:#499CFE;stroke-linecap:round;stroke-linejoin:round;stroke-miterlimit:10;}
    .st20{fill:none;stroke:#FFFFFF;stroke-linecap:round;stroke-linejoin:round;stroke-miterlimit:10;}
    .st21-lt{fill:#256BD1;}
    .st21-dt{fill:#499CFE;}
    .st22-lt{fill-rule:evenodd;clip-rule:evenodd;fill:none;stroke:#000000;stroke-miterlimit:10;}
    .st22-dt{fill-rule:evenodd;clip-rule:evenodd;fill:none;stroke:#FFFFFF;stroke-miterlimit:10;}
    .st23-lt{fill:none;stroke:#000000;stroke-linecap:round;stroke-linejoin:round;stroke-miterlimit:10;}
    .st23-dt{fill:none;stroke:#FFFFFF;stroke-linecap:round;stroke-linejoin:round;stroke-miterlimit:10;}
    .st39-lt{fill:none;stroke:#256BD1;stroke-width:1.0982;stroke-miterlimit:10;}
    .st39-dt{fill:none;stroke:#499CFE;stroke-width:1.0982;stroke-miterlimit:10;}
    .wider-stroke{stroke-width:4;}
  </style>
  <view id="getting-started-lt" viewBox="0 0 200 200"/>
  <view id="getting-started-dt" viewBox="0 220 200 200"/>
  <view id="installation-guide-lt" viewBox="220 0 200 200"/>
  <view id="installation-guide-dt" viewBox="220 220 200 200"/>
  <view id="upgrade-guide-lt" viewBox="440 0 200 200"/>
  <view id="upgrade-guide-dt" viewBox="440 220 200 200"/>
  <view id="user-manual-lt" viewBox="660 0 200 200"/>
  <view id="user-manual-dt" viewBox="660 220 200 200"/>
  <view id="cloud-service-lt" viewBox="880 0 200 200"/>
  <view id="cloud-service-dt" viewBox="880 220 200 200"/>
  <view id="compliance-lt" viewBox="1100 0 200 200"/>
  <view id="compliance-dt" viewBox="1100 220 200 200"/>
  <view id="deployment-lt" viewBox="1320 0 200 200"/>
  <view id="deployment-dt" viewBox="1320 220 200 200"/>
  <view id="containers-lt" viewBox="1540 0 200 200"/>
  <view id="containers-dt" viewBox="1540 220 200 200"/>
  <view id="cloud-security-lt" viewBox="1760 0 200 200"/>
  <view id="cloud-security-dt" viewBox="1760 220 200 200"/>
  <view id="poc-guide-lt" viewBox="1980 0 200 200"/>
  <view id="poc-guide-dt" viewBox="1980 220 200 200"/>
  <view id="release-notes-lt" viewBox="2200 0 200 200"/>
  <view id="release-notes-dt" viewBox="2200 220 200 200"/>
  <view id="quickstar-lt" viewBox="2420 0 200 200"/>
  <view id="quickstart-dt" viewBox="2420 220 200 200"/>
  <view id="quickstart" viewBox="2420 440 200 200"/>
  <view id="installation-alternatives-lt" viewBox="2640 0 200 200"/>
  <view id="installation-alternatives-dt" viewBox="2640 220 200 200"/>
  <g>
    <path class="st18-lt" d="M35.908,77.821c0,0.03,0.002,0.059,0.002,0.088h-0.002v108.796l64.679-27.351l63.545,27.351V77.909h-0.002
      c0-0.03,0.002-0.059,0.002-0.088"/>
    <path class="st7-lt" d="M78.877,82.409c0.476,6.05,3.576,11.604,8.507,15.238c5.019,3.698,11.377,5.033,17.447,3.661
      c10.739-2.426,17.965-12.819,16.451-23.661c-0.935-6.688-4.399-11.93-10.302-15.587c-0.244,0.796-0.514,1.573-0.804,2.321
      c5.741,3.674,8.742,9.098,8.921,16.121l0.001,0.028l-0.001,0.094c-0.026,0.309-0.04,0.562-0.055,0.824
      c-0.042,0.755-0.086,1.547-0.24,2.353c-1.79,9.366-9.459,15.615-19.124,15.615c-0.081,0-0.163,0-0.245-0.001
      c-5.204-0.059-10.407-2.569-13.918-6.717c-3.559-4.208-5.027-9.671-4.135-15.385c0.865-5.538,3.774-9.89,8.646-12.936
      c-0.282-0.731-0.548-1.503-0.792-2.301C81.683,66.915,78.199,73.751,78.877,82.409z"/>
    <path class="st7-lt" d="M101.352,59.683c-0.004-1.729-0.006-3.458,0.004-5.186c-0.866,0.011-1.711,0.007-2.499-0.002
      c0.01,5.059,0.01,10.116,0,15.176c0.84-0.014,1.671-0.017,2.5-0.001c-0.016-1.618-0.012-3.242-0.007-4.825L101.352,59.683z"/>
    <circle class="st3-lt" cx="100.138" cy="78.061" r="64.104"/>
  </g>
  <g transform="translate(0, 220)">
    <path class="st18-dt" d="M35.908,77.821c0,0.03,0.002,0.059,0.002,0.088h-0.002v108.796l64.679-27.351l63.545,27.351V77.909h-0.002
      c0-0.03,0.002-0.059,0.002-0.088"/>
    <path class="st7-dt" d="M78.877,82.409c0.476,6.05,3.576,11.604,8.507,15.238c5.019,3.698,11.377,5.033,17.447,3.661
      c10.739-2.426,17.965-12.819,16.451-23.661c-0.935-6.688-4.399-11.93-10.302-15.587c-0.244,0.796-0.514,1.573-0.804,2.321
      c5.741,3.674,8.742,9.098,8.921,16.121l0.001,0.028l-0.001,0.094c-0.026,0.309-0.04,0.562-0.055,0.824
      c-0.042,0.755-0.086,1.547-0.24,2.353c-1.79,9.366-9.459,15.615-19.124,15.615c-0.081,0-0.163,0-0.245-0.001
      c-5.204-0.059-10.407-2.569-13.918-6.717c-3.559-4.208-5.027-9.671-4.135-15.385c0.865-5.538,3.774-9.89,8.646-12.936
      c-0.282-0.731-0.548-1.503-0.792-2.301C81.683,66.915,78.199,73.751,78.877,82.409z"/>
    <path class="st7-dt" d="M101.352,59.683c-0.004-1.729-0.006-3.458,0.004-5.186c-0.866,0.011-1.711,0.007-2.499-0.002
      c0.01,5.059,0.01,10.116,0,15.176c0.84-0.014,1.671-0.017,2.5-0.001c-0.016-1.618-0.012-3.242-0.007-4.825L101.352,59.683z"/>
    <circle class="st3-dt" cx="100.138" cy="78.061" r="64.104"/>
  </g>
  <g transform="translate(220, 0)">
    <polyline class="st19-lt" points="170.743,92.856 170.743,186.616 29.318,186.616 29.318,92.856 	"/>
    <path class="st20-lt" d="M158.292,72.87c-1.472-7.705-4.493-15.168-9.043-21.907l8.783-8.783l-16.016-16.016l-8.782,8.782
      c-6.739-4.551-14.203-7.57-21.908-9.043V13.452h-22.65v12.514c-7.664,1.508-15.081,4.552-21.776,9.112l-8.914-8.914L41.97,42.18
      l8.972,8.972c-4.479,6.689-7.454,14.086-8.912,21.718H29.257v10.822v0.249v10.822h12.772c1.458,7.632,4.434,15.029,8.912,21.718
      l-8.972,8.972l16.016,16.016l8.914-8.914c6.695,4.559,14.112,7.603,21.776,9.112v12.514h22.65V141.73
      c7.705-1.473,15.169-4.492,21.908-9.043l8.782,8.782l16.016-16.016l-8.783-8.783c4.55-6.739,7.572-14.202,9.043-21.907h12.451
      V83.941v-0.249V72.87H158.292z M124.669,108.065c-13.513,13.513-35.421,13.513-48.933,0c-6.701-6.701-10.074-15.466-10.129-24.248
      c0.055-8.782,3.428-17.548,10.129-24.248c13.513-13.513,35.421-13.513,48.933,0c6.701,6.701,10.074,15.466,10.129,24.248
      C134.743,92.599,131.37,101.364,124.669,108.065z"/>
    <polygon class="st7-lt" points="96.242,94.75 84.489,82.997 85.903,81.583 96.242,91.922 114.965,73.201 116.379,74.615 		"/>
  </g>
  <g transform="translate(220, 220)">
    <polyline class="st19-dt" points="170.743,92.856 170.743,186.616 29.318,186.616 29.318,92.856 	"/>
    <path class="st20-dt" d="M158.292,72.87c-1.472-7.705-4.493-15.168-9.043-21.907l8.783-8.783l-16.016-16.016l-8.782,8.782
      c-6.739-4.551-14.203-7.57-21.908-9.043V13.452h-22.65v12.514c-7.664,1.508-15.081,4.552-21.776,9.112l-8.914-8.914L41.97,42.18
      l8.972,8.972c-4.479,6.689-7.454,14.086-8.912,21.718H29.257v10.822v0.249v10.822h12.772c1.458,7.632,4.434,15.029,8.912,21.718
      l-8.972,8.972l16.016,16.016l8.914-8.914c6.695,4.559,14.112,7.603,21.776,9.112v12.514h22.65V141.73
      c7.705-1.473,15.169-4.492,21.908-9.043l8.782,8.782l16.016-16.016l-8.783-8.783c4.55-6.739,7.572-14.202,9.043-21.907h12.451
      V83.941v-0.249V72.87H158.292z M124.669,108.065c-13.513,13.513-35.421,13.513-48.933,0c-6.701-6.701-10.074-15.466-10.129-24.248
      c0.055-8.782,3.428-17.548,10.129-24.248c13.513-13.513,35.421-13.513,48.933,0c6.701,6.701,10.074,15.466,10.129,24.248
      C134.743,92.599,131.37,101.364,124.669,108.065z"/>
    <polygon class="st7-dt" points="96.242,94.75 84.489,82.997 85.903,81.583 96.242,91.922 114.965,73.201 116.379,74.615 		"/>
  </g>
  <g transform="translate(440, 0)">
    <path class="st7-lt" d="M115.02,69.173c-4.011-4.012-9.345-6.222-15.021-6.222c-5.508,0-10.695,2.081-14.664,5.872l1.511,1.511
      c3.565-3.389,8.216-5.248,13.153-5.248c5.104,0,9.902,1.987,13.512,5.597c5.289,5.289,6.997,13.142,4.419,20.132l1.982,0.791
      C122.808,83.821,120.915,75.066,115.02,69.173z"/>
    <path class="st7-lt" d="M84.978,99.215c4.013,4.013,9.348,6.223,15.021,6.223c5.508,0,10.695-2.082,14.663-5.873l-1.51-1.51
      c-3.565,3.388-8.216,5.247-13.153,5.247c-5.104,0-9.902-1.987-13.512-5.597c-5.29-5.289-6.997-13.142-4.419-20.132l-1.983-0.791
      C77.191,84.567,79.085,93.322,84.978,99.215z"/>
    <polygon class="st7-lt" points="93.131,72.757 93.362,70.634 86.054,69.839 86.849,62.532 84.726,62.301 83.7,71.73 "/>
    <path class="st23-lt" d="M170.055,81.608c0.026,0.791,0.06,1.581,0.06,2.379c0,38.723-31.391,70.115-70.115,70.115
      S29.885,122.71,29.885,83.987c0-0.798,0.034-1.587,0.06-2.379h-0.275v105.314h140.659V81.608H170.055z"/>
    <path class="st20-lt" d="M100,154.102c38.723,0,70.115-31.391,70.115-70.115c0-0.798-0.034-1.587-0.06-2.379
      C168.798,43.989,137.926,13.872,100,13.872S31.202,43.989,29.945,81.608c-0.026,0.791-0.06,1.581-0.06,2.379
      C29.885,122.71,61.277,154.102,100,154.102z"/>
    <polygon class="st7-lt" points="106.87,95.631 106.639,97.754 113.946,98.549 113.15,105.857 115.273,106.087 116.299,96.66 "/>
  </g>
  <g transform="translate(440, 220)">
    <path class="st7-dt" d="M115.02,69.173c-4.011-4.012-9.345-6.222-15.021-6.222c-5.508,0-10.695,2.081-14.664,5.872l1.511,1.511
      c3.565-3.389,8.216-5.248,13.153-5.248c5.104,0,9.902,1.987,13.512,5.597c5.289,5.289,6.997,13.142,4.419,20.132l1.982,0.791
      C122.808,83.821,120.915,75.066,115.02,69.173z"/>
    <path class="st7-dt" d="M84.978,99.215c4.013,4.013,9.348,6.223,15.021,6.223c5.508,0,10.695-2.082,14.663-5.873l-1.51-1.51
      c-3.565,3.388-8.216,5.247-13.153,5.247c-5.104,0-9.902-1.987-13.512-5.597c-5.29-5.289-6.997-13.142-4.419-20.132l-1.983-0.791
      C77.191,84.567,79.085,93.322,84.978,99.215z"/>
    <polygon class="st7-dt" points="93.131,72.757 93.362,70.634 86.054,69.839 86.849,62.532 84.726,62.301 83.7,71.73 "/>
    <path class="st23-dt" d="M170.055,81.608c0.026,0.791,0.06,1.581,0.06,2.379c0,38.723-31.391,70.115-70.115,70.115
      S29.885,122.71,29.885,83.987c0-0.798,0.034-1.587,0.06-2.379h-0.275v105.314h140.659V81.608H170.055z"/>
    <path class="st20-dt" d="M100,154.102c38.723,0,70.115-31.391,70.115-70.115c0-0.798-0.034-1.587-0.06-2.379
      C168.798,43.989,137.926,13.872,100,13.872S31.202,43.989,29.945,81.608c-0.026,0.791-0.06,1.581-0.06,2.379
      C29.885,122.71,61.277,154.102,100,154.102z"/>
    <polygon class="st7-dt" points="106.87,95.631 106.639,97.754 113.946,98.549 113.15,105.857 115.273,106.087 116.299,96.66 "/>
  </g>
  <g transform="translate(660, 0)">
    <polygon class="st6-lt" points="126.308,69.667 161.061,69.667 126.308,35.63 		"/>
    <rect x="94.552" y="93.916" class="st7-lt" width="43.476" height="2.09"/>
    <polygon class="st7-lt" points="87.299,85.687 85.79,84.209 70.765,98.924 63.924,92.223 62.415,93.701 70.765,101.88 		"/>
    <rect x="94.552" y="126.723" class="st7-lt" width="43.476" height="2.09"/>
    <polygon class="st7-lt" points="87.299,118.494 85.79,117.016 70.765,131.73 63.924,125.03 62.415,126.508 70.765,134.686 		"/>
    <rect x="94.552" y="159.53" class="st7-lt" width="43.476" height="2.09"/>
    <polygon class="st7-lt" points="87.299,151.301 85.79,149.823 70.765,164.538 63.924,157.837 62.415,159.315 70.765,167.494 		"/>
    <rect x="37.879" y="34.383" class="st6-lt" width="124.241" height="153.702"/>
    <polyline class="st16-lt" points="125.369,34.383 162.121,34.383 162.121,70.54 	"/>
  </g>
  <g transform="translate(660, 220)">
    <polygon class="st6-dt" points="126.308,69.667 161.061,69.667 126.308,35.63 		"/>
    <rect x="94.552" y="93.916" class="st7-dt" width="43.476" height="2.09"/>
    <polygon class="st7-dt" points="87.299,85.687 85.79,84.209 70.765,98.924 63.924,92.223 62.415,93.701 70.765,101.88 		"/>
    <rect x="94.552" y="126.723" class="st7-dt" width="43.476" height="2.09"/>
    <polygon class="st7-dt" points="87.299,118.494 85.79,117.016 70.765,131.73 63.924,125.03 62.415,126.508 70.765,134.686 		"/>
    <rect x="94.552" y="159.53" class="st7-dt" width="43.476" height="2.09"/>
    <polygon class="st7-dt" points="87.299,151.301 85.79,149.823 70.765,164.538 63.924,157.837 62.415,159.315 70.765,167.494 		"/>
    <rect x="37.879" y="34.383" class="st6-dt" width="124.241" height="153.702"/>
    <polyline class="st16-dt" points="125.369,34.383 162.121,34.383 162.121,70.54 	"/>
  </g>
  <g transform="translate(880, 0)">
    <path class="st20-lt" d="M170.089,73.157c-3.336-1.928-7.014-3.244-10.908-3.793c0.587-2.368,0.978-4.82,1.193-7.327
      c0.115-1.337,0.194-2.684,0.194-4.053c0-24.174-18.093-43.771-40.413-43.771c-13.558,0-25.528,7.253-32.855,18.352
      c-3.036,4.598-5.295,9.841-6.508,15.527H55.136c-23.03,0-41.873,20.409-41.873,45.353c0,1.36,0.066,2.704,0.176,4.034
      c1.901,23.072,16.969,41.319,38.744,41.319h0.357V92.188h94.915v46.609h7.573c17.266,0,31.431-14.931,32.127-33.455
      c0.018-0.472,0.066-0.936,0.066-1.413C187.22,90.637,180.257,79.032,170.089,73.157z"/>
    <polyline class="st16-lt" points="52.526,138.798 52.526,188.739 147.474,188.739 147.474,138.798 	"/>
    <path class="st19-lt" d="M78.828,139.098v-7.807c0-14.296,11.589-25.885,25.885-25.885h0c14.296,0,25.885,11.589,25.885,25.885
      v11.613c0,12.249-8.508,22.511-19.937,25.198"/>
    <path class="st19-lt" d="M67.743,156.427h11.085v-23.044H67.743c-0.789,0-1.428,0.639-1.428,1.428v20.188
      C66.315,155.787,66.954,156.427,67.743,156.427z"/>
    <circle class="st19-lt" cx="104.713" cy="168.39" r="6.016"/>
  </g>
  <g transform="translate(880, 220)">
    <path class="st20-dt" d="M170.089,73.157c-3.336-1.928-7.014-3.244-10.908-3.793c0.587-2.368,0.978-4.82,1.193-7.327
      c0.115-1.337,0.194-2.684,0.194-4.053c0-24.174-18.093-43.771-40.413-43.771c-13.558,0-25.528,7.253-32.855,18.352
      c-3.036,4.598-5.295,9.841-6.508,15.527H55.136c-23.03,0-41.873,20.409-41.873,45.353c0,1.36,0.066,2.704,0.176,4.034
      c1.901,23.072,16.969,41.319,38.744,41.319h0.357V92.188h94.915v46.609h7.573c17.266,0,31.431-14.931,32.127-33.455
      c0.018-0.472,0.066-0.936,0.066-1.413C187.22,90.637,180.257,79.032,170.089,73.157z"/>
    <polyline class="st16-dt" points="52.526,138.798 52.526,188.739 147.474,188.739 147.474,138.798 	"/>
    <path class="st19-dt" d="M78.828,139.098v-7.807c0-14.296,11.589-25.885,25.885-25.885h0c14.296,0,25.885,11.589,25.885,25.885
      v11.613c0,12.249-8.508,22.511-19.937,25.198"/>
    <path class="st19-dt" d="M67.743,156.427h11.085v-23.044H67.743c-0.789,0-1.428,0.639-1.428,1.428v20.188
      C66.315,155.787,66.954,156.427,67.743,156.427z"/>
    <circle class="st19-dt" cx="104.713" cy="168.39" r="6.016"/>
  </g>
  <g transform="translate(1100, 0)">
    <polyline class="st19-lt" points="131.093,32.467 162.952,32.467 162.952,186.534 37.048,186.534 37.048,32.467 68.693,32.467 	"/>
    <rect x="57.538" y="145.548" class="st7-lt" width="82.085" height="2.163"/>
    <rect x="57.538" y="124.012" class="st7-lt" width="82.085" height="2.163"/>
    <rect x="57.538" y="163.284" class="st7-lt" width="82.085" height="2.163"/>
    <path class="st21-lt" d="M100,86.017c-19.578,0-35.506-16.304-35.506-36.344S80.422,13.329,100,13.329s35.506,16.304,35.506,36.344
      S119.578,86.017,100,86.017z M100,14.329c-19.026,0-34.506,15.855-34.506,35.344S80.974,85.017,100,85.017
      s34.506-15.855,34.506-35.344S119.026,14.329,100,14.329z"/>
    <path class="st7-lt" d="M100.075,70.804l-0.278-0.072l-0.663-0.313C91.99,67.034,86.373,60.283,83.318,51.41
      c-0.089-0.32-1.97-7.169-2.201-10.562l-0.141-1.958l0.686-0.393l3.773-2.073c3.171-1.741,8.114-4.457,10.84-5.942
      c2.798-1.523,3.28-1.767,3.45-1.844l0.083-0.067l0.367-0.005l0.1,0.074c0.228,0.105,0.803,0.4,3.449,1.842
      c2.726,1.485,7.669,4.201,10.84,5.942l1.194,0.656c2.299,1.263,2.823,1.551,2.943,1.616l0.319,0.151l-0.139,2
      c-0.243,3.566-0.963,7.12-2.14,10.562l-0.155,0.338c-2.917,8.244-8.128,14.686-14.702,18.161l-0.119,0.062
      c-0.289,0.153-0.579,0.306-0.877,0.447L100.075,70.804z M82.023,39.44l0.092,1.34c0.225,3.294,2.139,10.265,2.158,10.335
      c2.957,8.587,8.39,15.132,15.288,18.399l0.45,0.213l0.45-0.213c0.284-0.135,0.562-0.281,0.837-0.427l0.12-0.063
      c6.438-3.403,11.53-9.774,14.341-17.939l0.151-0.337c1.081-3.253,1.744-6.604,1.974-9.968l0.092-1.34
      c-0.337-0.186-1.075-0.591-2.699-1.482l-1.194-0.656c-3.17-1.741-8.112-4.456-10.837-5.94
      c-2.226-1.213-2.969-1.605-3.247-1.745c-0.258,0.131-0.992,0.517-3.245,1.745c-2.725,1.484-7.667,4.199-10.837,5.94
      L82.023,39.44z"/>
    <polygon class="st7-lt" points="108.086,44.791 107.106,43.81 97.341,53.575 92.894,49.128 91.914,50.109 97.341,55.536"/>
  </g>
  <g transform="translate(1100, 220)">
    <polyline class="st19-dt" points="131.093,32.467 162.952,32.467 162.952,186.534 37.048,186.534 37.048,32.467 68.693,32.467 	"/>
    <rect x="57.538" y="145.548" class="st7-dt" width="82.085" height="2.163"/>
    <rect x="57.538" y="124.012" class="st7-dt" width="82.085" height="2.163"/>
    <rect x="57.538" y="163.284" class="st7-dt" width="82.085" height="2.163"/>
    <path class="st21-dt" d="M100,86.017c-19.578,0-35.506-16.304-35.506-36.344S80.422,13.329,100,13.329s35.506,16.304,35.506,36.344
      S119.578,86.017,100,86.017z M100,14.329c-19.026,0-34.506,15.855-34.506,35.344S80.974,85.017,100,85.017
      s34.506-15.855,34.506-35.344S119.026,14.329,100,14.329z"/>
    <path class="st7-dt" d="M100.075,70.804l-0.278-0.072l-0.663-0.313C91.99,67.034,86.373,60.283,83.318,51.41
      c-0.089-0.32-1.97-7.169-2.201-10.562l-0.141-1.958l0.686-0.393l3.773-2.073c3.171-1.741,8.114-4.457,10.84-5.942
      c2.798-1.523,3.28-1.767,3.45-1.844l0.083-0.067l0.367-0.005l0.1,0.074c0.228,0.105,0.803,0.4,3.449,1.842
      c2.726,1.485,7.669,4.201,10.84,5.942l1.194,0.656c2.299,1.263,2.823,1.551,2.943,1.616l0.319,0.151l-0.139,2
      c-0.243,3.566-0.963,7.12-2.14,10.562l-0.155,0.338c-2.917,8.244-8.128,14.686-14.702,18.161l-0.119,0.062
      c-0.289,0.153-0.579,0.306-0.877,0.447L100.075,70.804z M82.023,39.44l0.092,1.34c0.225,3.294,2.139,10.265,2.158,10.335
      c2.957,8.587,8.39,15.132,15.288,18.399l0.45,0.213l0.45-0.213c0.284-0.135,0.562-0.281,0.837-0.427l0.12-0.063
      c6.438-3.403,11.53-9.774,14.341-17.939l0.151-0.337c1.081-3.253,1.744-6.604,1.974-9.968l0.092-1.34
      c-0.337-0.186-1.075-0.591-2.699-1.482l-1.194-0.656c-3.17-1.741-8.112-4.456-10.837-5.94
      c-2.226-1.213-2.969-1.605-3.247-1.745c-0.258,0.131-0.992,0.517-3.245,1.745c-2.725,1.484-7.667,4.199-10.837,5.94
      L82.023,39.44z"/>
    <polygon class="st7-dt" points="108.086,44.791 107.106,43.81 97.341,53.575 92.894,49.128 91.914,50.109 97.341,55.536"/>
  </g>
  <g transform="translate(1320, 0)">
    <path class="st21-lt" d="M171.651,149.22H28.35c-0.276,0-0.5-0.224-0.5-0.5V56.053c0-0.276,0.224-0.5,0.5-0.5h31.91
      c0.276,0,0.5,0.224,0.5,0.5s-0.224,0.5-0.5,0.5H28.85v91.667h142.302V56.553h-30.539c-0.276,0-0.5-0.224-0.5-0.5
      s0.224-0.5,0.5-0.5h31.039c0.276,0,0.5,0.224,0.5,0.5v92.667C172.151,148.996,171.928,149.22,171.651,149.22z"/>
    <rect x="99.5" y="149.355" class="st7-lt" width="1" height="37.964"/>
    <rect x="61.976" y="186.819" class="st7-lt" width="76.047" height="1"/>
    <path class="st21-lt" d="M100,96.526c-22.305,0-40.451-18.575-40.451-41.407c0-22.831,18.146-41.406,40.451-41.406
      s40.451,18.575,40.451,41.406C140.451,77.951,122.305,96.526,100,96.526z M100,14.713c-21.754,0-39.451,18.126-39.451,40.406
      S78.246,95.526,100,95.526s39.451-18.127,39.451-40.407S121.754,14.713,100,14.713z"/>
    <polygon points="118.165,65.263 100,47.098 81.835,65.263 80.421,63.848 100,44.269 119.579,63.848 		"/>
  </g>
  <g transform="translate(1320, 220)">
    <path class="st21-dt" d="M171.651,149.22H28.35c-0.276,0-0.5-0.224-0.5-0.5V56.053c0-0.276,0.224-0.5,0.5-0.5h31.91
      c0.276,0,0.5,0.224,0.5,0.5s-0.224,0.5-0.5,0.5H28.85v91.667h142.302V56.553h-30.539c-0.276,0-0.5-0.224-0.5-0.5
      s0.224-0.5,0.5-0.5h31.039c0.276,0,0.5,0.224,0.5,0.5v92.667C172.151,148.996,171.928,149.22,171.651,149.22z"/>
    <rect x="99.5" y="149.355" class="st7-dt" width="1" height="37.964"/>
    <rect x="61.976" y="186.819" class="st7-dt" width="76.047" height="1"/>
    <path class="st21-dt" d="M100,96.526c-22.305,0-40.451-18.575-40.451-41.407c0-22.831,18.146-41.406,40.451-41.406
      s40.451,18.575,40.451,41.406C140.451,77.951,122.305,96.526,100,96.526z M100,14.713c-21.754,0-39.451,18.126-39.451,40.406
      S78.246,95.526,100,95.526s39.451-18.127,39.451-40.407S121.754,14.713,100,14.713z"/>
    <polygon class="st7-dt" points="118.165,65.263 100,47.098 81.835,65.263 80.421,63.848 100,44.269 119.579,63.848 		"/>
  </g>
  <g transform="translate(1540, 0)">
    <path class="st23-lt" d="M170.055,81.608c0.026,0.791,0.06,1.581,0.06,2.379c0,38.723-31.391,70.115-70.115,70.115
      S29.885,122.71,29.885,83.987c0-0.798,0.034-1.587,0.06-2.379h-0.275v105.314h140.659V81.608H170.055z"/>
    <path class="st20-lt" d="M100,154.102c38.723,0,70.115-31.391,70.115-70.115c0-0.798-0.034-1.587-0.06-2.379
      C168.798,43.989,137.926,13.872,100,13.872S31.202,43.989,29.945,81.608c-0.026,0.791-0.06,1.581-0.06,2.379
      C29.885,122.71,61.277,154.102,100,154.102z"/>
    <path class="st11-lt" d="M127.577,68.015c-0.16-0.088-0.906-0.497-4.404-2.42c-4.431-2.434-13.342-7.329-17.968-9.851
      c-4.627-2.522-4.988-2.68-5.168-2.759l-0.013-0.005c-0.007-0.005-0.015-0.007-0.024-0.006c-0.008,0-0.016,0-0.023,0.006
      l-0.013,0.005c-0.18,0.079-0.54,0.237-5.168,2.759c-4.627,2.522-13.537,7.417-17.969,9.851c-3.498,1.922-4.245,2.332-4.404,2.42
      c-0.054,0.03-0.044,0.009-0.04,0.069c0.001,0.008,0.002,0.022,0.002,0.032c0.011,0.164,0.047,0.689,0.163,2.399
      c0.344,5.051,3.248,15.58,3.248,15.58c4.08,11.855,11.883,22.577,23.229,27.951l0.897,0.424l0.095,0.045l0.096-0.045l0.897-0.424
      c0.496-0.235,0.976-0.493,1.458-0.747c10.553-5.578,17.869-15.866,21.771-27.204h0.057c1.743-5.099,2.803-10.403,3.156-15.58
      c0.124-1.821,0.157-2.303,0.165-2.431C127.621,68.024,127.631,68.044,127.577,68.015z"/>
    <polygon class="st7-lt" points="96.78,91.966 87.751,82.937 88.837,81.851 96.78,89.794 111.163,75.412 112.249,76.498 	"/>
  </g>
  <g transform="translate(1540, 220)">
    <path class="st23-dt" d="M170.055,81.608c0.026,0.791,0.06,1.581,0.06,2.379c0,38.723-31.391,70.115-70.115,70.115
      S29.885,122.71,29.885,83.987c0-0.798,0.034-1.587,0.06-2.379h-0.275v105.314h140.659V81.608H170.055z"/>
    <path class="st20-dt" d="M100,154.102c38.723,0,70.115-31.391,70.115-70.115c0-0.798-0.034-1.587-0.06-2.379
      C168.798,43.989,137.926,13.872,100,13.872S31.202,43.989,29.945,81.608c-0.026,0.791-0.06,1.581-0.06,2.379
      C29.885,122.71,61.277,154.102,100,154.102z"/>
    <path class="st11-dt" d="M127.577,68.015c-0.16-0.088-0.906-0.497-4.404-2.42c-4.431-2.434-13.342-7.329-17.968-9.851
      c-4.627-2.522-4.988-2.68-5.168-2.759l-0.013-0.005c-0.007-0.005-0.015-0.007-0.024-0.006c-0.008,0-0.016,0-0.023,0.006
      l-0.013,0.005c-0.18,0.079-0.54,0.237-5.168,2.759c-4.627,2.522-13.537,7.417-17.969,9.851c-3.498,1.922-4.245,2.332-4.404,2.42
      c-0.054,0.03-0.044,0.009-0.04,0.069c0.001,0.008,0.002,0.022,0.002,0.032c0.011,0.164,0.047,0.689,0.163,2.399
      c0.344,5.051,3.248,15.58,3.248,15.58c4.08,11.855,11.883,22.577,23.229,27.951l0.897,0.424l0.095,0.045l0.096-0.045l0.897-0.424
      c0.496-0.235,0.976-0.493,1.458-0.747c10.553-5.578,17.869-15.866,21.771-27.204h0.057c1.743-5.099,2.803-10.403,3.156-15.58
      c0.124-1.821,0.157-2.303,0.165-2.431C127.621,68.024,127.631,68.044,127.577,68.015z"/>
    <polygon class="st7-dt" points="96.78,91.966 87.751,82.937 88.837,81.851 96.78,89.794 111.163,75.412 112.249,76.498 	"/>
  </g>
  <g transform="translate(1760, 0)">
    <path class="st18-lt" d="M99.708,166.539l-0.395-0.102l-0.94-0.445c-10.132-4.799-18.098-14.374-22.431-26.958
      c-0.126-0.454-2.794-10.168-3.122-14.981l-0.199-2.777l0.972-0.557l5.352-2.94c4.497-2.47,11.508-6.321,15.374-8.428
      c3.968-2.161,4.652-2.506,4.893-2.615l0.118-0.096l0.521-0.007l0.141,0.105c0.323,0.15,1.139,0.568,4.892,2.612
      c3.866,2.107,10.877,5.958,15.374,8.428l1.694,0.931c3.26,1.791,4.004,2.199,4.175,2.292l0.453,0.215l-0.197,2.837
      c-0.345,5.058-1.366,10.098-3.035,14.979l-0.22,0.479c-4.137,11.692-11.528,20.828-20.852,25.758l-0.169,0.089
      c-0.41,0.217-0.821,0.434-1.244,0.634L99.708,166.539z M74.106,122.056l0.13,1.9c0.319,4.672,3.033,14.558,3.061,14.658
      c4.194,12.179,11.899,21.461,21.683,26.095l0.638,0.302l0.639-0.302c0.403-0.191,0.796-0.399,1.187-0.605l0.17-0.09
      c9.13-4.827,16.353-13.863,20.339-25.443l0.215-0.478c1.533-4.614,2.474-9.367,2.799-14.137l0.13-1.9
      c-0.478-0.263-1.525-0.838-3.828-2.102l-1.694-0.931c-4.496-2.47-11.506-6.32-15.37-8.425c-3.157-1.72-4.211-2.277-4.605-2.475
      c-0.366,0.186-1.407,0.733-4.602,2.475c-3.864,2.105-10.874,5.956-15.37,8.425L74.106,122.056z"/>
    <polygon class="st18-lt" points="111.071,129.645 109.68,128.254 95.83,142.103 89.524,135.797 88.133,137.188 95.83,144.885 		"/>
    <path class="st39-lt" d="M148.884,134.533h8.034c18.126,0,32.82-14.694,32.82-32.82c0-16.519-12.206-30.182-28.089-32.476
    	c1.459-4.178,2.261-8.663,2.261-13.338c0-22.349-18.118-40.467-40.467-40.467c-18.065,0-33.361,11.84-38.562,28.182H55.722
    	c-25.106,0-45.459,20.353-45.459,45.459v0c0,23.032,17.129,42.064,39.343,45.051"/>
    <circle class="st15-lt" cx="99.524" cy="134.864" r="49.703"/>
  </g>
  <g transform="translate(1760, 220)">
    <path class="st18-dt" d="M99.708,166.539l-0.395-0.102l-0.94-0.445c-10.132-4.799-18.098-14.374-22.431-26.958
      c-0.126-0.454-2.794-10.168-3.122-14.981l-0.199-2.777l0.972-0.557l5.352-2.94c4.497-2.47,11.508-6.321,15.374-8.428
      c3.968-2.161,4.652-2.506,4.893-2.615l0.118-0.096l0.521-0.007l0.141,0.105c0.323,0.15,1.139,0.568,4.892,2.612
      c3.866,2.107,10.877,5.958,15.374,8.428l1.694,0.931c3.26,1.791,4.004,2.199,4.175,2.292l0.453,0.215l-0.197,2.837
      c-0.345,5.058-1.366,10.098-3.035,14.979l-0.22,0.479c-4.137,11.692-11.528,20.828-20.852,25.758l-0.169,0.089
      c-0.41,0.217-0.821,0.434-1.244,0.634L99.708,166.539z M74.106,122.056l0.13,1.9c0.319,4.672,3.033,14.558,3.061,14.658
      c4.194,12.179,11.899,21.461,21.683,26.095l0.638,0.302l0.639-0.302c0.403-0.191,0.796-0.399,1.187-0.605l0.17-0.09
      c9.13-4.827,16.353-13.863,20.339-25.443l0.215-0.478c1.533-4.614,2.474-9.367,2.799-14.137l0.13-1.9
      c-0.478-0.263-1.525-0.838-3.828-2.102l-1.694-0.931c-4.496-2.47-11.506-6.32-15.37-8.425c-3.157-1.72-4.211-2.277-4.605-2.475
      c-0.366,0.186-1.407,0.733-4.602,2.475c-3.864,2.105-10.874,5.956-15.37,8.425L74.106,122.056z"/>
    <polygon class="st18-dt" points="111.071,129.645 109.68,128.254 95.83,142.103 89.524,135.797 88.133,137.188 95.83,144.885 		"/>
    <path class="st39-dt" d="M148.884,134.533h8.034c18.126,0,32.82-14.694,32.82-32.82c0-16.519-12.206-30.182-28.089-32.476
    	c1.459-4.178,2.261-8.663,2.261-13.338c0-22.349-18.118-40.467-40.467-40.467c-18.065,0-33.361,11.84-38.562,28.182H55.722
    	c-25.106,0-45.459,20.353-45.459,45.459v0c0,23.032,17.129,42.064,39.343,45.051"/>
    <circle class="st15-dt" cx="99.524" cy="134.864" r="49.703"/>
  </g>
  <g transform="translate(1980, 0)"> 
    <rect x="82.505" y="163.059" class="st22-lt" width="37.515" height="11.125"/>
    <rect x="87.982" y="179.272" class="st22-lt" width="26.562" height="8.258"/>
    <line class="st19-lt" x1="101.263" y1="16.187" x2="101.263" y2="28.76"/>
    <line class="st19-lt" x1="61.474" y1="31.138" x2="70.455" y2="40.119"/>
    <line class="st19-lt" x1="141.051" y1="31.138" x2="132.07" y2="40.119"/>
    <path class="st22-lt" d="M159.475,98.221c0,31.445-26.063,56.937-58.213,56.937c-32.15,0-58.213-25.492-58.213-56.937"/>
    <path class="st3-lt" d="M43.05,99.575c0-31.445,26.063-56.937,58.213-56.937c32.15,0,58.213,25.492,58.213,56.937"/>
  </g>
  <g transform="translate(1980, 220)">
    <rect x="82.505" y="163.059" class="st22-dt" width="37.515" height="11.125"/>
    <rect x="87.982" y="179.272" class="st22-dt" width="26.562" height="8.258"/>
    <line class="st19-dt" x1="101.263" y1="16.187" x2="101.263" y2="28.76"/>
    <line class="st19-dt" x1="61.474" y1="31.138" x2="70.455" y2="40.119"/>
    <line class="st19-dt" x1="141.051" y1="31.138" x2="132.07" y2="40.119"/>
    <path class="st22-dt" d="M159.475,98.221c0,31.445-26.063,56.937-58.213,56.937c-32.15,0-58.213-25.492-58.213-56.937"/>
    <path class="st3-dt" d="M43.05,99.575c0-31.445,26.063-56.937,58.213-56.937c32.15,0,58.213,25.492,58.213,56.937"/>
  </g>
  <g transform="translate(2200, 0)">
    <polyline class="st19-lt" points="124.375,33.761 161.787,33.761 161.787,187.506 38.213,187.506 38.213,33.761 74.512,33.761 	"/>
    <rect x="58.324" y="147.279" class="st7-lt" width="80.566" height="2.123"/>
    <rect x="58.324" y="164.687" class="st7-lt" width="80.566" height="2.123"/>
    <path class="st10-lt" d="M128.961,44.131c-0.731-3.828-2.232-7.536-4.493-10.884l4.363-4.363l-7.957-7.957l-4.363,4.363
      c-3.348-2.261-7.056-3.761-10.884-4.493V14.61H94.374v6.217c-3.807,0.749-7.492,2.262-10.819,4.527l-4.429-4.428l-7.957,7.957
      l4.457,4.457c-2.225,3.323-3.703,6.998-4.428,10.79h-6.345v5.377v0.124v5.377h6.345c0.724,3.792,2.203,7.467,4.428,10.79
      l-4.457,4.457l7.957,7.957l4.429-4.428c3.326,2.265,7.011,3.777,10.819,4.527v6.217h11.253v-6.186
      c3.828-0.732,7.536-2.232,10.884-4.493l4.363,4.363l7.957-7.957l-4.363-4.363c2.261-3.348,3.762-7.056,4.493-10.884h6.186v-5.377
      v-0.124v-5.377H128.961z M112.256,61.616c-6.713,6.713-17.598,6.713-24.311,0c-3.329-3.329-5.005-7.684-5.032-12.047
      c0.027-4.363,1.703-8.718,5.032-12.047c6.713-6.713,17.598-6.713,24.311,0c3.329,3.329,5.005,7.684,5.032,12.047
      C117.261,53.932,115.585,58.287,112.256,61.616z"/>
    <rect x="58.324" y="126.141" class="st7-lt" width="80.566" height="2.123"/>
  </g>
  <g transform="translate(2200, 220)">
    <polyline class="st19-dt" points="124.375,33.761 161.787,33.761 161.787,187.506 38.213,187.506 38.213,33.761 74.512,33.761 	"/>
    <rect x="58.324" y="147.279" class="st7-dt" width="80.566" height="2.123"/>
    <rect x="58.324" y="164.687" class="st7-dt" width="80.566" height="2.123"/>
    <path class="st10-dt" d="M128.961,44.131c-0.731-3.828-2.232-7.536-4.493-10.884l4.363-4.363l-7.957-7.957l-4.363,4.363
      c-3.348-2.261-7.056-3.761-10.884-4.493V14.61H94.374v6.217c-3.807,0.749-7.492,2.262-10.819,4.527l-4.429-4.428l-7.957,7.957
      l4.457,4.457c-2.225,3.323-3.703,6.998-4.428,10.79h-6.345v5.377v0.124v5.377h6.345c0.724,3.792,2.203,7.467,4.428,10.79
      l-4.457,4.457l7.957,7.957l4.429-4.428c3.326,2.265,7.011,3.777,10.819,4.527v6.217h11.253v-6.186
      c3.828-0.732,7.536-2.232,10.884-4.493l4.363,4.363l7.957-7.957l-4.363-4.363c2.261-3.348,3.762-7.056,4.493-10.884h6.186v-5.377
      v-0.124v-5.377H128.961z M112.256,61.616c-6.713,6.713-17.598,6.713-24.311,0c-3.329-3.329-5.005-7.684-5.032-12.047
      c0.027-4.363,1.703-8.718,5.032-12.047c6.713-6.713,17.598-6.713,24.311,0c3.329,3.329,5.005,7.684,5.032,12.047
      C117.261,53.932,115.585,58.287,112.256,61.616z"/>
    <rect x="58.324" y="126.141" class="st7-dt" width="80.566" height="2.123"/>
  </g>
  <g transform="translate(2420, 0)">
    <line class="st19-lt" x1="99.651" y1="32.996" x2="99.651" y2="18.824"/>
    <line class="st19-lt" x1="124.657" y1="18.824" x2="74.645" y2="18.824"/>
    <path class="st20-lt" d="M173.806,109.026c0.013-0.567,0.043-1.129,0.043-1.699c0-0.027-0.002-0.054-0.002-0.081
      c0.058-18.974-7.15-37.965-21.627-52.442c-28.84-28.84-75.598-28.84-104.438,0C34.116,68.47,26.937,86.161,26.223,104.062
      c-0.012,0.285-0.011,0.574-0.02,0.86c-0.021,0.738-0.048,1.476-0.048,2.215c0,0.064-0.004,0.126-0.004,0.19
      c0,40.786,33.063,73.849,73.849,73.849c39.788,0,72.21-31.469,73.774-70.873C173.793,109.877,173.795,109.451,173.806,109.026z"/>
    <path class="st20-lt" d="M136.56,62.238c-19.807-19.807-51.92-19.807-71.726,0"/>
    <path class="st20-lt" d="M126.525,71.614c-14.265-14.265-37.392-14.265-51.657,0"/>
    <path class="st20-lt" d="M116.88,81.472c-8.938-8.938-23.428-8.938-32.366,0"/>
    <circle class="st19-lt" cx="99.822" cy="108.468" r="10.19"/>
    <line class="st19-lt" x1="151.383" y1="68.138" x2="108.16" y2="101.946"/>
  </g>
  <g transform="translate(2420, 220)">
    <line class="st19-dt" x1="99.651" y1="32.996" x2="99.651" y2="18.824"/>
    <line class="st19-dt" x1="124.657" y1="18.824" x2="74.645" y2="18.824"/>
    <path class="st20-dt" d="M173.806,109.026c0.013-0.567,0.043-1.129,0.043-1.699c0-0.027-0.002-0.054-0.002-0.081
      c0.058-18.974-7.15-37.965-21.627-52.442c-28.84-28.84-75.598-28.84-104.438,0C34.116,68.47,26.937,86.161,26.223,104.062
      c-0.012,0.285-0.011,0.574-0.02,0.86c-0.021,0.738-0.048,1.476-0.048,2.215c0,0.064-0.004,0.126-0.004,0.19
      c0,40.786,33.063,73.849,73.849,73.849c39.788,0,72.21-31.469,73.774-70.873C173.793,109.877,173.795,109.451,173.806,109.026z"/>
    <path class="st20-dt" d="M136.56,62.238c-19.807-19.807-51.92-19.807-71.726,0"/>
    <path class="st20-dt" d="M126.525,71.614c-14.265-14.265-37.392-14.265-51.657,0"/>
    <path class="st20-dt" d="M116.88,81.472c-8.938-8.938-23.428-8.938-32.366,0"/>
    <circle class="st19-dt" cx="99.822" cy="108.468" r="10.19"/>
    <line class="st19-dt" x1="151.383" y1="68.138" x2="108.16" y2="101.946"/>
  </g>
  <g transform="translate(2420, 440)">
    <line class="st19-lt wider-stroke" x1="99.651" y1="32.996" x2="99.651" y2="18.824"/>
    <line class="st19-lt wider-stroke" x1="124.657" y1="18.824" x2="74.645" y2="18.824"/>
    <path class="st20 wider-stroke" d="M173.806,109.026c0.013-0.567,0.043-1.129,0.043-1.699c0-0.027-0.002-0.054-0.002-0.081
      c0.058-18.974-7.15-37.965-21.627-52.442c-28.84-28.84-75.598-28.84-104.438,0C34.116,68.47,26.937,86.161,26.223,104.062
      c-0.012,0.285-0.011,0.574-0.02,0.86c-0.021,0.738-0.048,1.476-0.048,2.215c0,0.064-0.004,0.126-0.004,0.19
      c0,40.786,33.063,73.849,73.849,73.849c39.788,0,72.21-31.469,73.774-70.873C173.793,109.877,173.795,109.451,173.806,109.026z"/>
    <path class="st20 wider-stroke" d="M136.56,62.238c-19.807-19.807-51.92-19.807-71.726,0"/>
    <path class="st20 wider-stroke" d="M126.525,71.614c-14.265-14.265-37.392-14.265-51.657,0"/>
    <path class="st20 wider-stroke" d="M116.88,81.472c-8.938-8.938-23.428-8.938-32.366,0"/>
    <circle class="st19-lt wider-stroke" cx="99.822" cy="108.468" r="10.19"/>
    <line class="st19-lt wider-stroke" x1="151.383" y1="68.138" x2="108.16" y2="101.946"/>
  </g>
  <g transform="translate(2640, 0)">
  	<rect x="37.333" y="146.147" class="st15-lt" width="130.667" height="40.837"/>
  	<rect x="37.333" y="15.473" class="st6-lt" width="130.667" height="130.667"/>
  	<line class="st23-lt" x1="102.667" y1="45.556" x2="102.667" y2="116.477"/>
  	<line class="st15-lt" x1="67.206" y1="166.103" x2="138.127" y2="166.103"/>
  	<polyline class="st23-lt" points="122.574,96.569 102.667,116.477 82.759,96.569 	"/>
  </g>
  <g transform="translate(2640, 220)">
  	<rect x="37.333" y="146.147" class="st15-dt" width="130.667" height="40.837"/>
  	<rect x="37.333" y="15.473" class="st6-dt" width="130.667" height="130.667"/>
  	<line class="st23-dt" x1="102.667" y1="45.556" x2="102.667" y2="116.477"/>
  	<line class="st15-dt" x1="67.206" y1="166.103" x2="138.127" y2="166.103"/>
  	<polyline class="st23-dt" points="122.574,96.569 102.667,116.477 82.759,96.569 	"/>
  </g>
</svg>