<svg id="wazuh-icons-sprite" version="1.1" xmlns="http://www.w3.org/2000/svg" xmlns:xlink="http://www.w3.org/1999/xlink" xml:space="preserve">
  <style type="text/css">
    .getting-started-01-dt{fill:#FFFFFF;stroke-width:2.5}
    .getting-started-02-dt{fill-rule:evenodd;clip-rule:evenodd;fill:none;stroke:#FFFFFF;stroke-miterlimit:10;stroke-width:2}
    .getting-started-03-dt{fill-rule:evenodd;clip-rule:evenodd;fill:none;stroke:#499CFE;stroke-linecap:round;stroke-linejoin:round;stroke-miterlimit:10;stroke-width:2.5}
    .getting-started-01-lt{fill:#050505;stroke-width:2.5}
    .getting-started-02-lt{fill-rule:evenodd;clip-rule:evenodd;fill:none;stroke:#050505;stroke-miterlimit:10;stroke-width:2}
    .getting-started-03-lt{fill-rule:evenodd;clip-rule:evenodd;fill:none;stroke:#256BD1;stroke-linecap:round;stroke-linejoin:round;stroke-miterlimit:10;stroke-width:2.5}
    .installation-guide-01-lt{fill:none;stroke:#050505;stroke-miterlimit:10;stroke-width:2}
    .installation-guide-02-lt{fill:none;stroke:#256BD1;stroke-linecap:round;stroke-linejoin:round;stroke-miterlimit:10;stroke-width:2.5}
    .installation-guide-01-dt{fill:none;stroke:#FFFFFF;stroke-miterlimit:10;stroke-width:2}
    .installation-guide-02-dt{fill:none;stroke:#499CFE;stroke-linecap:round;stroke-linejoin:round;stroke-miterlimit:10;stroke-width:2.5}
    .upgrade-guide-01-lt{fill:none;stroke:#000000;stroke-linecap:round;stroke-linejoin:round;stroke-miterlimit:10;stroke-width:2}
    .upgrade-guide-01-dt{fill:none;stroke:#FFFFFF;stroke-linecap:round;stroke-linejoin:round;stroke-miterlimit:10;stroke-width:2}
    .user-manual-01-lt{fill:none;stroke:#256BD1;stroke-miterlimit:10;stroke-width:2.5}
    .user-manual-01-dt{fill:none;stroke:#499CFE;stroke-miterlimit:10;stroke-width:2.5}
    .cloud-service-01-lt{fill:none;stroke:#000000;stroke-miterlimit:10;stroke-width:2}
    .poc-guide-01-lt{fill-rule:evenodd;clip-rule:evenodd;fill:none;stroke:#000000;stroke-miterlimit:10;stroke-width:2}
    .monitoring-01-lt{fill:none;stroke:#050505;stroke-miterlimit:10;stroke-width:1}
    .monitoring-01-dt{fill:none;stroke:#FFFFFF;stroke-miterlimit:10;stroke-width:1}
    .monitoring-02-lt{fill:none;stroke:#050505;stroke-width:1.5;stroke-miterlimit:10;}
    .monitoring-02-dt{fill:none;stroke:#FFFFFF;stroke-width:1.5;stroke-miterlimit:10;}
    .release-notes-01-lt{fill:none;stroke:#256BD1;stroke-width:1.5;stroke-linecap:round;stroke-linejoin:round;stroke-miterlimit:10;}
    .release-notes-01-dt{fill:none;stroke:#499CFE;stroke-width:1.5;stroke-linecap:round;stroke-linejoin:round;stroke-miterlimit:10;}
  </style>
  <view id="getting-started-lt" viewBox="0 0 200 200"/>
  <view id="getting-started-dt" viewBox="0 220 200 200"/>
  <view id="installation-guide-lt" viewBox="220 0 200 200"/>
  <view id="installation-guide-dt" viewBox="220 220 200 200"/>
  <view id="upgrade-guide-lt" viewBox="440 0 200 200"/>
  <view id="upgrade-guide-dt" viewBox="440 220 200 200"/>
  <view id="user-manual-lt" viewBox="660 0 200 200"/>
  <view id="user-manual-dt" viewBox="660 220 200 200"/>
  <view id="cloud-service-lt" viewBox="880 0 200 200"/>
  <view id="cloud-service-dt" viewBox="880 220 200 200"/>
  <view id="containers-lt" viewBox="1100 0 200 200"/>
  <view id="containers-dt" viewBox="1100 220 200 200"/>
  <view id="deployment-lt" viewBox="1320 0 200 200"/>
  <view id="deployment-dt" viewBox="1320 220 200 200"/>
  <view id="compliance-lt" viewBox="1540 0 200 200"/>
  <view id="compliance-dt" viewBox="1540 220 200 200"/>
  <view id="monitoring-lt" viewBox="1760 0 200 200"/>
  <view id="monitoring-dt" viewBox="1760 220 200 200"/>
  <view id="poc-guide-lt" viewBox="1980 0 200 200"/>
  <view id="poc-guide-dt" viewBox="1980 220 200 200"/>
  <view id="release-notes-lt" viewBox="2200 0 200 200"/>
  <view id="release-notes-dt" viewBox="2200 220 200 200"/>
  <g>
    <path class="getting-started-02-lt" d="M51.439,83.046c0,0.023,0.002,0.044,0.002,0.067h-0.002v82.433l49.007-20.724l48.147,20.724V83.113h-0.002
      c0-0.023,0.002-0.044,0.002-0.067"/>
    <path class="getting-started-03-lt" d="M100,34.454c-26.837,0-48.593,21.756-48.593,48.593"/>
    <path class="getting-started-03-lt" d="M148.568,83.046c0-26.837-21.756-48.593-48.593-48.593"/>
    <path class="getting-started-03-lt" d="M99.976,131.859c26.837,0,48.593-21.756,48.593-48.593"/>
    <path class="getting-started-03-lt" d="M51.407,83.267c0,26.837,21.756,48.593,48.593,48.593"/>
    <path class="getting-started-01-lt" d="M117.14,82.862c-0.747-5.343-3.574-9.493-8.404-12.335c-0.223,0.777-0.477,1.53-0.756,2.243
      c-0.057,0.145-0.066,0.217-0.068,0.242c0.011,0.001,0.069,0.065,0.226,0.166c4.243,2.711,6.461,6.719,6.593,11.91l0.001,0.051
      l-0.005,0.051c-0.017,0.199-0.028,0.409-0.04,0.624c-0.029,0.519-0.061,1.107-0.173,1.693
      c-1.333,6.973-7.091,11.602-14.299,11.523c-3.835-0.043-7.67-1.895-10.26-4.955c-2.625-3.102-3.708-7.135-3.048-11.354
      c0.64-4.096,2.799-7.313,6.415-9.561c0.12-0.074,0.183-0.127,0.213-0.155c-0.006-0.03-0.02-0.08-0.049-0.155
      c-0.286-0.728-0.548-1.506-0.78-2.316c-6.145,3.759-8.987,9.148-8.448,16.02c0.369,4.694,2.773,9.002,6.598,11.821
      c3.89,2.867,8.82,3.902,13.528,2.839C112.711,99.331,118.315,91.271,117.14,82.862z"/>
    <path class="getting-started-01-lt" d="M99.015,64.604c0.009,4.346,0.009,8.692,0.001,13.038c0.603-0.012,1.201-0.021,1.795-0.021
      c0.544,0,1.085,0.008,1.626,0.029c-0.024-1.519-0.019-3.057-0.015-4.545l0.004-1.884l-0.002-1.919
      c-0.003-1.567-0.005-3.134,0.008-4.701C101.233,64.633,100.05,64.621,99.015,64.604z"/>
  </g>
  <g transform="translate(0, 220)">
    <path class="getting-started-02-dt" d="M51.439,83.046c0,0.023,0.002,0.044,0.002,0.067h-0.002v82.433l49.007-20.724l48.147,20.724V83.113h-0.002
      c0-0.023,0.002-0.044,0.002-0.067"/>
      <path class="getting-started-03-dt" d="M100,34.454c-26.837,0-48.593,21.756-48.593,48.593"/>
      <path class="getting-started-03-dt" d="M148.568,83.046c0-26.837-21.756-48.593-48.593-48.593"/>
      <path class="getting-started-03-dt" d="M99.976,131.859c26.837,0,48.593-21.756,48.593-48.593"/>
      <path class="getting-started-03-dt" d="M51.407,83.267c0,26.837,21.756,48.593,48.593,48.593"/>
      <path class="getting-started-01-dt" d="M117.14,82.862c-0.747-5.343-3.574-9.493-8.404-12.335c-0.223,0.777-0.477,1.53-0.756,2.243
        c-0.057,0.145-0.066,0.217-0.068,0.242c0.011,0.001,0.069,0.065,0.226,0.166c4.243,2.711,6.461,6.719,6.593,11.91l0.001,0.051
        l-0.005,0.051c-0.017,0.199-0.028,0.409-0.04,0.624c-0.029,0.519-0.061,1.107-0.173,1.693
        c-1.333,6.973-7.091,11.602-14.299,11.523c-3.835-0.043-7.67-1.895-10.26-4.955c-2.625-3.102-3.708-7.135-3.048-11.354
        c0.64-4.096,2.799-7.313,6.415-9.561c0.12-0.074,0.183-0.127,0.213-0.155c-0.006-0.03-0.02-0.08-0.049-0.155
        c-0.286-0.728-0.548-1.506-0.78-2.316c-6.145,3.759-8.987,9.148-8.448,16.02c0.369,4.694,2.773,9.002,6.598,11.821
        c3.89,2.867,8.82,3.902,13.528,2.839C112.711,99.331,118.315,91.271,117.14,82.862z"/>
      <path class="getting-started-01-dt" d="M99.015,64.604c0.009,4.346,0.009,8.692,0.001,13.038c0.603-0.012,1.201-0.021,1.795-0.021
        c0.544,0,1.085,0.008,1.626,0.029c-0.024-1.519-0.019-3.057-0.015-4.545l0.004-1.884l-0.002-1.919
        c-0.003-1.567-0.005-3.134,0.008-4.701C101.233,64.633,100.05,64.621,99.015,64.604z"/>
  </g>
  <g transform="translate(220, 0)">
    <polyline class="installation-guide-01-lt" points="157.642,94.151 157.642,170.548 42.408,170.548 42.408,94.151 	"/>
    <path class="installation-guide-02-lt" d="M147.496,77.867c-1.199-6.278-3.661-12.359-7.369-17.85l7.156-7.156l-13.05-13.05l-7.156,7.156
      c-5.491-3.708-11.573-6.168-17.851-7.368V29.452H90.772v10.197c-6.244,1.229-12.288,3.709-17.743,7.424l-7.263-7.263l-13.05,13.05
      l7.31,7.31c-3.649,5.45-6.074,11.477-7.262,17.696H42.358v8.818v0.203v8.818h10.406c1.188,6.219,3.613,12.246,7.262,17.696
      l-7.31,7.31l13.05,13.05l7.263-7.263c5.455,3.715,11.499,6.195,17.743,7.424v10.197h18.455v-10.145
      c6.278-1.2,12.36-3.66,17.851-7.368l7.156,7.156l13.05-13.05l-7.156-7.156c3.707-5.491,6.169-11.572,7.369-17.85h10.145v-8.818
      v-0.203v-8.818H147.496z M120.101,106.544c-11.01,11.01-28.861,11.01-39.871,0c-5.46-5.46-8.208-12.602-8.253-19.758
      c0.045-7.156,2.793-14.298,8.253-19.758c11.01-11.01,28.861-11.01,39.871,0c5.46,5.46,8.208,12.602,8.253,19.758
      C128.309,93.942,125.561,101.084,120.101,106.544z"/>
    <polyline class="installation-guide-01-lt" points="87.938,85.542 96.938,94.543 112.77,78.712 	"/>
  </g>
  <g transform="translate(220, 220)">
    <polyline class="installation-guide-01-dt" points="157.642,94.151 157.642,170.548 42.408,170.548 42.408,94.151 	"/>
    <path class="installation-guide-02-dt" d="M147.496,77.867c-1.199-6.278-3.661-12.359-7.369-17.85l7.156-7.156l-13.05-13.05l-7.156,7.156
      c-5.491-3.708-11.573-6.168-17.851-7.368V29.452H90.772v10.197c-6.244,1.229-12.288,3.709-17.743,7.424l-7.263-7.263l-13.05,13.05
      l7.31,7.31c-3.649,5.45-6.074,11.477-7.262,17.696H42.358v8.818v0.203v8.818h10.406c1.188,6.219,3.613,12.246,7.262,17.696
      l-7.31,7.31l13.05,13.05l7.263-7.263c5.455,3.715,11.499,6.195,17.743,7.424v10.197h18.455v-10.145
      c6.278-1.2,12.36-3.66,17.851-7.368l7.156,7.156l13.05-13.05l-7.156-7.156c3.707-5.491,6.169-11.572,7.369-17.85h10.145v-8.818
      v-0.203v-8.818H147.496z M120.101,106.544c-11.01,11.01-28.861,11.01-39.871,0c-5.46-5.46-8.208-12.602-8.253-19.758
      c0.045-7.156,2.793-14.298,8.253-19.758c11.01-11.01,28.861-11.01,39.871,0c5.46,5.46,8.208,12.602,8.253,19.758
      C128.309,93.942,125.561,101.084,120.101,106.544z"/>
    <polyline class="installation-guide-01-dt" points="87.938,85.542 96.938,94.543 112.77,78.712 	"/>
  </g>
  <g transform="translate(440, 0)">
    <g>
      <g>
        <polygon class="getting-started-01-lt" points="112.912,105.127 110.351,104.85 111.004,98.846 105.001,98.193 105.28,95.632 113.843,96.565 		"/>
      </g>
      <g>
        <path class="getting-started-01-lt" d="M116.594,93.313l-2.392-0.953c2.266-5.685,0.934-12.154-3.392-16.481c-2.887-2.887-6.726-4.477-10.81-4.477
          c-4.083,0-7.922,1.59-10.81,4.477l-1.821-1.821c3.374-3.374,7.86-5.232,12.631-5.232c4.772,0,9.257,1.858,12.631,5.232
          C117.686,79.113,119.242,86.671,116.594,93.313z"/>
      </g>
      <g>
        <path class="getting-started-01-lt" d="M100,104.552c-4.771,0-9.257-1.858-12.631-5.232c-5.055-5.055-6.611-12.614-3.962-19.255l2.392,0.954
          c-2.266,5.684-0.935,12.153,3.392,16.48c2.887,2.887,6.727,4.477,10.81,4.477c4.084,0,7.922-1.59,10.81-4.477l1.821,1.821
          C109.257,102.694,104.771,104.552,100,104.552z"/>
      </g>
      <g>
        <polygon class="getting-started-01-lt" points="94.72,77.745 86.157,76.813 87.088,68.25 89.648,68.528 88.995,74.532 94.999,75.185 		"/>
      </g>
    </g>
    <g>
    	<path class="upgrade-guide-01-lt" d="M157.552,84.564c0.022,0.65,0.049,1.299,0.049,1.954c0,31.812-25.789,57.602-57.601,57.602
    		s-57.601-25.789-57.601-57.602c0-0.655,0.028-1.304,0.049-1.954h-0.226v86.519h115.556V84.564H157.552z"/>
    	<path class="installation-guide-02-lt" d="M100,144.12c31.812,0,57.601-25.789,57.601-57.602c0-0.655-0.028-1.304-0.049-1.954
    		C156.52,53.659,131.157,28.917,100,28.917S43.48,53.659,42.448,84.564c-0.022,0.65-0.049,1.299-0.049,1.954
    		C42.399,118.331,68.188,144.12,100,144.12z"/>
    </g>
  </g>
  <g transform="translate(440, 220)">
    <g>
      <g>
        <polygon class="getting-started-01-dt" points="112.912,105.127 110.351,104.85 111.004,98.846 105.001,98.193 105.28,95.632 113.843,96.565 		"/>
      </g>
      <g>
        <path class="getting-started-01-dt" d="M116.594,93.313l-2.392-0.953c2.266-5.685,0.934-12.154-3.392-16.481c-2.887-2.887-6.726-4.477-10.81-4.477
          c-4.083,0-7.922,1.59-10.81,4.477l-1.821-1.821c3.374-3.374,7.86-5.232,12.631-5.232c4.772,0,9.257,1.858,12.631,5.232
          C117.686,79.113,119.242,86.671,116.594,93.313z"/>
      </g>
      <g>
        <path class="getting-started-01-dt" d="M100,104.552c-4.771,0-9.257-1.858-12.631-5.232c-5.055-5.055-6.611-12.614-3.962-19.255l2.392,0.954
          c-2.266,5.684-0.935,12.153,3.392,16.48c2.887,2.887,6.727,4.477,10.81,4.477c4.084,0,7.922-1.59,10.81-4.477l1.821,1.821
          C109.257,102.694,104.771,104.552,100,104.552z"/>
      </g>
      <g>
        <polygon class="getting-started-01-dt" points="94.72,77.745 86.157,76.813 87.088,68.25 89.648,68.528 88.995,74.532 94.999,75.185 		"/>
      </g>
    </g>
    <g>
      <path class="upgrade-guide-01-dt" d="M157.552,84.564c0.022,0.65,0.049,1.299,0.049,1.954c0,31.812-25.789,57.602-57.601,57.602
        s-57.601-25.789-57.601-57.602c0-0.655,0.028-1.304,0.049-1.954h-0.226v86.519h115.556V84.564H157.552z"/>
      <path class="installation-guide-02-dt" d="M100,144.12c31.812,0,57.601-25.789,57.601-57.602c0-0.655-0.028-1.304-0.049-1.954
        C156.52,53.659,131.157,28.917,100,28.917S43.48,53.659,42.448,84.564c-0.022,0.65-0.049,1.299-0.049,1.954
        C42.399,118.331,68.188,144.12,100,144.12z"/>
    </g>
  </g>
  <g transform="translate(660, 0)">
    <polygon class="user-manual-01-lt" points="124.653,60.228 157.22,60.228 124.653,27.661 "/>
    <rect x="94.894" y="83.43" class="getting-started-01-lt" width="40.741" height="2"/>
    <polygon class="getting-started-01-lt" points="88.098,75.556 86.683,74.142 72.604,88.222 66.193,81.81 64.779,83.224 72.604,91.05 "/>
    <rect x="94.894" y="114.82" class="getting-started-01-lt" width="40.741" height="2"/>
    <polygon class="getting-started-01-lt" points="88.098,106.946 86.683,105.532 72.604,119.611 66.193,113.2 64.779,114.614 72.604,122.439 "/>
    <rect x="94.894" y="146.21" class="getting-started-01-lt" width="40.741" height="2"/>
    <polygon class="getting-started-01-lt" points="88.098,138.337 86.683,136.923 72.604,151.002 66.193,144.591 64.779,146.005 72.604,153.83 "/>
    <rect x="41.787" y="26.468" class="user-manual-01-lt" width="116.426" height="147.064"/>
    <polyline class="cloud-service-01-lt" points="123.773,26.468 158.213,26.468 158.213,61.064 "/>
  </g>
  <g transform="translate(660, 220)">
    <polygon class="user-manual-01-lt" points="124.653,60.228 157.22,60.228 124.653,27.661 	"/>
    <rect x="94.894" y="83.43" class="getting-started-01-dt" width="40.741" height="2"/>
    <polygon class="getting-started-01-dt" points="88.098,75.556 86.683,74.142 72.604,88.222 66.193,81.81 64.779,83.224 72.604,91.05 	"/>
    <rect x="94.894" y="114.82" class="getting-started-01-dt" width="40.741" height="2"/>
    <polygon class="getting-started-01-dt" points="88.098,106.946 86.683,105.532 72.604,119.611 66.193,113.2 64.779,114.614 72.604,122.439 	"/>
    <rect x="94.894" y="146.21" class="getting-started-01-dt" width="40.741" height="2"/>
    <polygon class="getting-started-01-dt" points="88.098,138.337 86.683,136.923 72.604,151.002 66.193,144.591 64.779,146.005 72.604,153.83 	"/>
    <rect x="41.787" y="26.468" class="user-manual-01-dt" width="116.426" height="147.064"/>
    <polyline class="installation-guide-01-dt" points="123.773,26.468 158.213,26.468 158.213,61.064 	"/>
  </g>
  <g transform="translate(880, 0)">
    <path class="installation-guide-02-lt" d="M147.618,81.846c-2.274-1.214-4.782-2.042-7.436-2.388c0.4-1.491,0.667-3.034,0.814-4.612
      c0.078-0.841,0.132-1.689,0.132-2.551c0-15.216-12.335-27.551-27.551-27.551c-9.243,0-17.403,4.566-22.399,11.551
      c-2.07,2.894-3.61,6.195-4.437,9.773H69.25c-15.701,0-28.547,12.846-28.547,28.546c0,0.856,0.045,1.702,0.12,2.539
      c1.296,14.522,13.582,26.008,28.427,26.008h0.243V93.825h61.014v29.338h6.843c11.771,0,21.428-9.398,21.902-21.058
      c0.012-0.297,0.045-0.589,0.045-0.889C159.297,92.849,154.55,85.544,147.618,81.846z"/>
    <polyline class="cloud-service-01-lt" points="69.493,123.163 69.493,155.255 130.507,155.255 130.507,123.163 	"/>
    <g>
      <path class="installation-guide-01-lt" d="M86.395,123.356v-5.017c0-9.187,7.447-16.634,16.634-16.634h0c9.187,0,16.634,7.447,16.634,16.634v7.463
        c0,7.871-5.467,14.466-12.812,16.193"/>
      <path class="installation-guide-01-lt" d="M79.782,134.491h6.613v-14.808h-6.613c-0.789,0-1.428,0.639-1.428,1.428v11.953
        C78.354,133.852,78.993,134.491,79.782,134.491z"/>
      <circle class="installation-guide-01-lt" cx="103.029" cy="142.179" r="3.866"/>
    </g>
  </g>
  <g transform="translate(880, 220)">
    <path class="installation-guide-02-dt" d="M147.618,81.846c-2.274-1.214-4.782-2.042-7.436-2.388c0.4-1.491,0.667-3.034,0.814-4.612
      c0.078-0.841,0.132-1.689,0.132-2.551c0-15.216-12.335-27.551-27.551-27.551c-9.243,0-17.403,4.566-22.399,11.551
      c-2.07,2.894-3.61,6.195-4.437,9.773H69.25c-15.701,0-28.547,12.846-28.547,28.546c0,0.856,0.045,1.702,0.12,2.539
      c1.296,14.522,13.582,26.008,28.427,26.008h0.243V93.825h61.014v29.338h6.843c11.771,0,21.428-9.398,21.902-21.058
      c0.012-0.297,0.045-0.589,0.045-0.889C159.297,92.849,154.55,85.544,147.618,81.846z"/>
    <polyline class="installation-guide-01-dt" points="69.493,123.163 69.493,155.255 130.507,155.255 130.507,123.163 	"/>
    <g>
      <path class="installation-guide-01-dt" d="M86.395,123.356v-5.017c0-9.187,7.447-16.634,16.634-16.634h0c9.187,0,16.634,7.447,16.634,16.634v7.463
        c0,7.871-5.467,14.466-12.812,16.193"/>
      <path class="installation-guide-01-dt" d="M79.782,134.491h6.613v-14.808h-6.613c-0.789,0-1.428,0.639-1.428,1.428v11.953
        C78.354,133.852,78.993,134.491,79.782,134.491z"/>
      <circle class="installation-guide-01-dt" cx="103.029" cy="142.179" r="3.866"/>
    </g>
  </g>
  <g transform="translate(1100, 0)">
    <polyline class="installation-guide-01-lt" points="128.752,31.064 158.213,31.064 158.213,173.532 41.787,173.532 41.787,31.064 71.05,31.064 "/>
    <rect x="60.735" y="135.632" class="getting-started-01-lt" width="75.905" height="2"/>
    <rect x="60.735" y="115.717" class="getting-started-01-lt" width="75.905" height="2"/>
    <rect x="60.735" y="152.032" class="getting-started-01-lt" width="75.905" height="2"/>
    <ellipse class="getting-started-03-lt" cx="100" cy="46.975" rx="32.371" ry="33.145"/>
    <path class="installation-guide-01-lt" d="M117.078,37.233c-0.099-0.054-0.561-0.308-2.728-1.498c-2.744-1.507-8.262-4.539-11.127-6.101
      c-2.866-1.562-3.089-1.66-3.2-1.708l-0.008-0.003c-0.005-0.003-0.009-0.004-0.015-0.004c-0.005,0-0.01,0-0.014,0.004l-0.008,0.003
      c-0.112,0.049-0.335,0.146-3.2,1.708c-2.865,1.562-8.383,4.593-11.128,6.101c-2.166,1.19-2.629,1.444-2.727,1.498
      c-0.034,0.018-0.027,0.006-0.025,0.043c0,0.005,0.001,0.013,0.001,0.02c0.007,0.102,0.029,0.427,0.101,1.486
      c0.213,3.128,2.012,9.648,2.012,9.648c2.527,7.342,7.359,13.982,14.385,17.309l0.555,0.263l0.059,0.028l0.059-0.028l0.555-0.263
      c0.307-0.145,0.604-0.305,0.903-0.463c6.535-3.454,11.065-9.826,13.482-16.846h0.035c1.079-3.158,1.736-6.442,1.955-9.648
      c0.076-1.128,0.097-1.426,0.102-1.506C117.105,37.239,117.111,37.252,117.078,37.233z"/>
    <polygon class="getting-started-01-lt" points="107.478,42.46 106.571,41.553 97.541,50.582 93.429,46.471 92.522,47.378 97.541,52.396 		"/>
  </g>
  <g transform="translate(1100, 220)">
    <polyline class="installation-guide-01-dt" points="128.752,31.064 158.213,31.064 158.213,173.532 41.787,173.532 41.787,31.064 71.05,31.064 "/>
    <rect x="60.735" y="135.632" class="getting-started-01-dt" width="75.905" height="2"/>
    <rect x="60.735" y="115.717" class="getting-started-01-dt" width="75.905" height="2"/>
    <rect x="60.735" y="152.032" class="getting-started-01-dt" width="75.905" height="2"/>
    <ellipse class="getting-started-03-dt" cx="100" cy="46.975" rx="32.371" ry="33.145"/>
    <path class="installation-guide-01-dt" d="M117.078,37.233c-0.099-0.054-0.561-0.308-2.728-1.498c-2.744-1.507-8.262-4.539-11.127-6.101
      c-2.866-1.562-3.089-1.66-3.2-1.708l-0.008-0.003c-0.005-0.003-0.009-0.004-0.015-0.004c-0.005,0-0.01,0-0.014,0.004l-0.008,0.003
      c-0.112,0.049-0.335,0.146-3.2,1.708c-2.865,1.562-8.383,4.593-11.128,6.101c-2.166,1.19-2.629,1.444-2.727,1.498
      c-0.034,0.018-0.027,0.006-0.025,0.043c0,0.005,0.001,0.013,0.001,0.02c0.007,0.102,0.029,0.427,0.101,1.486
      c0.213,3.128,2.012,9.648,2.012,9.648c2.527,7.342,7.359,13.982,14.385,17.309l0.555,0.263l0.059,0.028l0.059-0.028l0.555-0.263
      c0.307-0.145,0.604-0.305,0.903-0.463c6.535-3.454,11.065-9.826,13.482-16.846h0.035c1.079-3.158,1.736-6.442,1.955-9.648
      c0.076-1.128,0.097-1.426,0.102-1.506C117.105,37.239,117.111,37.252,117.078,37.233z"/>
    <polygon class="getting-started-01-dt" points="107.478,42.46 106.571,41.553 97.541,50.582 93.429,46.471 92.522,47.378 97.541,52.396 		"/>
  </g>
  <g transform="translate(1320, 0)">
    <polyline class="installation-guide-02-lt" points="131.518,65.731 156.667,65.731 156.667,140.814 40.556,140.814 40.556,65.731 66.412,65.731 	"/>
    <line class="installation-guide-01-lt" x1="98.612" y1="141.329" x2="98.612" y2="172.09"/>
    <line class="installation-guide-01-lt" x1="67.803" y1="172.09" x2="129.42" y2="172.09"/>
    <ellipse class="getting-started-03-lt" cx="98.612" cy="64.975" rx="32.371" ry="33.145"/>
    <polyline class="cloud-service-01-lt" points="113.903,72.62 98.612,57.329 83.32,72.62 	"/>
  </g>
  <g transform="translate(1320, 220)">
    <line class="installation-guide-01-dt" x1="67.803" y1="172.09" x2="129.42" y2="172.09"/>
    <polyline class="installation-guide-02-dt" points="131.518,65.731 156.667,65.731 156.667,140.814 40.556,140.814 40.556,65.731 66.412,65.731 		"/>
    <line class="installation-guide-01-dt" x1="98.612" y1="141.329" x2="98.612" y2="172.09"/>
    <ellipse class="getting-started-03-dt" cx="98.612" cy="64.975" rx="32.371" ry="33.145"/>
    <polyline class="installation-guide-01-dt" points="113.903,72.62 98.612,57.329 83.32,72.62 		"/>
  </g>
  <g transform="translate(1540, 0)">
    <rect x="60.735" y="93.43" class="getting-started-01-lt" width="75.905" height="2"/>
    <rect x="60.735" y="126.231" class="getting-started-01-lt" width="75.905" height="2"/>
    <rect x="60.735" y="109.83" class="getting-started-01-lt" width="75.905" height="2"/>
    <rect x="60.735" y="142.632" class="getting-started-01-lt" width="75.905" height="2"/>
    <rect x="60.735" y="159.032" class="getting-started-01-lt" width="75.905" height="2"/>
    <path class="cloud-service-01-lt" d="M130.083,33.468H40.474v147.064H156.9V78.234"/>
    <path class="installation-guide-02-lt" d="M183.333,33.322c-0.154-0.085-0.875-0.48-4.253-2.336c-4.279-2.35-12.882-7.077-17.35-9.512
      c-4.468-2.435-4.816-2.588-4.99-2.664l-0.013-0.005c-0.007-0.005-0.014-0.007-0.023-0.006c-0.008,0-0.015,0-0.022,0.006
      l-0.013,0.005c-0.174,0.076-0.522,0.228-4.99,2.664c-4.468,2.435-13.071,7.162-17.35,9.512c-3.378,1.856-4.099,2.252-4.252,2.336
      c-0.052,0.029-0.043,0.009-0.039,0.067c0.001,0.008,0.002,0.021,0.002,0.031c0.011,0.159,0.045,0.665,0.158,2.316
      c0.332,4.877,3.137,15.044,3.137,15.044c3.94,11.447,11.474,21.8,22.429,26.989l0.866,0.41l0.092,0.043l0.092-0.043l0.866-0.41
      c0.479-0.227,0.942-0.476,1.408-0.722c10.189-5.386,17.253-15.32,21.021-26.267h0.055c1.683-4.923,2.707-10.044,3.048-15.044
      c0.119-1.758,0.151-2.224,0.16-2.348C183.376,33.331,183.386,33.351,183.333,33.322z"/>
    <polygon class="getting-started-01-lt" points="168.365,41.471 166.951,40.057 152.872,54.136 146.46,47.725 145.046,49.139 152.872,56.964 	"/>
  </g>
  <g transform="translate(1540, 220)">
    <rect x="60.735" y="93.43" class="getting-started-01-dt" width="75.905" height="2"/>
    <rect x="60.735" y="126.231" class="getting-started-01-dt" width="75.905" height="2"/>
    <rect x="60.735" y="109.83" class="getting-started-01-dt" width="75.905" height="2"/>
    <rect x="60.735" y="142.632" class="getting-started-01-dt" width="75.905" height="2"/>
    <rect x="60.735" y="159.032" class="getting-started-01-dt" width="75.905" height="2"/>
    <path class="installation-guide-01-dt" d="M130.083,33.468H40.474v147.064H156.9V78.234"/>
    <path class="installation-guide-02-dt" d="M183.333,33.322c-0.154-0.085-0.875-0.48-4.253-2.336c-4.279-2.35-12.882-7.077-17.35-9.512
      c-4.468-2.435-4.816-2.588-4.99-2.664l-0.013-0.005c-0.007-0.005-0.014-0.007-0.023-0.006c-0.008,0-0.015,0-0.022,0.006
      l-0.013,0.005c-0.174,0.076-0.522,0.228-4.99,2.664c-4.468,2.435-13.071,7.162-17.35,9.512c-3.378,1.856-4.099,2.252-4.252,2.336
      c-0.052,0.029-0.043,0.009-0.039,0.067c0.001,0.008,0.002,0.021,0.002,0.031c0.011,0.159,0.045,0.665,0.158,2.316
      c0.332,4.877,3.137,15.044,3.137,15.044c3.94,11.447,11.474,21.8,22.429,26.989l0.866,0.41l0.092,0.043l0.092-0.043l0.866-0.41
      c0.479-0.227,0.942-0.476,1.408-0.722c10.189-5.386,17.253-15.32,21.021-26.267h0.055c1.683-4.923,2.707-10.044,3.048-15.044
      c0.119-1.758,0.151-2.224,0.16-2.348C183.376,33.331,183.386,33.351,183.333,33.322z"/>
    <polygon class="getting-started-01-dt" points="168.365,41.471 166.951,40.057 152.872,54.136 146.46,47.725 145.046,49.139 152.872,56.964 "/>
  </g>
  <g transform="translate(1760, 0)">
    <path class="monitoring-01-lt" d="M107.051,62.802c0-5.772-4.79-10.469-10.679-10.469c-5.888,0-10.678,4.696-10.678,10.469s4.79,10.469,10.678,10.469
      c2.464,0,4.784-0.807,6.708-2.334l0.39-0.309l6.991,6.814c0.24,0.234,0.647,0.232,0.884,0.001c0.244-0.239,0.244-0.626,0.001-0.865
      l-6.993-6.814l0.317-0.384C106.228,67.492,107.051,65.218,107.051,62.802z M96.373,72.046c-5.199,0-9.429-4.147-9.429-9.244
      s4.23-9.244,9.429-9.244c5.199,0,9.43,4.147,9.43,9.244S101.572,72.046,96.373,72.046z"/>
    <polyline class="installation-guide-02-lt" points="131.518,65.731 156.667,65.731 156.667,140.814 40.556,140.814 40.556,65.731 66.412,65.731 "/>
    <line class="installation-guide-01-lt" x1="98.612" y1="141.329" x2="98.612" y2="172.09"/>
    <line class="monitoring-02-lt" x1="67.803" y1="172.09" x2="129.42" y2="172.09"/>
    <ellipse class="getting-started-03-lt" cx="98.612" cy="64.975" rx="32.371" ry="33.145"/>
  </g>
  <g transform="translate(1760, 220)">
    <path class="monitoring-01-dt" d="M107.051,62.802c0-5.772-4.79-10.469-10.679-10.469c-5.888,0-10.678,4.696-10.678,10.469
      s4.79,10.469,10.678,10.469c2.464,0,4.784-0.807,6.708-2.334l0.39-0.309l6.991,6.814c0.24,0.234,0.647,0.232,0.884,0.001
      c0.244-0.239,0.244-0.626,0.001-0.865l-6.993-6.814l0.317-0.384C106.228,67.492,107.051,65.218,107.051,62.802z M96.373,72.046
      c-5.199,0-9.429-4.147-9.429-9.244s4.23-9.244,9.429-9.244c5.199,0,9.43,4.147,9.43,9.244S101.572,72.046,96.373,72.046z"/>
    <polyline class="installation-guide-02-dt" points="131.518,65.731 156.667,65.731 156.667,140.814 40.556,140.814 40.556,65.731 66.412,65.731 	"/>
    <line class="installation-guide-01-dt" x1="98.612" y1="141.329" x2="98.612" y2="172.09"/>
    <line class="monitoring-02-dt" x1="67.803" y1="172.09" x2="129.42" y2="172.09"/>
    <ellipse class="getting-started-03-dt" cx="98.612" cy="64.975" rx="32.371" ry="33.145"/>
  </g>
  <g transform="translate(1980, 0)">
    <rect x="83.901" y="152.527" class="poc-guide-01-lt" width="32.198" height="9.548"/>
    <rect x="88.601" y="166.442" class="poc-guide-01-lt" width="22.798" height="7.087"/>
    <line class="installation-guide-01-lt" x1="100" y1="26.471" x2="100" y2="37.262"/>
    <line class="installation-guide-01-lt" x1="65.851" y1="39.303" x2="73.559" y2="47.011"/>
    <line class="installation-guide-01-lt" x1="134.149" y1="39.303" x2="126.441" y2="47.011"/>
    <path class="poc-guide-01-lt" d="M149.962,96.879c0,26.988-22.369,48.867-49.962,48.867c-27.593,0-49.962-21.879-49.962-48.867"/>
    <path class="getting-started-03-lt" d="M50.038,98.041c0-26.988,22.369-48.867,49.962-48.867c27.593,0,49.962,21.879,49.962,48.867"/>
  </g>
  <g transform="translate(1980, 220)">
      <rect x="83.901" y="152.527" class="getting-started-02-dt" width="32.198" height="9.548"/>
      <rect x="88.601" y="166.442" class="getting-started-02-dt" width="22.798" height="7.087"/>
      <line class="installation-guide-01-dt" x1="100" y1="26.471" x2="100" y2="37.262"/>
      <line class="installation-guide-01-dt" x1="65.851" y1="39.303" x2="73.559" y2="47.011"/>
      <line class="installation-guide-01-dt" x1="134.149" y1="39.303" x2="126.441" y2="47.011"/>
    <path class="getting-started-02-dt" d="M149.962,96.879c0,26.988-22.369,48.867-49.962,48.867c-27.593,0-49.962-21.879-49.962-48.867"/>
    <path class="getting-started-03-dt" d="M50.038,98.041c0-26.988,22.369-48.867,49.962-48.867c27.593,0,49.962,21.879,49.962,48.867"/>
  </g>
  <g transform="translate(2200, 0)">
    <polyline class="monitoring-02-lt" points="122.965,28.681 158.213,28.681 158.213,173.532 41.787,173.532 41.787,28.681 75.986,28.681 "/>
    <rect x="60.735" y="135.632" class="getting-started-01-lt" width="75.905" height="2"/>
    <rect x="60.735" y="152.032" class="getting-started-01-lt" width="75.905" height="2"/>
    <path class="release-notes-01-lt" d="M127.285,38.451c-0.689-3.606-2.103-7.1-4.233-10.254l4.111-4.111l-7.497-7.497l-4.111,4.111
      c-3.155-2.13-6.648-3.544-10.255-4.233v-5.828H94.699v5.858c-3.587,0.706-7.059,2.131-10.193,4.265l-4.172-4.172l-7.497,7.497
      l4.199,4.199c-2.096,3.131-3.489,6.593-4.172,10.166h-5.978v5.066v0.116v5.066h5.978c0.683,3.573,2.075,7.035,4.172,10.166
      l-4.199,4.199l7.497,7.497l4.172-4.172c3.134,2.134,6.606,3.559,10.193,4.265v5.858h10.602v-5.828
      c3.606-0.689,7.1-2.103,10.255-4.233l4.111,4.111l7.497-7.497l-4.111-4.111c2.13-3.154,3.544-6.648,4.233-10.254h5.828v-5.066
      v-0.116v-5.066H127.285z M111.547,54.925c-6.325,6.325-16.58,6.325-22.905,0c-3.137-3.137-4.715-7.239-4.741-11.35
      c0.026-4.111,1.605-8.214,4.741-11.35c6.325-6.325,16.58-6.325,22.905,0c3.136,3.137,4.715,7.239,4.741,11.35
      C116.263,47.685,114.684,51.788,111.547,54.925z"/>
    <rect x="60.735" y="115.717" class="getting-started-01-lt" width="75.905" height="2"/>
  </g>
  <g transform="translate(2200, 220)">
    <polyline class="installation-guide-01-dt" points="122.965,28.681 158.213,28.681 158.213,173.532 41.787,173.532 41.787,28.681 75.986,28.681 "/>
    <rect x="60.735" y="135.632" class="getting-started-01-dt" width="75.905" height="2"/>
    <rect x="60.735" y="152.032" class="getting-started-01-dt" width="75.905" height="2"/>
    <path class="release-notes-01-dt" d="M127.285,38.451c-0.689-3.606-2.103-7.1-4.233-10.254l4.111-4.111l-7.497-7.497l-4.111,4.111
      c-3.155-2.13-6.648-3.544-10.255-4.233v-5.828H94.699v5.858c-3.587,0.706-7.059,2.131-10.193,4.265l-4.172-4.172l-7.497,7.497
      l4.199,4.199c-2.096,3.131-3.489,6.593-4.172,10.166h-5.978v5.066v0.116v5.066h5.978c0.683,3.573,2.075,7.035,4.172,10.166
      l-4.199,4.199l7.497,7.497l4.172-4.172c3.134,2.134,6.606,3.559,10.193,4.265v5.858h10.602v-5.828
      c3.606-0.689,7.1-2.103,10.255-4.233l4.111,4.111l7.497-7.497l-4.111-4.111c2.13-3.154,3.544-6.648,4.233-10.254h5.828v-5.066
      v-0.116v-5.066H127.285z M111.547,54.925c-6.325,6.325-16.58,6.325-22.905,0c-3.137-3.137-4.715-7.239-4.741-11.35
      c0.026-4.111,1.605-8.214,4.741-11.35c6.325-6.325,16.58-6.325,22.905,0c3.136,3.137,4.715,7.239,4.741,11.35
      C116.263,47.685,114.684,51.788,111.547,54.925z"/>
    <rect x="60.735" y="115.717" class="getting-started-01-dt" width="75.905" height="2"/>
  </g>
</svg>