<svg id="wazuh-icons-sprite" version="1.1" xmlns="http://www.w3.org/2000/svg" xmlns:xlink="http://www.w3.or256BD1g/1999/xlink" xml:space="preserve">
  <style type="text/css">
    .st0-lt{stroke-width:.7;fill:none;stroke:#000000;stroke-miterlimit:10;}
    .st0-dt{stroke-width:.7;fill:none;stroke:#ffffff;stroke-miterlimit:10;}
    .st1-lt{stroke-width:.2;fill:#256BD1;stroke:#256BD1;stroke-miterlimit:10;}
    .st1-dt{stroke-width:.2;fill:#499CFE;stroke:#499CFE;stroke-miterlimit:10;}
    .st3-lt{stroke-width:2;fill-rule:evenodd;clip-rule:evenodd;fill:none;stroke:#256BD1;stroke-linecap:round;stroke-linejoin:round;stroke-miterlimit:10;}
    .st3-dt{stroke-width:2;fill-rule:evenodd;clip-rule:evenodd;fill:none;stroke:#499CFE;stroke-linecap:round;stroke-linejoin:round;stroke-miterlimit:10;}
    .st4-lt{stroke-width:.7;fill:none;stroke:#256BD1;stroke-miterlimit:10;}
    .st4-dt{stroke-width:.7;fill:none;stroke:#499CFE;stroke-miterlimit:10;}
    .st6-lt{stroke-width:2;fill:none;stroke:#256BD1;stroke-miterlimit:10;}
    .st6-dt{stroke-width:2;fill:none;stroke:#499CFE;stroke-miterlimit:10;}
    .st7-lt{stroke-width:1;fill:#050505;stroke:#050505}
    .st7-dt{stroke-width:1;fill:#FFFFFF;stroke:#FFFFFF}
    .st8-lt{stroke-width:.5;fill:#050505;stroke:#050505}
    .st8-dt{stroke-width:.5;fill:#FFFFFF;stroke:#FFFFFF}
    .st10-lt{stroke-width:2;fill:none;stroke:#256BD1;stroke-linecap:round;stroke-linejoin:round;stroke-miterlimit:10;}
    .st10-dt{stroke-width:2;fill:none;stroke:#499CFE;stroke-linecap:round;stroke-linejoin:round;stroke-miterlimit:10;}
    .st11-lt{stroke-width:2;fill:none;stroke:#050505;stroke-miterlimit:10;}
    .st11-dt{stroke-width:2;fill:none;stroke:#FFFFFF;stroke-miterlimit:10;}
    .st15-lt{stroke-width:2;fill:none;stroke:#000000;stroke-miterlimit:10;}
    .st15-dt{stroke-width:2;fill:none;stroke:#FFFFFF;stroke-miterlimit:10;}
    .st16-lt{stroke-width:2;fill:none;stroke:#000000;stroke-miterlimit:10;}
    .st16-dt{stroke-width:2;fill:none;stroke:#FFFFFF;stroke-miterlimit:10;}
    .st18-lt{stroke-width:2;fill-rule:evenodd;clip-rule:evenodd;fill:none;stroke:#050505;stroke-miterlimit:10;}
    .st18-dt{stroke-width:2;fill-rule:evenodd;clip-rule:evenodd;fill:none;stroke:#FFFFFF;stroke-miterlimit:10;}
    .st19-lt{stroke-width:2;fill:none;stroke:#050505;stroke-miterlimit:10;}
    .st19-dt{stroke-width:2;fill:none;stroke:#FFFFFF;stroke-miterlimit:10;}
    .st20-lt{stroke-width:2;fill:none;stroke:#256BD1;stroke-linecap:round;stroke-linejoin:round;stroke-miterlimit:10;}
    .st20-dt{stroke-width:2;fill:none;stroke:#499CFE;stroke-linecap:round;stroke-linejoin:round;stroke-miterlimit:10;}
    .st20{stroke-width:2;fill:none;stroke:#FFFFFF;stroke-linecap:round;stroke-linejoin:round;stroke-miterlimit:10;}
    .st21-lt{stroke-width:1;fill:#256BD1;stroke:#256BD1}
    .st21-dt{stroke-width:1;fill:#499CFE;stroke:#499CFE}
    .st22-lt{stroke-width:2;fill-rule:evenodd;clip-rule:evenodd;fill:none;stroke:#000000;stroke-miterlimit:10;}
    .st22-dt{stroke-width:2;fill-rule:evenodd;clip-rule:evenodd;fill:none;stroke:#FFFFFF;stroke-miterlimit:10;}
    .st23-lt{stroke-width:2;fill:none;stroke:#000000;stroke-linecap:round;stroke-linejoin:round;stroke-miterlimit:10;}
    .st23-dt{stroke-width:2;fill:none;stroke:#FFFFFF;stroke-linecap:round;stroke-linejoin:round;stroke-miterlimit:10;}
    .st24{fill:none;}
    .st35-lt{stroke-width:.5;fill:#256BD1;stroke:#256BD1;}
    .st35-dt{stroke-width:.5;fill:#499CFE;stroke:#499CFE;}
    .st39-lt{stroke-width:2;fill:none;stroke:#256BD1;stroke-miterlimit:10;}
    .st39-dt{stroke-width:2;fill:none;stroke:#499CFE;stroke-miterlimit:10;}
    .wider-stroke{stroke-width:4;}
  </style>
  <view id="getting-started-lt" viewBox="0 0 200 200"/>
  <view id="getting-started-dt" viewBox="0 220 200 200"/>
  <view id="installation-guide-lt" viewBox="220 0 200 200"/>
  <view id="installation-guide-dt" viewBox="220 220 200 200"/>
  <view id="upgrade-guide-lt" viewBox="440 0 200 200"/>
  <view id="upgrade-guide-dt" viewBox="440 220 200 200"/>
  <view id="user-manual-lt" viewBox="660 0 200 200"/>
  <view id="user-manual-dt" viewBox="660 220 200 200"/>
  <view id="cloud-service-lt" viewBox="880 0 200 200"/>
  <view id="cloud-service-dt" viewBox="880 220 200 200"/>
  <view id="compliance-lt" viewBox="1100 0 200 200"/>
  <view id="compliance-dt" viewBox="1100 220 200 200"/>
  <view id="deployment-lt" viewBox="1320 0 200 200"/>
  <view id="deployment-dt" viewBox="1320 220 200 200"/>
  <view id="containers-lt" viewBox="1540 0 200 200"/>
  <view id="containers-dt" viewBox="1540 220 200 200"/>
  <view id="cloud-security-lt" viewBox="1760 0 200 200"/>
  <view id="cloud-security-dt" viewBox="1760 220 200 200"/>
  <view id="poc-guide-lt" viewBox="1980 0 200 200"/>
  <view id="poc-guide-dt" viewBox="1980 220 200 200"/>
  <view id="release-notes-lt" viewBox="2200 0 200 200"/>
  <view id="release-notes-dt" viewBox="2200 220 200 200"/>
  <view id="quickstart-lt" viewBox="2420 0 200 200"/>
  <view id="quickstart-dt" viewBox="2420 220 200 200"/>
  <view id="quickstart" viewBox="2420 440 200 200"/>
  <view id="installation-alternatives-lt" viewBox="2640 0 200 200"/>
  <view id="installation-alternatives-dt" viewBox="2640 220 200 200"/>
  <view id="migration-guide-lt" viewBox="2860 0 200 200"/>
  <view id="migration-guide-dt" viewBox="2860 220 200 200"/>
  <view id="development-lt" viewBox="3090 35 200 200"/>
  <view id="development-dt" viewBox="3090 255 200 200"/>
  <view id="learning-lt" viewBox="3280 25 200 200"/>
  <view id="learning-dt" viewBox="3280 245 200 200"/>
  <view id="integrations-guide-lt" viewBox="3470 0 70 70"/>
  <view id="integrations-guide-dt" viewBox="3470 220 70 70"/>

  <g>
    <path class="st18-lt" d="M35.908,77.821c0,0.03,0.002,0.059,0.002,0.088h-0.002v108.796l64.679-27.351l63.545,27.351V77.909h-0.002
      c0-0.03,0.002-0.059,0.002-0.088"/>
    <path class="st7-lt" d="M78.877,82.409c0.476,6.05,3.576,11.604,8.507,15.238c5.019,3.698,11.377,5.033,17.447,3.661
      c10.739-2.426,17.965-12.819,16.451-23.661c-0.935-6.688-4.399-11.93-10.302-15.587c-0.244,0.796-0.514,1.573-0.804,2.321
      c5.741,3.674,8.742,9.098,8.921,16.121l0.001,0.028l-0.001,0.094c-0.026,0.309-0.04,0.562-0.055,0.824
      c-0.042,0.755-0.086,1.547-0.24,2.353c-1.79,9.366-9.459,15.615-19.124,15.615c-0.081,0-0.163,0-0.245-0.001
      c-5.204-0.059-10.407-2.569-13.918-6.717c-3.559-4.208-5.027-9.671-4.135-15.385c0.865-5.538,3.774-9.89,8.646-12.936
      c-0.282-0.731-0.548-1.503-0.792-2.301C81.683,66.915,78.199,73.751,78.877,82.409z"/>
    <path class="st7-lt" d="M101.352,59.683c-0.004-1.729-0.006-3.458,0.004-5.186c-0.866,0.011-1.711,0.007-2.499-0.002
      c0.01,5.059,0.01,10.116,0,15.176c0.84-0.014,1.671-0.017,2.5-0.001c-0.016-1.618-0.012-3.242-0.007-4.825L101.352,59.683z"/>
    <circle class="st3-lt" cx="100.138" cy="78.061" r="64.104"/>
  </g>
  <g transform="translate(0, 220)">
    <path class="st18-dt" d="M35.908,77.821c0,0.03,0.002,0.059,0.002,0.088h-0.002v108.796l64.679-27.351l63.545,27.351V77.909h-0.002
      c0-0.03,0.002-0.059,0.002-0.088"/>
    <path class="st7-dt" d="M78.877,82.409c0.476,6.05,3.576,11.604,8.507,15.238c5.019,3.698,11.377,5.033,17.447,3.661
      c10.739-2.426,17.965-12.819,16.451-23.661c-0.935-6.688-4.399-11.93-10.302-15.587c-0.244,0.796-0.514,1.573-0.804,2.321
      c5.741,3.674,8.742,9.098,8.921,16.121l0.001,0.028l-0.001,0.094c-0.026,0.309-0.04,0.562-0.055,0.824
      c-0.042,0.755-0.086,1.547-0.24,2.353c-1.79,9.366-9.459,15.615-19.124,15.615c-0.081,0-0.163,0-0.245-0.001
      c-5.204-0.059-10.407-2.569-13.918-6.717c-3.559-4.208-5.027-9.671-4.135-15.385c0.865-5.538,3.774-9.89,8.646-12.936
      c-0.282-0.731-0.548-1.503-0.792-2.301C81.683,66.915,78.199,73.751,78.877,82.409z"/>
    <path class="st7-dt" d="M101.352,59.683c-0.004-1.729-0.006-3.458,0.004-5.186c-0.866,0.011-1.711,0.007-2.499-0.002
      c0.01,5.059,0.01,10.116,0,15.176c0.84-0.014,1.671-0.017,2.5-0.001c-0.016-1.618-0.012-3.242-0.007-4.825L101.352,59.683z"/>
    <circle class="st3-dt" cx="100.138" cy="78.061" r="64.104"/>
  </g>
  <g transform="translate(220, 0)">
    <polyline class="st19-lt" points="170.743,92.856 170.743,186.616 29.318,186.616 29.318,92.856 	"/>
    <path class="st20-lt" d="M158.292,72.87c-1.472-7.705-4.493-15.168-9.043-21.907l8.783-8.783l-16.016-16.016l-8.782,8.782
      c-6.739-4.551-14.203-7.57-21.908-9.043V13.452h-22.65v12.514c-7.664,1.508-15.081,4.552-21.776,9.112l-8.914-8.914L41.97,42.18
      l8.972,8.972c-4.479,6.689-7.454,14.086-8.912,21.718H29.257v10.822v0.249v10.822h12.772c1.458,7.632,4.434,15.029,8.912,21.718
      l-8.972,8.972l16.016,16.016l8.914-8.914c6.695,4.559,14.112,7.603,21.776,9.112v12.514h22.65V141.73
      c7.705-1.473,15.169-4.492,21.908-9.043l8.782,8.782l16.016-16.016l-8.783-8.783c4.55-6.739,7.572-14.202,9.043-21.907h12.451
      V83.941v-0.249V72.87H158.292z M124.669,108.065c-13.513,13.513-35.421,13.513-48.933,0c-6.701-6.701-10.074-15.466-10.129-24.248
      c0.055-8.782,3.428-17.548,10.129-24.248c13.513-13.513,35.421-13.513,48.933,0c6.701,6.701,10.074,15.466,10.129,24.248
      C134.743,92.599,131.37,101.364,124.669,108.065z"/>
    <polygon class="st7-lt" points="96.242,94.75 84.489,82.997 85.903,81.583 96.242,91.922 114.965,73.201 116.379,74.615 		"/>
  </g>
  <g transform="translate(220, 220)">
    <polyline class="st19-dt" points="170.743,92.856 170.743,186.616 29.318,186.616 29.318,92.856 	"/>
    <path class="st20-dt" d="M158.292,72.87c-1.472-7.705-4.493-15.168-9.043-21.907l8.783-8.783l-16.016-16.016l-8.782,8.782
      c-6.739-4.551-14.203-7.57-21.908-9.043V13.452h-22.65v12.514c-7.664,1.508-15.081,4.552-21.776,9.112l-8.914-8.914L41.97,42.18
      l8.972,8.972c-4.479,6.689-7.454,14.086-8.912,21.718H29.257v10.822v0.249v10.822h12.772c1.458,7.632,4.434,15.029,8.912,21.718
      l-8.972,8.972l16.016,16.016l8.914-8.914c6.695,4.559,14.112,7.603,21.776,9.112v12.514h22.65V141.73
      c7.705-1.473,15.169-4.492,21.908-9.043l8.782,8.782l16.016-16.016l-8.783-8.783c4.55-6.739,7.572-14.202,9.043-21.907h12.451
      V83.941v-0.249V72.87H158.292z M124.669,108.065c-13.513,13.513-35.421,13.513-48.933,0c-6.701-6.701-10.074-15.466-10.129-24.248
      c0.055-8.782,3.428-17.548,10.129-24.248c13.513-13.513,35.421-13.513,48.933,0c6.701,6.701,10.074,15.466,10.129,24.248
      C134.743,92.599,131.37,101.364,124.669,108.065z"/>
    <polygon class="st7-dt" points="96.242,94.75 84.489,82.997 85.903,81.583 96.242,91.922 114.965,73.201 116.379,74.615 		"/>
  </g>
  <g transform="translate(440, 0)">
    <path class="st7-lt" d="M115.02,69.173c-4.011-4.012-9.345-6.222-15.021-6.222c-5.508,0-10.695,2.081-14.664,5.872l1.511,1.511
      c3.565-3.389,8.216-5.248,13.153-5.248c5.104,0,9.902,1.987,13.512,5.597c5.289,5.289,6.997,13.142,4.419,20.132l1.982,0.791
      C122.808,83.821,120.915,75.066,115.02,69.173z"/>
    <path class="st7-lt" d="M84.978,99.215c4.013,4.013,9.348,6.223,15.021,6.223c5.508,0,10.695-2.082,14.663-5.873l-1.51-1.51
      c-3.565,3.388-8.216,5.247-13.153,5.247c-5.104,0-9.902-1.987-13.512-5.597c-5.29-5.289-6.997-13.142-4.419-20.132l-1.983-0.791
      C77.191,84.567,79.085,93.322,84.978,99.215z"/>
    <polygon class="st7-lt" points="93.131,72.757 93.362,70.634 86.054,69.839 86.849,62.532 84.726,62.301 83.7,71.73 "/>
    <path class="st23-lt" d="M170.055,81.608c0.026,0.791,0.06,1.581,0.06,2.379c0,38.723-31.391,70.115-70.115,70.115
      S29.885,122.71,29.885,83.987c0-0.798,0.034-1.587,0.06-2.379h-0.275v105.314h140.659V81.608H170.055z"/>
    <path class="st20-lt" d="M100,154.102c38.723,0,70.115-31.391,70.115-70.115c0-0.798-0.034-1.587-0.06-2.379
      C168.798,43.989,137.926,13.872,100,13.872S31.202,43.989,29.945,81.608c-0.026,0.791-0.06,1.581-0.06,2.379
      C29.885,122.71,61.277,154.102,100,154.102z"/>
    <polygon class="st7-lt" points="106.87,95.631 106.639,97.754 113.946,98.549 113.15,105.857 115.273,106.087 116.299,96.66 "/>
  </g>
  <g transform="translate(440, 220)">
    <path class="st7-dt" d="M115.02,69.173c-4.011-4.012-9.345-6.222-15.021-6.222c-5.508,0-10.695,2.081-14.664,5.872l1.511,1.511
      c3.565-3.389,8.216-5.248,13.153-5.248c5.104,0,9.902,1.987,13.512,5.597c5.289,5.289,6.997,13.142,4.419,20.132l1.982,0.791
      C122.808,83.821,120.915,75.066,115.02,69.173z"/>
    <path class="st7-dt" d="M84.978,99.215c4.013,4.013,9.348,6.223,15.021,6.223c5.508,0,10.695-2.082,14.663-5.873l-1.51-1.51
      c-3.565,3.388-8.216,5.247-13.153,5.247c-5.104,0-9.902-1.987-13.512-5.597c-5.29-5.289-6.997-13.142-4.419-20.132l-1.983-0.791
      C77.191,84.567,79.085,93.322,84.978,99.215z"/>
    <polygon class="st7-dt" points="93.131,72.757 93.362,70.634 86.054,69.839 86.849,62.532 84.726,62.301 83.7,71.73 "/>
    <path class="st23-dt" d="M170.055,81.608c0.026,0.791,0.06,1.581,0.06,2.379c0,38.723-31.391,70.115-70.115,70.115
      S29.885,122.71,29.885,83.987c0-0.798,0.034-1.587,0.06-2.379h-0.275v105.314h140.659V81.608H170.055z"/>
    <path class="st20-dt" d="M100,154.102c38.723,0,70.115-31.391,70.115-70.115c0-0.798-0.034-1.587-0.06-2.379
      C168.798,43.989,137.926,13.872,100,13.872S31.202,43.989,29.945,81.608c-0.026,0.791-0.06,1.581-0.06,2.379
      C29.885,122.71,61.277,154.102,100,154.102z"/>
    <polygon class="st7-dt" points="106.87,95.631 106.639,97.754 113.946,98.549 113.15,105.857 115.273,106.087 116.299,96.66 "/>
  </g>
  <g transform="translate(660, 0)">
    <polygon class="st6-lt" points="126.308,69.667 161.061,69.667 126.308,35.63 		"/>
    <rect x="94.552" y="93.916" class="st7-lt" width="43.476" height="2.09"/>
    <polygon class="st7-lt" points="87.299,85.687 85.79,84.209 70.765,98.924 63.924,92.223 62.415,93.701 70.765,101.88 		"/>
    <rect x="94.552" y="126.723" class="st7-lt" width="43.476" height="2.09"/>
    <polygon class="st7-lt" points="87.299,118.494 85.79,117.016 70.765,131.73 63.924,125.03 62.415,126.508 70.765,134.686 		"/>
    <rect x="94.552" y="159.53" class="st7-lt" width="43.476" height="2.09"/>
    <polygon class="st7-lt" points="87.299,151.301 85.79,149.823 70.765,164.538 63.924,157.837 62.415,159.315 70.765,167.494 		"/>
    <rect x="37.879" y="34.383" class="st6-lt" width="124.241" height="153.702"/>
    <polyline class="st16-lt" points="125.369,34.383 162.121,34.383 162.121,70.54 	"/>
  </g>
  <g transform="translate(660, 220)">
    <polygon class="st6-dt" points="126.308,69.667 161.061,69.667 126.308,35.63 		"/>
    <rect x="94.552" y="93.916" class="st7-dt" width="43.476" height="2.09"/>
    <polygon class="st7-dt" points="87.299,85.687 85.79,84.209 70.765,98.924 63.924,92.223 62.415,93.701 70.765,101.88 		"/>
    <rect x="94.552" y="126.723" class="st7-dt" width="43.476" height="2.09"/>
    <polygon class="st7-dt" points="87.299,118.494 85.79,117.016 70.765,131.73 63.924,125.03 62.415,126.508 70.765,134.686 		"/>
    <rect x="94.552" y="159.53" class="st7-dt" width="43.476" height="2.09"/>
    <polygon class="st7-dt" points="87.299,151.301 85.79,149.823 70.765,164.538 63.924,157.837 62.415,159.315 70.765,167.494 		"/>
    <rect x="37.879" y="34.383" class="st6-dt" width="124.241" height="153.702"/>
    <polyline class="st16-dt" points="125.369,34.383 162.121,34.383 162.121,70.54 	"/>
  </g>
  <g transform="translate(880, 0)">
    <path class="st20-lt" d="M170.089,73.157c-3.336-1.928-7.014-3.244-10.908-3.793c0.587-2.368,0.978-4.82,1.193-7.327
      c0.115-1.337,0.194-2.684,0.194-4.053c0-24.174-18.093-43.771-40.413-43.771c-13.558,0-25.528,7.253-32.855,18.352
      c-3.036,4.598-5.295,9.841-6.508,15.527H55.136c-23.03,0-41.873,20.409-41.873,45.353c0,1.36,0.066,2.704,0.176,4.034
      c1.901,23.072,16.969,41.319,38.744,41.319h0.357V92.188h94.915v46.609h7.573c17.266,0,31.431-14.931,32.127-33.455
      c0.018-0.472,0.066-0.936,0.066-1.413C187.22,90.637,180.257,79.032,170.089,73.157z"/>
    <polyline class="st16-lt" points="52.526,138.798 52.526,188.739 147.474,188.739 147.474,138.798 	"/>
    <path class="st19-lt" d="M78.828,139.098v-7.807c0-14.296,11.589-25.885,25.885-25.885h0c14.296,0,25.885,11.589,25.885,25.885
      v11.613c0,12.249-8.508,22.511-19.937,25.198"/>
    <path class="st19-lt" d="M67.743,156.427h11.085v-23.044H67.743c-0.789,0-1.428,0.639-1.428,1.428v20.188
      C66.315,155.787,66.954,156.427,67.743,156.427z"/>
    <circle class="st19-lt" cx="104.713" cy="168.39" r="6.016"/>
  </g>
  <g transform="translate(880, 220)">
    <path class="st20-dt" d="M170.089,73.157c-3.336-1.928-7.014-3.244-10.908-3.793c0.587-2.368,0.978-4.82,1.193-7.327
      c0.115-1.337,0.194-2.684,0.194-4.053c0-24.174-18.093-43.771-40.413-43.771c-13.558,0-25.528,7.253-32.855,18.352
      c-3.036,4.598-5.295,9.841-6.508,15.527H55.136c-23.03,0-41.873,20.409-41.873,45.353c0,1.36,0.066,2.704,0.176,4.034
      c1.901,23.072,16.969,41.319,38.744,41.319h0.357V92.188h94.915v46.609h7.573c17.266,0,31.431-14.931,32.127-33.455
      c0.018-0.472,0.066-0.936,0.066-1.413C187.22,90.637,180.257,79.032,170.089,73.157z"/>
    <polyline class="st16-dt" points="52.526,138.798 52.526,188.739 147.474,188.739 147.474,138.798 	"/>
    <path class="st19-dt" d="M78.828,139.098v-7.807c0-14.296,11.589-25.885,25.885-25.885h0c14.296,0,25.885,11.589,25.885,25.885
      v11.613c0,12.249-8.508,22.511-19.937,25.198"/>
    <path class="st19-dt" d="M67.743,156.427h11.085v-23.044H67.743c-0.789,0-1.428,0.639-1.428,1.428v20.188
      C66.315,155.787,66.954,156.427,67.743,156.427z"/>
    <circle class="st19-dt" cx="104.713" cy="168.39" r="6.016"/>
  </g>
  <g transform="translate(1100, 0)">
    <polyline class="st19-lt" points="131.093,32.467 162.952,32.467 162.952,186.534 37.048,186.534 37.048,32.467 68.693,32.467 	"/>
    <rect x="57.538" y="145.548" class="st7-lt" width="82.085" height="2.163"/>
    <rect x="57.538" y="124.012" class="st7-lt" width="82.085" height="2.163"/>
    <rect x="57.538" y="163.284" class="st7-lt" width="82.085" height="2.163"/>
    <path class="st21-lt" d="M100,86.017c-19.578,0-35.506-16.304-35.506-36.344S80.422,13.329,100,13.329s35.506,16.304,35.506,36.344
      S119.578,86.017,100,86.017z M100,14.329c-19.026,0-34.506,15.855-34.506,35.344S80.974,85.017,100,85.017
      s34.506-15.855,34.506-35.344S119.026,14.329,100,14.329z"/>
    <path class="st7-lt" d="M100.075,70.804l-0.278-0.072l-0.663-0.313C91.99,67.034,86.373,60.283,83.318,51.41
      c-0.089-0.32-1.97-7.169-2.201-10.562l-0.141-1.958l0.686-0.393l3.773-2.073c3.171-1.741,8.114-4.457,10.84-5.942
      c2.798-1.523,3.28-1.767,3.45-1.844l0.083-0.067l0.367-0.005l0.1,0.074c0.228,0.105,0.803,0.4,3.449,1.842
      c2.726,1.485,7.669,4.201,10.84,5.942l1.194,0.656c2.299,1.263,2.823,1.551,2.943,1.616l0.319,0.151l-0.139,2
      c-0.243,3.566-0.963,7.12-2.14,10.562l-0.155,0.338c-2.917,8.244-8.128,14.686-14.702,18.161l-0.119,0.062
      c-0.289,0.153-0.579,0.306-0.877,0.447L100.075,70.804z M82.023,39.44l0.092,1.34c0.225,3.294,2.139,10.265,2.158,10.335
      c2.957,8.587,8.39,15.132,15.288,18.399l0.45,0.213l0.45-0.213c0.284-0.135,0.562-0.281,0.837-0.427l0.12-0.063
      c6.438-3.403,11.53-9.774,14.341-17.939l0.151-0.337c1.081-3.253,1.744-6.604,1.974-9.968l0.092-1.34
      c-0.337-0.186-1.075-0.591-2.699-1.482l-1.194-0.656c-3.17-1.741-8.112-4.456-10.837-5.94
      c-2.226-1.213-2.969-1.605-3.247-1.745c-0.258,0.131-0.992,0.517-3.245,1.745c-2.725,1.484-7.667,4.199-10.837,5.94
      L82.023,39.44z"/>
    <polygon class="st7-lt" points="108.086,44.791 107.106,43.81 97.341,53.575 92.894,49.128 91.914,50.109 97.341,55.536"/>
  </g>
  <g transform="translate(1100, 220)">
    <polyline class="st19-dt" points="131.093,32.467 162.952,32.467 162.952,186.534 37.048,186.534 37.048,32.467 68.693,32.467 	"/>
    <rect x="57.538" y="145.548" class="st7-dt" width="82.085" height="2.163"/>
    <rect x="57.538" y="124.012" class="st7-dt" width="82.085" height="2.163"/>
    <rect x="57.538" y="163.284" class="st7-dt" width="82.085" height="2.163"/>
    <path class="st21-dt" d="M100,86.017c-19.578,0-35.506-16.304-35.506-36.344S80.422,13.329,100,13.329s35.506,16.304,35.506,36.344
      S119.578,86.017,100,86.017z M100,14.329c-19.026,0-34.506,15.855-34.506,35.344S80.974,85.017,100,85.017
      s34.506-15.855,34.506-35.344S119.026,14.329,100,14.329z"/>
    <path class="st7-dt" d="M100.075,70.804l-0.278-0.072l-0.663-0.313C91.99,67.034,86.373,60.283,83.318,51.41
      c-0.089-0.32-1.97-7.169-2.201-10.562l-0.141-1.958l0.686-0.393l3.773-2.073c3.171-1.741,8.114-4.457,10.84-5.942
      c2.798-1.523,3.28-1.767,3.45-1.844l0.083-0.067l0.367-0.005l0.1,0.074c0.228,0.105,0.803,0.4,3.449,1.842
      c2.726,1.485,7.669,4.201,10.84,5.942l1.194,0.656c2.299,1.263,2.823,1.551,2.943,1.616l0.319,0.151l-0.139,2
      c-0.243,3.566-0.963,7.12-2.14,10.562l-0.155,0.338c-2.917,8.244-8.128,14.686-14.702,18.161l-0.119,0.062
      c-0.289,0.153-0.579,0.306-0.877,0.447L100.075,70.804z M82.023,39.44l0.092,1.34c0.225,3.294,2.139,10.265,2.158,10.335
      c2.957,8.587,8.39,15.132,15.288,18.399l0.45,0.213l0.45-0.213c0.284-0.135,0.562-0.281,0.837-0.427l0.12-0.063
      c6.438-3.403,11.53-9.774,14.341-17.939l0.151-0.337c1.081-3.253,1.744-6.604,1.974-9.968l0.092-1.34
      c-0.337-0.186-1.075-0.591-2.699-1.482l-1.194-0.656c-3.17-1.741-8.112-4.456-10.837-5.94
      c-2.226-1.213-2.969-1.605-3.247-1.745c-0.258,0.131-0.992,0.517-3.245,1.745c-2.725,1.484-7.667,4.199-10.837,5.94
      L82.023,39.44z"/>
    <polygon class="st7-dt" points="108.086,44.791 107.106,43.81 97.341,53.575 92.894,49.128 91.914,50.109 97.341,55.536"/>
  </g>
  <g transform="translate(1320, 0)">
    <path class="st21-lt" d="M171.651,149.22H28.35c-0.276,0-0.5-0.224-0.5-0.5V56.053c0-0.276,0.224-0.5,0.5-0.5h31.91
      c0.276,0,0.5,0.224,0.5,0.5s-0.224,0.5-0.5,0.5H28.85v91.667h142.302V56.553h-30.539c-0.276,0-0.5-0.224-0.5-0.5
      s0.224-0.5,0.5-0.5h31.039c0.276,0,0.5,0.224,0.5,0.5v92.667C172.151,148.996,171.928,149.22,171.651,149.22z"/>
    <rect x="99.5" y="149.355" class="st7-lt" width="1" height="37.964"/>
    <rect x="61.976" y="186.819" class="st7-lt" width="76.047" height="1"/>
    <path class="st21-lt" d="M100,96.526c-22.305,0-40.451-18.575-40.451-41.407c0-22.831,18.146-41.406,40.451-41.406
      s40.451,18.575,40.451,41.406C140.451,77.951,122.305,96.526,100,96.526z M100,14.713c-21.754,0-39.451,18.126-39.451,40.406
      S78.246,95.526,100,95.526s39.451-18.127,39.451-40.407S121.754,14.713,100,14.713z"/>
    <polygon points="118.165,65.263 100,47.098 81.835,65.263 80.421,63.848 100,44.269 119.579,63.848 		"/>
  </g>
  <g transform="translate(1320, 220)">
    <path class="st21-dt" d="M171.651,149.22H28.35c-0.276,0-0.5-0.224-0.5-0.5V56.053c0-0.276,0.224-0.5,0.5-0.5h31.91
      c0.276,0,0.5,0.224,0.5,0.5s-0.224,0.5-0.5,0.5H28.85v91.667h142.302V56.553h-30.539c-0.276,0-0.5-0.224-0.5-0.5
      s0.224-0.5,0.5-0.5h31.039c0.276,0,0.5,0.224,0.5,0.5v92.667C172.151,148.996,171.928,149.22,171.651,149.22z"/>
    <rect x="99.5" y="149.355" class="st7-dt" width="1" height="37.964"/>
    <rect x="61.976" y="186.819" class="st7-dt" width="76.047" height="1"/>
    <path class="st21-dt" d="M100,96.526c-22.305,0-40.451-18.575-40.451-41.407c0-22.831,18.146-41.406,40.451-41.406
      s40.451,18.575,40.451,41.406C140.451,77.951,122.305,96.526,100,96.526z M100,14.713c-21.754,0-39.451,18.126-39.451,40.406
      S78.246,95.526,100,95.526s39.451-18.127,39.451-40.407S121.754,14.713,100,14.713z"/>
    <polygon class="st7-dt" points="118.165,65.263 100,47.098 81.835,65.263 80.421,63.848 100,44.269 119.579,63.848 		"/>
  </g>
  <g transform="translate(1540, 0)">
    <path class="st23-lt" d="M170.055,81.608c0.026,0.791,0.06,1.581,0.06,2.379c0,38.723-31.391,70.115-70.115,70.115
      S29.885,122.71,29.885,83.987c0-0.798,0.034-1.587,0.06-2.379h-0.275v105.314h140.659V81.608H170.055z"/>
    <path class="st20-lt" d="M100,154.102c38.723,0,70.115-31.391,70.115-70.115c0-0.798-0.034-1.587-0.06-2.379
      C168.798,43.989,137.926,13.872,100,13.872S31.202,43.989,29.945,81.608c-0.026,0.791-0.06,1.581-0.06,2.379
      C29.885,122.71,61.277,154.102,100,154.102z"/>
    <path class="st11-lt" d="M127.577,68.015c-0.16-0.088-0.906-0.497-4.404-2.42c-4.431-2.434-13.342-7.329-17.968-9.851
      c-4.627-2.522-4.988-2.68-5.168-2.759l-0.013-0.005c-0.007-0.005-0.015-0.007-0.024-0.006c-0.008,0-0.016,0-0.023,0.006
      l-0.013,0.005c-0.18,0.079-0.54,0.237-5.168,2.759c-4.627,2.522-13.537,7.417-17.969,9.851c-3.498,1.922-4.245,2.332-4.404,2.42
      c-0.054,0.03-0.044,0.009-0.04,0.069c0.001,0.008,0.002,0.022,0.002,0.032c0.011,0.164,0.047,0.689,0.163,2.399
      c0.344,5.051,3.248,15.58,3.248,15.58c4.08,11.855,11.883,22.577,23.229,27.951l0.897,0.424l0.095,0.045l0.096-0.045l0.897-0.424
      c0.496-0.235,0.976-0.493,1.458-0.747c10.553-5.578,17.869-15.866,21.771-27.204h0.057c1.743-5.099,2.803-10.403,3.156-15.58
      c0.124-1.821,0.157-2.303,0.165-2.431C127.621,68.024,127.631,68.044,127.577,68.015z"/>
    <polygon class="st7-lt" points="96.78,91.966 87.751,82.937 88.837,81.851 96.78,89.794 111.163,75.412 112.249,76.498 	"/>
  </g>
  <g transform="translate(1540, 220)">
    <path class="st23-dt" d="M170.055,81.608c0.026,0.791,0.06,1.581,0.06,2.379c0,38.723-31.391,70.115-70.115,70.115
      S29.885,122.71,29.885,83.987c0-0.798,0.034-1.587,0.06-2.379h-0.275v105.314h140.659V81.608H170.055z"/>
    <path class="st20-dt" d="M100,154.102c38.723,0,70.115-31.391,70.115-70.115c0-0.798-0.034-1.587-0.06-2.379
      C168.798,43.989,137.926,13.872,100,13.872S31.202,43.989,29.945,81.608c-0.026,0.791-0.06,1.581-0.06,2.379
      C29.885,122.71,61.277,154.102,100,154.102z"/>
    <path class="st11-dt" d="M127.577,68.015c-0.16-0.088-0.906-0.497-4.404-2.42c-4.431-2.434-13.342-7.329-17.968-9.851
      c-4.627-2.522-4.988-2.68-5.168-2.759l-0.013-0.005c-0.007-0.005-0.015-0.007-0.024-0.006c-0.008,0-0.016,0-0.023,0.006
      l-0.013,0.005c-0.18,0.079-0.54,0.237-5.168,2.759c-4.627,2.522-13.537,7.417-17.969,9.851c-3.498,1.922-4.245,2.332-4.404,2.42
      c-0.054,0.03-0.044,0.009-0.04,0.069c0.001,0.008,0.002,0.022,0.002,0.032c0.011,0.164,0.047,0.689,0.163,2.399
      c0.344,5.051,3.248,15.58,3.248,15.58c4.08,11.855,11.883,22.577,23.229,27.951l0.897,0.424l0.095,0.045l0.096-0.045l0.897-0.424
      c0.496-0.235,0.976-0.493,1.458-0.747c10.553-5.578,17.869-15.866,21.771-27.204h0.057c1.743-5.099,2.803-10.403,3.156-15.58
      c0.124-1.821,0.157-2.303,0.165-2.431C127.621,68.024,127.631,68.044,127.577,68.015z"/>
    <polygon class="st7-dt" points="96.78,91.966 87.751,82.937 88.837,81.851 96.78,89.794 111.163,75.412 112.249,76.498 	"/>
  </g>
  <g transform="translate(1760, 0)">
    <path class="st18-lt" d="M99.708,166.539l-0.395-0.102l-0.94-0.445c-10.132-4.799-18.098-14.374-22.431-26.958
      c-0.126-0.454-2.794-10.168-3.122-14.981l-0.199-2.777l0.972-0.557l5.352-2.94c4.497-2.47,11.508-6.321,15.374-8.428
      c3.968-2.161,4.652-2.506,4.893-2.615l0.118-0.096l0.521-0.007l0.141,0.105c0.323,0.15,1.139,0.568,4.892,2.612
      c3.866,2.107,10.877,5.958,15.374,8.428l1.694,0.931c3.26,1.791,4.004,2.199,4.175,2.292l0.453,0.215l-0.197,2.837
      c-0.345,5.058-1.366,10.098-3.035,14.979l-0.22,0.479c-4.137,11.692-11.528,20.828-20.852,25.758l-0.169,0.089
      c-0.41,0.217-0.821,0.434-1.244,0.634L99.708,166.539z M74.106,122.056l0.13,1.9c0.319,4.672,3.033,14.558,3.061,14.658
      c4.194,12.179,11.899,21.461,21.683,26.095l0.638,0.302l0.639-0.302c0.403-0.191,0.796-0.399,1.187-0.605l0.17-0.09
      c9.13-4.827,16.353-13.863,20.339-25.443l0.215-0.478c1.533-4.614,2.474-9.367,2.799-14.137l0.13-1.9
      c-0.478-0.263-1.525-0.838-3.828-2.102l-1.694-0.931c-4.496-2.47-11.506-6.32-15.37-8.425c-3.157-1.72-4.211-2.277-4.605-2.475
      c-0.366,0.186-1.407,0.733-4.602,2.475c-3.864,2.105-10.874,5.956-15.37,8.425L74.106,122.056z"/>
    <polygon class="st18-lt" points="111.071,129.645 109.68,128.254 95.83,142.103 89.524,135.797 88.133,137.188 95.83,144.885 		"/>
    <path class="st39-lt" d="M148.884,134.533h8.034c18.126,0,32.82-14.694,32.82-32.82c0-16.519-12.206-30.182-28.089-32.476
    	c1.459-4.178,2.261-8.663,2.261-13.338c0-22.349-18.118-40.467-40.467-40.467c-18.065,0-33.361,11.84-38.562,28.182H55.722
    	c-25.106,0-45.459,20.353-45.459,45.459v0c0,23.032,17.129,42.064,39.343,45.051"/>
    <circle class="st15-lt" cx="99.524" cy="134.864" r="49.703"/>
  </g>
  <g transform="translate(1760, 220)">
    <path class="st18-dt" d="M99.708,166.539l-0.395-0.102l-0.94-0.445c-10.132-4.799-18.098-14.374-22.431-26.958
      c-0.126-0.454-2.794-10.168-3.122-14.981l-0.199-2.777l0.972-0.557l5.352-2.94c4.497-2.47,11.508-6.321,15.374-8.428
      c3.968-2.161,4.652-2.506,4.893-2.615l0.118-0.096l0.521-0.007l0.141,0.105c0.323,0.15,1.139,0.568,4.892,2.612
      c3.866,2.107,10.877,5.958,15.374,8.428l1.694,0.931c3.26,1.791,4.004,2.199,4.175,2.292l0.453,0.215l-0.197,2.837
      c-0.345,5.058-1.366,10.098-3.035,14.979l-0.22,0.479c-4.137,11.692-11.528,20.828-20.852,25.758l-0.169,0.089
      c-0.41,0.217-0.821,0.434-1.244,0.634L99.708,166.539z M74.106,122.056l0.13,1.9c0.319,4.672,3.033,14.558,3.061,14.658
      c4.194,12.179,11.899,21.461,21.683,26.095l0.638,0.302l0.639-0.302c0.403-0.191,0.796-0.399,1.187-0.605l0.17-0.09
      c9.13-4.827,16.353-13.863,20.339-25.443l0.215-0.478c1.533-4.614,2.474-9.367,2.799-14.137l0.13-1.9
      c-0.478-0.263-1.525-0.838-3.828-2.102l-1.694-0.931c-4.496-2.47-11.506-6.32-15.37-8.425c-3.157-1.72-4.211-2.277-4.605-2.475
      c-0.366,0.186-1.407,0.733-4.602,2.475c-3.864,2.105-10.874,5.956-15.37,8.425L74.106,122.056z"/>
    <polygon class="st18-dt" points="111.071,129.645 109.68,128.254 95.83,142.103 89.524,135.797 88.133,137.188 95.83,144.885 		"/>
    <path class="st39-dt" d="M148.884,134.533h8.034c18.126,0,32.82-14.694,32.82-32.82c0-16.519-12.206-30.182-28.089-32.476
    	c1.459-4.178,2.261-8.663,2.261-13.338c0-22.349-18.118-40.467-40.467-40.467c-18.065,0-33.361,11.84-38.562,28.182H55.722
    	c-25.106,0-45.459,20.353-45.459,45.459v0c0,23.032,17.129,42.064,39.343,45.051"/>
    <circle class="st15-dt" cx="99.524" cy="134.864" r="49.703"/>
  </g>
  <g transform="translate(1980, 0)"> 
    <rect x="82.505" y="163.059" class="st22-lt" width="37.515" height="11.125"/>
    <rect x="87.982" y="179.272" class="st22-lt" width="26.562" height="8.258"/>
    <line class="st19-lt" x1="101.263" y1="16.187" x2="101.263" y2="28.76"/>
    <line class="st19-lt" x1="61.474" y1="31.138" x2="70.455" y2="40.119"/>
    <line class="st19-lt" x1="141.051" y1="31.138" x2="132.07" y2="40.119"/>
    <path class="st22-lt" d="M159.475,98.221c0,31.445-26.063,56.937-58.213,56.937c-32.15,0-58.213-25.492-58.213-56.937"/>
    <path class="st3-lt" d="M43.05,99.575c0-31.445,26.063-56.937,58.213-56.937c32.15,0,58.213,25.492,58.213,56.937"/>
  </g>
  <g transform="translate(1980, 220)">
    <rect x="82.505" y="163.059" class="st22-dt" width="37.515" height="11.125"/>
    <rect x="87.982" y="179.272" class="st22-dt" width="26.562" height="8.258"/>
    <line class="st19-dt" x1="101.263" y1="16.187" x2="101.263" y2="28.76"/>
    <line class="st19-dt" x1="61.474" y1="31.138" x2="70.455" y2="40.119"/>
    <line class="st19-dt" x1="141.051" y1="31.138" x2="132.07" y2="40.119"/>
    <path class="st22-dt" d="M159.475,98.221c0,31.445-26.063,56.937-58.213,56.937c-32.15,0-58.213-25.492-58.213-56.937"/>
    <path class="st3-dt" d="M43.05,99.575c0-31.445,26.063-56.937,58.213-56.937c32.15,0,58.213,25.492,58.213,56.937"/>
  </g>
  <g transform="translate(2200, 0)">
    <polyline class="st19-lt" points="124.375,33.761 161.787,33.761 161.787,187.506 38.213,187.506 38.213,33.761 74.512,33.761 	"/>
    <rect x="58.324" y="147.279" class="st7-lt" width="80.566" height="2.123"/>
    <rect x="58.324" y="164.687" class="st7-lt" width="80.566" height="2.123"/>
    <path class="st10-lt" d="M128.961,44.131c-0.731-3.828-2.232-7.536-4.493-10.884l4.363-4.363l-7.957-7.957l-4.363,4.363
      c-3.348-2.261-7.056-3.761-10.884-4.493V14.61H94.374v6.217c-3.807,0.749-7.492,2.262-10.819,4.527l-4.429-4.428l-7.957,7.957
      l4.457,4.457c-2.225,3.323-3.703,6.998-4.428,10.79h-6.345v5.377v0.124v5.377h6.345c0.724,3.792,2.203,7.467,4.428,10.79
      l-4.457,4.457l7.957,7.957l4.429-4.428c3.326,2.265,7.011,3.777,10.819,4.527v6.217h11.253v-6.186
      c3.828-0.732,7.536-2.232,10.884-4.493l4.363,4.363l7.957-7.957l-4.363-4.363c2.261-3.348,3.762-7.056,4.493-10.884h6.186v-5.377
      v-0.124v-5.377H128.961z M112.256,61.616c-6.713,6.713-17.598,6.713-24.311,0c-3.329-3.329-5.005-7.684-5.032-12.047
      c0.027-4.363,1.703-8.718,5.032-12.047c6.713-6.713,17.598-6.713,24.311,0c3.329,3.329,5.005,7.684,5.032,12.047
      C117.261,53.932,115.585,58.287,112.256,61.616z"/>
    <rect x="58.324" y="126.141" class="st7-lt" width="80.566" height="2.123"/>
  </g>
  <g transform="translate(2200, 220)">
    <polyline class="st19-dt" points="124.375,33.761 161.787,33.761 161.787,187.506 38.213,187.506 38.213,33.761 74.512,33.761 	"/>
    <rect x="58.324" y="147.279" class="st7-dt" width="80.566" height="2.123"/>
    <rect x="58.324" y="164.687" class="st7-dt" width="80.566" height="2.123"/>
    <path class="st10-dt" d="M128.961,44.131c-0.731-3.828-2.232-7.536-4.493-10.884l4.363-4.363l-7.957-7.957l-4.363,4.363
      c-3.348-2.261-7.056-3.761-10.884-4.493V14.61H94.374v6.217c-3.807,0.749-7.492,2.262-10.819,4.527l-4.429-4.428l-7.957,7.957
      l4.457,4.457c-2.225,3.323-3.703,6.998-4.428,10.79h-6.345v5.377v0.124v5.377h6.345c0.724,3.792,2.203,7.467,4.428,10.79
      l-4.457,4.457l7.957,7.957l4.429-4.428c3.326,2.265,7.011,3.777,10.819,4.527v6.217h11.253v-6.186
      c3.828-0.732,7.536-2.232,10.884-4.493l4.363,4.363l7.957-7.957l-4.363-4.363c2.261-3.348,3.762-7.056,4.493-10.884h6.186v-5.377
      v-0.124v-5.377H128.961z M112.256,61.616c-6.713,6.713-17.598,6.713-24.311,0c-3.329-3.329-5.005-7.684-5.032-12.047
      c0.027-4.363,1.703-8.718,5.032-12.047c6.713-6.713,17.598-6.713,24.311,0c3.329,3.329,5.005,7.684,5.032,12.047
      C117.261,53.932,115.585,58.287,112.256,61.616z"/>
    <rect x="58.324" y="126.141" class="st7-dt" width="80.566" height="2.123"/>
  </g>
  <g transform="translate(2420, 0)">
    <line class="st19-lt" x1="99.651" y1="32.996" x2="99.651" y2="18.824"/>
    <line class="st19-lt" x1="124.657" y1="18.824" x2="74.645" y2="18.824"/>
    <path class="st20-lt" d="M173.806,109.026c0.013-0.567,0.043-1.129,0.043-1.699c0-0.027-0.002-0.054-0.002-0.081
      c0.058-18.974-7.15-37.965-21.627-52.442c-28.84-28.84-75.598-28.84-104.438,0C34.116,68.47,26.937,86.161,26.223,104.062
      c-0.012,0.285-0.011,0.574-0.02,0.86c-0.021,0.738-0.048,1.476-0.048,2.215c0,0.064-0.004,0.126-0.004,0.19
      c0,40.786,33.063,73.849,73.849,73.849c39.788,0,72.21-31.469,73.774-70.873C173.793,109.877,173.795,109.451,173.806,109.026z"/>
    <path class="st20-lt" d="M136.56,62.238c-19.807-19.807-51.92-19.807-71.726,0"/>
    <path class="st20-lt" d="M126.525,71.614c-14.265-14.265-37.392-14.265-51.657,0"/>
    <path class="st20-lt" d="M116.88,81.472c-8.938-8.938-23.428-8.938-32.366,0"/>
    <circle class="st19-lt" cx="99.822" cy="108.468" r="10.19"/>
    <line class="st19-lt" x1="151.383" y1="68.138" x2="108.16" y2="101.946"/>
  </g>
  <g transform="translate(2420, 220)">
    <line class="st19-dt" x1="99.651" y1="32.996" x2="99.651" y2="18.824"/>
    <line class="st19-dt" x1="124.657" y1="18.824" x2="74.645" y2="18.824"/>
    <path class="st20-dt" d="M173.806,109.026c0.013-0.567,0.043-1.129,0.043-1.699c0-0.027-0.002-0.054-0.002-0.081
      c0.058-18.974-7.15-37.965-21.627-52.442c-28.84-28.84-75.598-28.84-104.438,0C34.116,68.47,26.937,86.161,26.223,104.062
      c-0.012,0.285-0.011,0.574-0.02,0.86c-0.021,0.738-0.048,1.476-0.048,2.215c0,0.064-0.004,0.126-0.004,0.19
      c0,40.786,33.063,73.849,73.849,73.849c39.788,0,72.21-31.469,73.774-70.873C173.793,109.877,173.795,109.451,173.806,109.026z"/>
    <path class="st20-dt" d="M136.56,62.238c-19.807-19.807-51.92-19.807-71.726,0"/>
    <path class="st20-dt" d="M126.525,71.614c-14.265-14.265-37.392-14.265-51.657,0"/>
    <path class="st20-dt" d="M116.88,81.472c-8.938-8.938-23.428-8.938-32.366,0"/>
    <circle class="st19-dt" cx="99.822" cy="108.468" r="10.19"/>
    <line class="st19-dt" x1="151.383" y1="68.138" x2="108.16" y2="101.946"/>
  </g>
  <g transform="translate(2420, 440)">
    <line class="st19-lt wider-stroke" x1="99.651" y1="32.996" x2="99.651" y2="18.824"/>
    <line class="st19-lt wider-stroke" x1="124.657" y1="18.824" x2="74.645" y2="18.824"/>
    <path class="st20 wider-stroke" d="M173.806,109.026c0.013-0.567,0.043-1.129,0.043-1.699c0-0.027-0.002-0.054-0.002-0.081
      c0.058-18.974-7.15-37.965-21.627-52.442c-28.84-28.84-75.598-28.84-104.438,0C34.116,68.47,26.937,86.161,26.223,104.062
      c-0.012,0.285-0.011,0.574-0.02,0.86c-0.021,0.738-0.048,1.476-0.048,2.215c0,0.064-0.004,0.126-0.004,0.19
      c0,40.786,33.063,73.849,73.849,73.849c39.788,0,72.21-31.469,73.774-70.873C173.793,109.877,173.795,109.451,173.806,109.026z"/>
    <path class="st20 wider-stroke" d="M136.56,62.238c-19.807-19.807-51.92-19.807-71.726,0"/>
    <path class="st20 wider-stroke" d="M126.525,71.614c-14.265-14.265-37.392-14.265-51.657,0"/>
    <path class="st20 wider-stroke" d="M116.88,81.472c-8.938-8.938-23.428-8.938-32.366,0"/>
    <circle class="st19-lt wider-stroke" cx="99.822" cy="108.468" r="10.19"/>
    <line class="st19-lt wider-stroke" x1="151.383" y1="68.138" x2="108.16" y2="101.946"/>
  </g>
  <g transform="translate(2640, 0)">
  	<rect x="37.333" y="146.147" class="st15-lt" width="130.667" height="40.837"/>
  	<rect x="37.333" y="15.473" class="st6-lt" width="130.667" height="130.667"/>
  	<line class="st23-lt" x1="102.667" y1="45.556" x2="102.667" y2="116.477"/>
  	<line class="st15-lt" x1="67.206" y1="166.103" x2="138.127" y2="166.103"/>
  	<polyline class="st23-lt" points="122.574,96.569 102.667,116.477 82.759,96.569 	"/>
  </g>
  <g transform="translate(2640, 220)">
  	<rect x="37.333" y="146.147" class="st15-dt" width="130.667" height="40.837"/>
  	<rect x="37.333" y="15.473" class="st6-dt" width="130.667" height="130.667"/>
  	<line class="st23-dt" x1="102.667" y1="45.556" x2="102.667" y2="116.477"/>
  	<line class="st15-dt" x1="67.206" y1="166.103" x2="138.127" y2="166.103"/>
  	<polyline class="st23-dt" points="122.574,96.569 102.667,116.477 82.759,96.569 	"/>
  </g>
  <g transform="translate(2860, 0)">
    <path class="st11-lt" d="M147.3,141.4l7.4,7.4l17.1-17.1l-9.4-9.4c4.8-7.2,8.1-15.1,9.6-23.3h13.3V87.5v-0.3V75.7H172
      c-1.6-8.2-4.8-16.2-9.6-23.3l9.4-9.4l-17.1-17.1l-9.4,9.4c-7.2-4.8-15.1-8.1-23.3-9.6V12.4H97.9v13.3c-8.2,1.6-16.1,4.8-23.2,9.7
      l-9.5-9.5L48.1,43l9.6,9.6c-4.8,7.1-7.9,15-9.5,23.1H34.6v11.5v0.3V99 M74.9,97.8c-1.4-4.7-1.6-8.6-1.6-10.4
      c0-7.9,2.6-13.9,4.3-17.1c1.7-3.1,3.8-6.1,6.5-8.7c14.4-14.4,37.7-14.4,52.1,0c2.6,2.6,4.8,5.6,6.5,8.7c1,2,2.5,5.1,3.4,9.1"/>
    <polygon class="st10-lt" points="14.7,187.6 14.7,98.6 93.2,98.6 110.1,79.7 147.5,79.7 147.5,187.6 "/>
    <line class="st10-lt" x1="62.9" y1="156.3" x2="62.9" y2="125.2"/>
    <polyline class="st10-lt" points="50.2,137.9 62.9,125.2 75.6,137.9 	"/>
    <line class="st11-lt" x1="95.8" y1="125.2" x2="95.8" y2="156.3"/>
    <polyline class="st11-lt" points="108.4,143.6 95.8,156.3 83.1,143.6 	"/>
  </g>
  <g transform="translate(2860, 220)">
    <path class="st11-dt" d="M147.3,141.4l7.4,7.4l17.1-17.1l-9.4-9.4c4.8-7.2,8.1-15.1,9.6-23.3h13.3V87.5v-0.3V75.7H172
      c-1.6-8.2-4.8-16.2-9.6-23.3l9.4-9.4l-17.1-17.1l-9.4,9.4c-7.2-4.8-15.1-8.1-23.3-9.6V12.4H97.9v13.3c-8.2,1.6-16.1,4.8-23.2,9.7
      l-9.5-9.5L48.1,43l9.6,9.6c-4.8,7.1-7.9,15-9.5,23.1H34.6v11.5v0.3V99 M74.9,97.8c-1.4-4.7-1.6-8.6-1.6-10.4
      c0-7.9,2.6-13.9,4.3-17.1c1.7-3.1,3.8-6.1,6.5-8.7c14.4-14.4,37.7-14.4,52.1,0c2.6,2.6,4.8,5.6,6.5,8.7c1,2,2.5,5.1,3.4,9.1"/>
    <polygon class="st10-dt" points="14.7,187.6 14.7,98.6 93.2,98.6 110.1,79.7 147.5,79.7 147.5,187.6 "/>
    <line class="st10-dt" x1="62.9" y1="156.3" x2="62.9" y2="125.2"/>
    <polyline class="st10-dt" points="50.2,137.9 62.9,125.2 75.6,137.9 	"/>
    <line class="st11-dt" x1="95.8" y1="125.2" x2="95.8" y2="156.3"/>
    <polyline class="st11-dt" points="108.4,143.6 95.8,156.3 83.1,143.6 	"/>
  </g>
  <g transform="translate(3060, 0), scale(1.3)">
    <polygon class="st20-lt" points="100,125.125 116.62,141.745 158.365,100 116.62,58.255 100,74.876 125.124,100 	"/>
    <polygon class="st16-lt" points="41.635,100 83.38,141.745 100,125.124 74.875,100 100,74.876 83.38,58.256 	"/>
    <circle class="st19-lt" cx="100.235" cy="99.349" r="9.449"/>
    <line class="st19-lt" x1="100.288" y1="86.254" x2="100.288" y2="89.172"/>
    <line class="st19-lt" x1="100.288" y1="109.526" x2="100.288" y2="112.445"/>
    <line class="st19-lt" x1="113.383" y1="99.349" x2="110.464" y2="99.349"/>
    <line class="st19-lt" x1="90.111" y1="99.349" x2="87.192" y2="99.349"/>
    <line class="st19-lt" x1="109.547" y1="90.089" x2="107.484" y2="92.153"/>
    <line class="st19-lt" x1="93.091" y1="106.545" x2="91.028" y2="108.609"/>
    <line class="st19-lt" x1="109.547" y1="108.609" x2="107.484" y2="106.545"/>
    <line class="st19-lt" x1="93.091" y1="92.153" x2="91.028" y2="90.089"/>
  </g>
  <g transform="translate(3060, 220), scale(1.3)">
    <polygon class="st20-dt" points="100,125.125 116.62,141.745 158.365,100 116.62,58.255 100,74.876 125.124,100 	"/>
    <polygon class="st16-dt" points="41.635,100 83.38,141.745 100,125.124 74.875,100 100,74.876 83.38,58.256 	"/>
    <circle class="st19-dt" cx="100.235" cy="99.349" r="9.449"/>
    <line class="st19-dt" x1="100.288" y1="86.254" x2="100.288" y2="89.172"/>
    <line class="st19-dt" x1="100.288" y1="109.526" x2="100.288" y2="112.445"/>
    <line class="st19-dt" x1="113.383" y1="99.349" x2="110.464" y2="99.349"/>
    <line class="st19-dt" x1="90.111" y1="99.349" x2="87.192" y2="99.349"/>
    <line class="st19-dt" x1="109.547" y1="90.089" x2="107.484" y2="92.153"/>
    <line class="st19-dt" x1="93.091" y1="106.545" x2="91.028" y2="108.609"/>
    <line class="st19-dt" x1="109.547" y1="108.609" x2="107.484" y2="106.545"/>
    <line class="st19-dt" x1="93.091" y1="92.153" x2="91.028" y2="90.089"/>
  </g>
  <g transform="translate(3260, 0), scale(1.2)">
    <path class="st24" d="M75.602,127.486h23.976v-10.063c0.001-22.498,0.001-44.997-0.006-67.494
      c-0.001-3.108-1.545-5.445-4.465-6.758c-4.695-2.113-10.189-0.146-13.062,4.676c-0.243,0.41-0.317,0.841-0.379,1.206
      c-0.352,2.04-0.228,3.838,0.379,5.498c0.169,0.463,0.057,0.772-0.331,0.919c-0.152,0.056-0.282,0.058-0.399,0.002
      c-0.18-0.084-0.342-0.301-0.445-0.597c-0.293-0.837-0.475-1.566-0.565-2.319c-0.386-3.17-0.846-3.612-4.101-3.946
      c-0.615-0.062-1.151-0.069-1.646-0.023c-5.065,0.472-8.454,4.61-8.24,10.063c0.043,1.095-0.043,1.372-0.049,1.405
      c-0.064,0.043-0.328,0.147-1.397,0.191c-5.746,0.235-9.644,2.769-11.583,7.527c-1.538,3.771-1.484,7.744,0.158,11.809
      c0.457,1.132,0.39,1.408,0.384,1.429c-0.017,0.023-0.188,0.242-1.318,0.563c-7.373,2.096-11.253,8.25-9.886,15.677
      c0.97,5.255,3.691,8.518,8.09,9.696c1.59,0.426,3.23,0.504,4.816,0.579c0.372,0.018,0.743,0.035,1.112,0.058
      c1.02,0.061,1.039,0.402,1.049,0.566c0.009,0.151-0.01,0.361-0.146,0.501c-0.125,0.127-0.353,0.193-0.636,0.179
      c-1.222-0.051-2.479-0.177-3.695-0.299c-0.889-0.089-1.777-0.178-2.667-0.242c-0.639-0.045-1.552-0.002-2.277,0.466
      c-3.784,2.441-5.378,7.003-4.06,11.623c1.193,4.173,3.562,6.559,7.24,7.292c1.323,0.263,2.322-0.129,3.062-1.196
      c1.114-1.607,2.646-2.96,4.55-4.022c0.983-0.547,1.191-0.202,1.302-0.017c0.108,0.179,0.31,0.512-0.641,1.098
      c-4.119,2.542-6.398,5.92-6.969,10.327c-0.84,6.492,2.493,12.336,8.294,14.54c3.873,1.475,8.029,1.304,12.356-0.507
      c1.025-0.431,1.267-0.326,1.268-0.326c0.003,0.001,0.224,0.132,0.505,1.118c0.73,2.561,1.973,4.561,3.799,6.115
      c2.249,1.916,4.964,2.914,7.77,2.914c1.133,0,2.28-0.163,3.418-0.494c4.127-1.202,7.375-4.467,8.688-8.734
      c0.542-1.764,0.742-3.441,0.635-5H75.602V127.486z M91.563,80.079c0.01,3.457-2.71,6.364-6.192,6.618
      c-0.228,0.021-0.986,0.026-1.041-0.585c-0.015-0.163-0.049-0.547,0.861-0.661c3.092-0.386,5.093-2.484,5.098-5.348
      c0.004-2.857-2.05-4.999-5.111-5.329c-0.407-0.043-0.885-0.2-0.848-0.698c0.014-0.173,0.044-0.574,0.919-0.574
      c0.016,0,0.032,0.001,0.049,0.001C88.685,73.557,91.555,76.568,91.563,80.079L91.563,80.079z M70.566,65.7
      c0.081-0.068,0.2-0.17,0.375-0.17c0.137,0,0.308,0.062,0.52,0.254c3.501,3.162,5.964,3.135,9.411-0.097
      c1.951-1.831,3.847-2.825,5.965-3.131c1.755-0.252,3.466,0.021,5.084,0.815c0.618,0.304,0.457,0.676,0.396,0.815
      c-0.058,0.135-0.164,0.308-0.338,0.376c-0.182,0.07-0.394,0.008-0.54-0.058c-3.256-1.447-6.362-0.842-9.499,1.851
      c-1.026,0.882-2.312,1.728-4.046,2.661c-0.356,0.192-0.882,0.275-1.438,0.363c-0.252,0.039-0.503,0.08-0.749,0.129
      c-2.138-0.197-3.851-1.177-5.229-2.991C70.179,66.126,70.404,65.837,70.566,65.7z M66.295,99.47
      c-0.147,0.168-0.282,0.348-0.416,0.528c-0.099,0.133-0.196,0.266-0.305,0.389c-0.216,0.244-0.586,0.439-0.92,0.183
      c-0.27-0.208-0.31-0.536-0.104-0.856c1.03-1.605,2.416-2.917,4.236-4.009c0.37-0.222,0.75-0.426,1.149-0.64l1.425-0.778
      l-0.21-0.919c-1.104-4.844-3.964-8.291-8.502-10.247c-0.16-0.069-0.326-0.126-0.492-0.182c-0.098-0.032-0.194-0.063-0.286-0.103
      c-0.244-0.103-0.789-0.397-0.579-0.921c0.19-0.475,0.746-0.338,0.979-0.256c4.887,1.729,8.071,4.989,9.736,9.968
      c0.093,0.277,0.169,0.559,0.253,0.865l0.397,1.413H73.6c0.409,0,0.818-0.012,1.227-0.024c0.831-0.024,1.615-0.049,2.361,0.036
      c6.476,0.732,11.471,6.011,11.877,12.55c0.064,1.025-0.137,1.13-0.35,1.241c-0.185,0.096-0.357,0.104-0.511,0.026
      c-0.209-0.109-0.359-0.362-0.401-0.677c-0.033-0.244-0.062-0.491-0.091-0.738c-0.113-0.969-0.23-1.97-0.563-2.952
      c-1.489-4.384-4.655-7.172-9.155-8.064c-0.866-0.171-1.716-0.257-2.546-0.257C71.969,95.046,68.841,96.548,66.295,99.47z
      M72.487,118.521c-1.024-3.496,0.388-7.299,3.434-9.249c0.368-0.235,0.625-0.312,0.807-0.312c0.253,0,0.359,0.148,0.414,0.224
      c0.161,0.225,0.127,0.343,0.111,0.399c-0.028,0.102-0.148,0.374-0.639,0.727c-3.175,2.279-4.112,6.132-2.279,9.369
      c1.836,3.241,5.76,4.441,9.326,2.855c1.039-0.459,1.216-0.064,1.275,0.063c0.119,0.261,0.062,0.404,0.043,0.452
      c-0.082,0.205-0.338,0.406-0.7,0.551c-0.857,0.341-1.758,0.589-2.712,0.852c-0.36,0.1-0.722,0.198-1.08,0.303
      C76.717,124.517,73.517,122.033,72.487,118.521z"/>
    <path class="st8-lt" d="M77.994,95.303c4.5,0.893,7.666,3.681,9.155,8.064c0.333,0.982,0.45,1.983,0.563,2.952
      c0.029,0.247,0.058,0.494,0.091,0.738c0.042,0.314,0.192,0.567,0.401,0.677c0.153,0.078,0.326,0.069,0.511-0.026
      c0.213-0.111,0.414-0.216,0.35-1.241c-0.406-6.539-5.401-11.817-11.877-12.55c-0.746-0.085-1.53-0.061-2.361-0.036
      c-0.408,0.013-0.817,0.024-1.227,0.024h-0.944l-0.397-1.413c-0.084-0.307-0.16-0.588-0.253-0.865
      c-1.665-4.979-4.85-8.239-9.736-9.968c-0.232-0.082-0.788-0.219-0.979,0.256c-0.21,0.523,0.335,0.818,0.579,0.921
      c0.092,0.039,0.188,0.07,0.286,0.103c0.166,0.056,0.332,0.112,0.492,0.182c4.538,1.956,7.398,5.403,8.502,10.247l0.21,0.919
      l-1.425,0.778c-0.399,0.214-0.779,0.418-1.149,0.64c-1.82,1.092-3.206,2.403-4.236,4.009c-0.205,0.32-0.165,0.648,0.104,0.856
      c0.334,0.257,0.704,0.062,0.92-0.183c0.108-0.123,0.206-0.256,0.305-0.389c0.134-0.181,0.269-0.36,0.416-0.528
      c2.546-2.922,5.674-4.424,9.153-4.424C76.278,95.046,77.128,95.132,77.994,95.303z"/>
    <path class="st8-lt" d="M81.567,124.452c0.954-0.263,1.854-0.511,2.712-0.852c0.362-0.145,0.618-0.346,0.7-0.551
      c0.019-0.048,0.076-0.191-0.043-0.452c-0.06-0.128-0.236-0.522-1.275-0.063c-3.566,1.586-7.49,0.386-9.326-2.855
      c-1.833-3.237-0.896-7.09,2.279-9.369c0.49-0.353,0.61-0.625,0.639-0.727c0.016-0.057,0.05-0.175-0.111-0.399
      c-0.055-0.075-0.161-0.224-0.414-0.224c-0.182,0-0.438,0.076-0.807,0.312c-3.046,1.95-4.458,5.753-3.434,9.249
      c1.03,3.512,4.229,5.996,8,6.234C80.846,124.651,81.207,124.552,81.567,124.452z"/>
    <path class="st8-lt" d="M75.706,69.509c0.246-0.049,0.497-0.09,0.749-0.129c0.557-0.088,1.082-0.171,1.438-0.363
      c1.733-0.934,3.02-1.779,4.046-2.661c3.137-2.692,6.243-3.298,9.499-1.851c0.146,0.065,0.358,0.128,0.54,0.058
      c0.174-0.068,0.28-0.241,0.338-0.376c0.062-0.14,0.223-0.512-0.396-0.815c-1.618-0.794-3.329-1.067-5.084-0.815
      c-2.118,0.306-4.014,1.3-5.965,3.131c-3.447,3.231-5.91,3.259-9.411,0.097c-0.212-0.191-0.383-0.254-0.52-0.254
      c-0.175,0-0.294,0.102-0.375,0.17c-0.162,0.138-0.388,0.427-0.09,0.818C71.855,68.332,73.568,69.312,75.706,69.509z"/>
    <path class="st8-lt" d="M85.298,73.503c-0.017,0-0.033-0.001-0.049-0.001c-0.875,0-0.905,0.401-0.919,0.574c-0.037,0.498,0.44,0.655,0.848,0.698
      c3.062,0.33,5.115,2.472,5.111,5.329c-0.005,2.863-2.006,4.962-5.098,5.348c-0.91,0.114-0.876,0.498-0.861,0.661
      c0.055,0.611,0.813,0.605,1.041,0.585c3.482-0.254,6.202-3.161,6.192-6.618v-0.001C91.555,76.568,88.685,73.557,85.298,73.503z"/>
    <path class="st8-lt" d="M94.937,137.114c-0.07-0.987-0.137-1.919-0.303-2.826c-0.071-0.384-0.218-0.674-0.403-0.795
      c-0.043-0.028-0.173-0.112-0.452-0.047c-0.137,0.033-0.559,0.129-0.313,1.238c0.855,3.808-1.092,7.42-4.631,8.584
      c-3.534,1.162-7.128-0.514-8.739-4.074c-0.249-0.55-0.493-0.721-0.587-0.769c-0.052-0.026-0.162-0.083-0.413,0.031
      c-0.084,0.039-0.251,0.114-0.301,0.362c-0.036,0.178-0.011,0.445,0.147,0.852c1.314,3.369,4.766,5.501,8.395,5.182
      c3.646-0.321,6.71-2.97,7.684-6.62C94.99,137.861,94.964,137.487,94.937,137.114z"/>
    <rect x="100.907" y="61.732" class="st24" width="0.057" height="20.741"/>
    <rect x="100.943" y="98.662" class="st24" width="0.02" height="13.854"/>
    <rect x="100.905" y="83.735" class="st24" width="0.058" height="13.512"/>
    <rect x="100.935" y="113.892" class="st24" width="0.028" height="22.118"/>
    <path class="st24" d="M99.578,117.423c0.001-22.498,0.001-44.997-0.006-67.494c-0.001-3.108-1.545-5.445-4.465-6.758
      c-4.695-2.113-10.189-0.146-13.062,4.676c-0.243,0.41-0.317,0.841-0.379,1.206c-0.352,2.04-0.228,3.838,0.379,5.498
      c0.169,0.463,0.057,0.772-0.331,0.919c-0.152,0.056-0.282,0.058-0.399,0.002c-0.18-0.084-0.342-0.301-0.445-0.597
      c-0.293-0.837-0.475-1.566-0.565-2.319c-0.386-3.17-0.846-3.612-4.101-3.946c-0.615-0.062-1.151-0.069-1.646-0.023
      c-5.065,0.472-8.454,4.61-8.24,10.063c0.043,1.095-0.043,1.372-0.049,1.405c-0.064,0.043-0.328,0.147-1.397,0.191
      c-5.746,0.235-9.644,2.769-11.583,7.527c-1.538,3.771-1.484,7.744,0.158,11.809c0.457,1.132,0.39,1.408,0.384,1.429
      c-0.017,0.023-0.188,0.242-1.318,0.563c-7.373,2.096-11.253,8.25-9.886,15.677c0.97,5.255,3.691,8.518,8.09,9.696
      c1.59,0.426,3.23,0.504,4.816,0.579c0.372,0.018,0.743,0.035,1.112,0.058c1.02,0.061,1.039,0.402,1.049,0.566
      c0.009,0.151-0.01,0.361-0.146,0.501c-0.125,0.127-0.353,0.193-0.636,0.179c-1.222-0.051-2.479-0.177-3.695-0.299
      c-0.889-0.089-1.777-0.178-2.667-0.242c-0.639-0.045-1.552-0.002-2.277,0.466c-3.784,2.441-5.378,7.003-4.06,11.623
      c1.193,4.173,3.562,6.559,7.24,7.292c1.323,0.263,2.322-0.129,3.062-1.196c1.114-1.607,2.646-2.96,4.55-4.022
      c0.983-0.547,1.191-0.202,1.302-0.017c0.108,0.179,0.31,0.512-0.641,1.098c-4.119,2.542-6.398,5.92-6.969,10.327
      c-0.84,6.492,2.493,12.336,8.294,14.54c3.873,1.475,8.029,1.304,12.356-0.507c1.025-0.431,1.267-0.326,1.268-0.326
      c0.003,0.001,0.224,0.132,0.505,1.118c0.73,2.561,1.973,4.561,3.799,6.115c2.249,1.916,4.964,2.914,7.77,2.914
      c1.133,0,2.28-0.163,3.418-0.494c4.127-1.202,7.375-4.467,8.688-8.734c0.542-1.764,0.742-3.441,0.635-5h0.113v-16h-0.024V117.423z"
      />
    <rect class="st8-lt" x="100.964" y="99.709" width="26.383" height="1"/>
    <polygon class="st8-lt" points="115.979,84.235 100.964,84.235 100.964,83.235 115.565,83.235 125.291,73.515 125.998,74.222 	"/>
    <polygon class="st8-lt" points="125.291,127.152 115.565,117.433 100.964,117.433 100.964,116.433 115.979,116.433 125.998,126.445 	"/>
    <path class="st8-lt" d="M133.899,107.262c-3.889,0-7.053-3.164-7.053-7.053c0-3.89,3.164-7.054,7.053-7.054c3.89,0,7.054,3.164,7.054,7.054
      C140.953,104.098,137.789,107.262,133.899,107.262z M133.899,94.156c-3.338,0-6.053,2.716-6.053,6.054s2.715,6.053,6.053,6.053
      s6.054-2.715,6.054-6.053S137.237,94.156,133.899,94.156z"/>
    <path class="st8-lt" d="M129.474,75.986c-3.89,0-7.054-3.164-7.054-7.053c0-3.89,3.164-7.054,7.054-7.054c3.889,0,7.053,3.164,7.053,7.054
      C136.527,72.822,133.363,75.986,129.474,75.986z M129.474,62.879c-3.338,0-6.054,2.716-6.054,6.054s2.716,6.053,6.054,6.053
      s6.053-2.715,6.053-6.053S132.812,62.879,129.474,62.879z"/>
    <path class="st8-lt" d="M129.474,139.305c-3.89,0-7.054-3.164-7.054-7.053c0-3.89,3.164-7.054,7.054-7.054c3.889,0,7.053,3.164,7.053,7.054
      C136.527,136.141,133.363,139.305,129.474,139.305z M129.474,126.199c-3.338,0-6.054,2.716-6.054,6.054s2.716,6.053,6.054,6.053
      s6.053-2.715,6.053-6.053S132.812,126.199,129.474,126.199z"/>
    <rect class="st8-lt" x="100.793" y="63.837" width="9.532" height="1"/>
    <rect class="st8-lt" x="100.793" y="134.475" width="9.532" height="1"/>
    <path class="st8-lt" d="M113.347,68.242c-1.941,0-3.521-1.58-3.521-3.521c0-1.941,1.58-3.521,3.521-3.521s3.521,1.58,3.521,3.521
      C116.868,66.661,115.288,68.242,113.347,68.242z M113.347,62.199c-1.391,0-2.521,1.131-2.521,2.521
      c0,1.391,1.131,2.521,2.521,2.521s2.521-1.131,2.521-2.521C115.868,63.329,114.737,62.199,113.347,62.199z"/>
    <path class="st8-lt" d="M113.347,138.879c-1.941,0-3.521-1.58-3.521-3.521s1.58-3.521,3.521-3.521s3.521,1.579,3.521,3.521
      S115.288,138.879,113.347,138.879z M113.347,132.837c-1.391,0-2.521,1.131-2.521,2.521c0,1.391,1.131,2.521,2.521,2.521
      s2.521-1.131,2.521-2.521C115.868,133.968,114.737,132.837,113.347,132.837z"/>
    <line class="st16-lt" x1="100.283" y1="47.656" x2="100.283" y2="140.082"/>
    <path class="st35-lt" d="M158.917,96.36v-3.497c-0.067-0.279-0.131-0.56-0.193-0.839c-0.158-0.697-0.307-1.355-0.51-1.987
      c-1.349-4.18-4.007-7.089-8.127-8.896l-1.347-0.581l-0.737-0.814l0.159-0.739c1.49-4.911,1.165-9.222-0.994-13.178
      c-2.215-4.056-5.789-6.271-10.926-6.773l-0.914-0.089l-0.188-0.899c-0.087-0.416-0.162-0.831-0.236-1.241
      c-0.149-0.824-0.29-1.604-0.522-2.323c-1.794-5.554-6.769-8.23-12.674-6.81c-1.399,0.332-2.332-0.019-3.125-1.184
      c-2.979-4.358-8.098-6.377-12.738-5.024c-1.872,0.546-3.418,1.614-4.725,3.266l-0.938,1.184l-0.988-1.141
      c-2.217-2.562-4.857-3.771-8.054-3.701c-4.067,0.089-7.282,1.901-9.826,5.54c-0.347,0.498-1.068,1.535-2.707,1.148
      c-3.637-0.854-6.842-0.384-9.271,1.357c-2.449,1.756-3.937,4.677-4.301,8.446c-0.017,0.188-0.068,0.339-0.105,0.448l-0.28,0.92
      l-0.831,0.083c-5.16,0.513-8.74,2.705-10.945,6.702c-2.199,3.986-2.528,8.353-1.008,13.347l0.34,1.113l-1.087,0.418
      c-5.746,2.209-8.956,5.973-9.812,11.509c-0.88,5.694,0.846,10.385,5.275,14.339l1.038,0.927l-1.032,0.933
      c-3.537,3.199-4.808,7.143-3.776,11.721c1.101,4.886,3.852,7.817,8.409,8.963l1.203,0.302l-0.293,1.206
      c-1.736,7.128-0.485,12.295,3.937,16.261c4.448,3.991,9.903,4.896,16.676,2.772l0.97-0.305l0.589,1.049
      c0.097,0.163,0.183,0.314,0.252,0.472c1.987,4.521,5.326,7.134,10.211,7.992c0.208,0.037,0.379,0.108,0.513,0.176h3.286
      l0.535-0.132c0.468-0.114,0.937-0.229,1.398-0.361c3.361-0.968,5.924-2.874,7.837-5.826l1.765-2.74l1.267,2.059
      c0.156,0.255,0.297,0.485,0.442,0.715c2.163,3.401,5.122,5.394,9.045,6.089c0.261,0.046,0.478,0.129,0.654,0.197h3.377l0.454-0.115
      c0.458-0.115,0.915-0.23,1.367-0.361c3.985-1.152,6.766-3.499,8.504-7.175c0.154-0.326,0.316-0.651,0.479-0.974l0.208-0.411
      l0.893-0.451l0.534,0.191c6.069,2.172,12.51,1.016,16.809-3.02c4.217-3.957,5.603-9.813,3.802-16.066l-0.358-1.246l1.258-0.312
      c4.497-1.117,7.22-4.028,8.324-8.898c1.053-4.643-0.195-8.508-3.815-11.816l-1.092-0.997l1.165-0.911
      C156.318,104.099,158.068,100.916,158.917,96.36z M99.602,143.486h-0.113c0.107,1.558-0.093,3.236-0.635,5
      c-1.312,4.268-4.561,7.532-8.688,8.734c-1.138,0.331-2.285,0.494-3.418,0.494c-2.806,0-5.521-0.998-7.77-2.914
      c-1.826-1.555-3.068-3.555-3.799-6.115c-0.281-0.986-0.502-1.117-0.505-1.118c-0.001,0-0.242-0.104-1.268,0.326
      c-4.327,1.811-8.483,1.981-12.356,0.507c-5.801-2.204-9.134-8.048-8.294-14.54c0.57-4.407,2.85-7.785,6.969-10.327
      c0.95-0.586,0.749-0.919,0.641-1.098c-0.11-0.186-0.318-0.53-1.302,0.017c-1.904,1.062-3.436,2.415-4.55,4.022
      c-0.74,1.067-1.739,1.459-3.062,1.196c-3.679-0.733-6.047-3.119-7.24-7.292c-1.318-4.62,0.275-9.182,4.06-11.623
      c0.726-0.468,1.639-0.511,2.277-0.466c0.89,0.064,1.778,0.153,2.667,0.242c1.216,0.122,2.474,0.248,3.695,0.299
      c0.283,0.015,0.511-0.052,0.636-0.179c0.137-0.14,0.155-0.35,0.146-0.501c-0.01-0.164-0.029-0.506-1.049-0.566
      c-0.369-0.022-0.74-0.04-1.112-0.058c-1.586-0.075-3.227-0.153-4.816-0.579c-4.398-1.179-7.12-4.441-8.09-9.696
      c-1.367-7.427,2.513-13.581,9.886-15.677c1.13-0.321,1.302-0.54,1.318-0.563c0.006-0.021,0.073-0.297-0.384-1.429
      c-1.643-4.064-1.696-8.037-0.158-11.809c1.939-4.759,5.837-7.292,11.583-7.527c1.069-0.044,1.333-0.148,1.397-0.191
      c0.006-0.033,0.092-0.311,0.049-1.405c-0.214-5.453,3.175-9.592,8.24-10.063c0.494-0.046,1.03-0.038,1.646,0.023
      c3.255,0.334,3.715,0.776,4.101,3.946c0.091,0.753,0.272,1.482,0.565,2.319c0.104,0.296,0.266,0.513,0.445,0.597
      c0.117,0.056,0.247,0.054,0.399-0.002c0.388-0.146,0.5-0.456,0.331-0.919c-0.606-1.66-0.73-3.458-0.379-5.498
      c0.062-0.365,0.136-0.796,0.379-1.206c2.873-4.822,8.367-6.789,13.062-4.676c2.92,1.312,4.464,3.649,4.465,6.758
      c0.007,22.497,0.007,44.996,0.006,67.494v10.063h0.024V143.486z M150.765,108.166c3.104,1.674,5.024,4.461,5.408,7.848
      c0.411,3.639-1.013,7.471-3.629,9.765c-1.571,1.378-3.42,2.048-5.487,1.99c-0.86-0.025-1.152,0.145-1.188,0.19
      c-0.035,0.049-0.105,0.4,0.189,1.236c1.398,3.96,1.628,7.486,0.701,10.778c-1.712,6.087-7.923,10.092-14.433,9.319
      c-1.995-0.238-3.927-0.847-5.895-1.504c-0.891-0.296-1.124-0.191-1.146-0.18c-0.008,0.005-0.204,0.117-0.403,0.868
      c-1.137,4.272-4.099,7.43-8.126,8.66c-1.181,0.36-2.396,0.536-3.602,0.536c-2.904,0.001-5.756-1.019-7.947-2.932
      c-2.596-2.266-4.04-5.387-4.295-9.275c-0.104-1.574-0.079-3.105-0.053-4.728c0.011-0.708,0.022-1.424,0.022-2.149v-1.25h0.08v-1.33
      h-0.028v-22.117l0.028-0.001v-1.376h-0.02V98.662h0.02v-1.416h-0.058V83.735h0.058v-1.262h-0.056V61.736l0.056-0.007v-1.485
      l-0.045,0v-1.25c0-1.076-0.027-2.144-0.054-3.203c-0.061-2.374-0.123-4.829,0.136-7.23c0.221-2.048,1.308-3.805,3.06-4.948
      c2.092-1.364,4.92-1.679,7.562-0.839c2.988,0.95,5.29,2.954,6.842,5.956c0.576,1.114,0.579,1.113,1.919,0.711
      c1.511-0.451,3.137-0.891,4.742-0.837c4.87,0.156,8.47,4.006,8.56,9.153c0.018,1.014,0.035,2.04,0.167,2.268
      c0.195,0.117,1.359,0.205,2.129,0.264c5.328,0.402,8.179,3.128,9.633,5.344c2.34,3.565,2.831,8.552,1.282,13.013
      c-0.116,0.335-0.254,0.664-0.394,0.993c-0.081,0.19-0.161,0.38-0.236,0.572c-0.157,0.401-0.167,0.645-0.125,0.738
      c0.018,0.04,0.142,0.253,0.816,0.501l0.63,0.229c1.539,0.559,3.131,1.137,4.532,2.088c3.719,2.526,5.781,6.89,5.518,11.671
      c-0.265,4.814-2.812,8.953-6.813,11.07c-0.834,0.441-0.839,0.646-0.844,0.843C149.974,107.54,149.969,107.737,150.765,108.166z"/>
  </g>
  <g transform="translate(3260, 220), scale(1.2)">
    <path class="st24" d="M75.602,127.486h23.976v-10.063c0.001-22.498,0.001-44.997-0.006-67.494
      c-0.001-3.108-1.545-5.445-4.465-6.758c-4.695-2.113-10.189-0.146-13.062,4.676c-0.243,0.41-0.317,0.841-0.379,1.206
      c-0.352,2.04-0.228,3.838,0.379,5.498c0.169,0.463,0.057,0.772-0.331,0.919c-0.152,0.056-0.282,0.058-0.399,0.002
      c-0.18-0.084-0.342-0.301-0.445-0.597c-0.293-0.837-0.475-1.566-0.565-2.319c-0.386-3.17-0.846-3.612-4.101-3.946
      c-0.615-0.062-1.151-0.069-1.646-0.023c-5.065,0.472-8.454,4.61-8.24,10.063c0.043,1.095-0.043,1.372-0.049,1.405
      c-0.064,0.043-0.328,0.147-1.397,0.191c-5.746,0.235-9.644,2.769-11.583,7.527c-1.538,3.771-1.484,7.744,0.158,11.809
      c0.457,1.132,0.39,1.408,0.384,1.429c-0.017,0.023-0.188,0.242-1.318,0.563c-7.373,2.096-11.253,8.25-9.886,15.677
      c0.97,5.255,3.691,8.518,8.09,9.696c1.59,0.426,3.23,0.504,4.816,0.579c0.372,0.018,0.743,0.035,1.112,0.058
      c1.02,0.061,1.039,0.402,1.049,0.566c0.009,0.151-0.01,0.361-0.146,0.501c-0.125,0.127-0.353,0.193-0.636,0.179
      c-1.222-0.051-2.479-0.177-3.695-0.299c-0.889-0.089-1.777-0.178-2.667-0.242c-0.639-0.045-1.552-0.002-2.277,0.466
      c-3.784,2.441-5.378,7.003-4.06,11.623c1.193,4.173,3.562,6.559,7.24,7.292c1.323,0.263,2.322-0.129,3.062-1.196
      c1.114-1.607,2.646-2.96,4.55-4.022c0.983-0.547,1.191-0.202,1.302-0.017c0.108,0.179,0.31,0.512-0.641,1.098
      c-4.119,2.542-6.398,5.92-6.969,10.327c-0.84,6.492,2.493,12.336,8.294,14.54c3.873,1.475,8.029,1.304,12.356-0.507
      c1.025-0.431,1.267-0.326,1.268-0.326c0.003,0.001,0.224,0.132,0.505,1.118c0.73,2.561,1.973,4.561,3.799,6.115
      c2.249,1.916,4.964,2.914,7.77,2.914c1.133,0,2.28-0.163,3.418-0.494c4.127-1.202,7.375-4.467,8.688-8.734
      c0.542-1.764,0.742-3.441,0.635-5H75.602V127.486z M91.563,80.079c0.01,3.457-2.71,6.364-6.192,6.618
      c-0.228,0.021-0.986,0.026-1.041-0.585c-0.015-0.163-0.049-0.547,0.861-0.661c3.092-0.386,5.093-2.484,5.098-5.348
      c0.004-2.857-2.05-4.999-5.111-5.329c-0.407-0.043-0.885-0.2-0.848-0.698c0.014-0.173,0.044-0.574,0.919-0.574
      c0.016,0,0.032,0.001,0.049,0.001C88.685,73.557,91.555,76.568,91.563,80.079L91.563,80.079z M70.566,65.7
      c0.081-0.068,0.2-0.17,0.375-0.17c0.137,0,0.308,0.062,0.52,0.254c3.501,3.162,5.964,3.135,9.411-0.097
      c1.951-1.831,3.847-2.825,5.965-3.131c1.755-0.252,3.466,0.021,5.084,0.815c0.618,0.304,0.457,0.676,0.396,0.815
      c-0.058,0.135-0.164,0.308-0.338,0.376c-0.182,0.07-0.394,0.008-0.54-0.058c-3.256-1.447-6.362-0.842-9.499,1.851
      c-1.026,0.882-2.312,1.728-4.046,2.661c-0.356,0.192-0.882,0.275-1.438,0.363c-0.252,0.039-0.503,0.08-0.749,0.129
      c-2.138-0.197-3.851-1.177-5.229-2.991C70.179,66.126,70.404,65.837,70.566,65.7z M66.295,99.47
      c-0.147,0.168-0.282,0.348-0.416,0.528c-0.099,0.133-0.196,0.266-0.305,0.389c-0.216,0.244-0.586,0.439-0.92,0.183
      c-0.27-0.208-0.31-0.536-0.104-0.856c1.03-1.605,2.416-2.917,4.236-4.009c0.37-0.222,0.75-0.426,1.149-0.64l1.425-0.778
      l-0.21-0.919c-1.104-4.844-3.964-8.291-8.502-10.247c-0.16-0.069-0.326-0.126-0.492-0.182c-0.098-0.032-0.194-0.063-0.286-0.103
      c-0.244-0.103-0.789-0.397-0.579-0.921c0.19-0.475,0.746-0.338,0.979-0.256c4.887,1.729,8.071,4.989,9.736,9.968
      c0.093,0.277,0.169,0.559,0.253,0.865l0.397,1.413H73.6c0.409,0,0.818-0.012,1.227-0.024c0.831-0.024,1.615-0.049,2.361,0.036
      c6.476,0.732,11.471,6.011,11.877,12.55c0.064,1.025-0.137,1.13-0.35,1.241c-0.185,0.096-0.357,0.104-0.511,0.026
      c-0.209-0.109-0.359-0.362-0.401-0.677c-0.033-0.244-0.062-0.491-0.091-0.738c-0.113-0.969-0.23-1.97-0.563-2.952
      c-1.489-4.384-4.655-7.172-9.155-8.064c-0.866-0.171-1.716-0.257-2.546-0.257C71.969,95.046,68.841,96.548,66.295,99.47z
      M72.487,118.521c-1.024-3.496,0.388-7.299,3.434-9.249c0.368-0.235,0.625-0.312,0.807-0.312c0.253,0,0.359,0.148,0.414,0.224
      c0.161,0.225,0.127,0.343,0.111,0.399c-0.028,0.102-0.148,0.374-0.639,0.727c-3.175,2.279-4.112,6.132-2.279,9.369
      c1.836,3.241,5.76,4.441,9.326,2.855c1.039-0.459,1.216-0.064,1.275,0.063c0.119,0.261,0.062,0.404,0.043,0.452
      c-0.082,0.205-0.338,0.406-0.7,0.551c-0.857,0.341-1.758,0.589-2.712,0.852c-0.36,0.1-0.722,0.198-1.08,0.303
      C76.717,124.517,73.517,122.033,72.487,118.521z"/>
    <path class="st8-dt" d="M77.994,95.303c4.5,0.893,7.666,3.681,9.155,8.064c0.333,0.982,0.45,1.983,0.563,2.952
      c0.029,0.247,0.058,0.494,0.091,0.738c0.042,0.314,0.192,0.567,0.401,0.677c0.153,0.078,0.326,0.069,0.511-0.026
      c0.213-0.111,0.414-0.216,0.35-1.241c-0.406-6.539-5.401-11.817-11.877-12.55c-0.746-0.085-1.53-0.061-2.361-0.036
      c-0.408,0.013-0.817,0.024-1.227,0.024h-0.944l-0.397-1.413c-0.084-0.307-0.16-0.588-0.253-0.865
      c-1.665-4.979-4.85-8.239-9.736-9.968c-0.232-0.082-0.788-0.219-0.979,0.256c-0.21,0.523,0.335,0.818,0.579,0.921
      c0.092,0.039,0.188,0.07,0.286,0.103c0.166,0.056,0.332,0.112,0.492,0.182c4.538,1.956,7.398,5.403,8.502,10.247l0.21,0.919
      l-1.425,0.778c-0.399,0.214-0.779,0.418-1.149,0.64c-1.82,1.092-3.206,2.403-4.236,4.009c-0.205,0.32-0.165,0.648,0.104,0.856
      c0.334,0.257,0.704,0.062,0.92-0.183c0.108-0.123,0.206-0.256,0.305-0.389c0.134-0.181,0.269-0.36,0.416-0.528
      c2.546-2.922,5.674-4.424,9.153-4.424C76.278,95.046,77.128,95.132,77.994,95.303z"/>
    <path class="st8-dt" d="M81.567,124.452c0.954-0.263,1.854-0.511,2.712-0.852c0.362-0.145,0.618-0.346,0.7-0.551
      c0.019-0.048,0.076-0.191-0.043-0.452c-0.06-0.128-0.236-0.522-1.275-0.063c-3.566,1.586-7.49,0.386-9.326-2.855
      c-1.833-3.237-0.896-7.09,2.279-9.369c0.49-0.353,0.61-0.625,0.639-0.727c0.016-0.057,0.05-0.175-0.111-0.399
      c-0.055-0.075-0.161-0.224-0.414-0.224c-0.182,0-0.438,0.076-0.807,0.312c-3.046,1.95-4.458,5.753-3.434,9.249
      c1.03,3.512,4.229,5.996,8,6.234C80.846,124.651,81.207,124.552,81.567,124.452z"/>
    <path class="st8-dt" d="M75.706,69.509c0.246-0.049,0.497-0.09,0.749-0.129c0.557-0.088,1.082-0.171,1.438-0.363
      c1.733-0.934,3.02-1.779,4.046-2.661c3.137-2.692,6.243-3.298,9.499-1.851c0.146,0.065,0.358,0.128,0.54,0.058
      c0.174-0.068,0.28-0.241,0.338-0.376c0.062-0.14,0.223-0.512-0.396-0.815c-1.618-0.794-3.329-1.067-5.084-0.815
      c-2.118,0.306-4.014,1.3-5.965,3.131c-3.447,3.231-5.91,3.259-9.411,0.097c-0.212-0.191-0.383-0.254-0.52-0.254
      c-0.175,0-0.294,0.102-0.375,0.17c-0.162,0.138-0.388,0.427-0.09,0.818C71.855,68.332,73.568,69.312,75.706,69.509z"/>
    <path class="st8-dt" d="M85.298,73.503c-0.017,0-0.033-0.001-0.049-0.001c-0.875,0-0.905,0.401-0.919,0.574c-0.037,0.498,0.44,0.655,0.848,0.698
      c3.062,0.33,5.115,2.472,5.111,5.329c-0.005,2.863-2.006,4.962-5.098,5.348c-0.91,0.114-0.876,0.498-0.861,0.661
      c0.055,0.611,0.813,0.605,1.041,0.585c3.482-0.254,6.202-3.161,6.192-6.618v-0.001C91.555,76.568,88.685,73.557,85.298,73.503z"/>
    <path class="st8-dt" d="M94.937,137.114c-0.07-0.987-0.137-1.919-0.303-2.826c-0.071-0.384-0.218-0.674-0.403-0.795
      c-0.043-0.028-0.173-0.112-0.452-0.047c-0.137,0.033-0.559,0.129-0.313,1.238c0.855,3.808-1.092,7.42-4.631,8.584
      c-3.534,1.162-7.128-0.514-8.739-4.074c-0.249-0.55-0.493-0.721-0.587-0.769c-0.052-0.026-0.162-0.083-0.413,0.031
      c-0.084,0.039-0.251,0.114-0.301,0.362c-0.036,0.178-0.011,0.445,0.147,0.852c1.314,3.369,4.766,5.501,8.395,5.182
      c3.646-0.321,6.71-2.97,7.684-6.62C94.99,137.861,94.964,137.487,94.937,137.114z"/>
    <rect x="100.907" y="61.732" class="st24" width="0.057" height="20.741"/>
    <rect x="100.943" y="98.662" class="st24" width="0.02" height="13.854"/>
    <rect x="100.905" y="83.735" class="st24" width="0.058" height="13.512"/>
    <rect x="100.935" y="113.892" class="st24" width="0.028" height="22.118"/>
    <path class="st24" d="M99.578,117.423c0.001-22.498,0.001-44.997-0.006-67.494c-0.001-3.108-1.545-5.445-4.465-6.758
      c-4.695-2.113-10.189-0.146-13.062,4.676c-0.243,0.41-0.317,0.841-0.379,1.206c-0.352,2.04-0.228,3.838,0.379,5.498
      c0.169,0.463,0.057,0.772-0.331,0.919c-0.152,0.056-0.282,0.058-0.399,0.002c-0.18-0.084-0.342-0.301-0.445-0.597
      c-0.293-0.837-0.475-1.566-0.565-2.319c-0.386-3.17-0.846-3.612-4.101-3.946c-0.615-0.062-1.151-0.069-1.646-0.023
      c-5.065,0.472-8.454,4.61-8.24,10.063c0.043,1.095-0.043,1.372-0.049,1.405c-0.064,0.043-0.328,0.147-1.397,0.191
      c-5.746,0.235-9.644,2.769-11.583,7.527c-1.538,3.771-1.484,7.744,0.158,11.809c0.457,1.132,0.39,1.408,0.384,1.429
      c-0.017,0.023-0.188,0.242-1.318,0.563c-7.373,2.096-11.253,8.25-9.886,15.677c0.97,5.255,3.691,8.518,8.09,9.696
      c1.59,0.426,3.23,0.504,4.816,0.579c0.372,0.018,0.743,0.035,1.112,0.058c1.02,0.061,1.039,0.402,1.049,0.566
      c0.009,0.151-0.01,0.361-0.146,0.501c-0.125,0.127-0.353,0.193-0.636,0.179c-1.222-0.051-2.479-0.177-3.695-0.299
      c-0.889-0.089-1.777-0.178-2.667-0.242c-0.639-0.045-1.552-0.002-2.277,0.466c-3.784,2.441-5.378,7.003-4.06,11.623
      c1.193,4.173,3.562,6.559,7.24,7.292c1.323,0.263,2.322-0.129,3.062-1.196c1.114-1.607,2.646-2.96,4.55-4.022
      c0.983-0.547,1.191-0.202,1.302-0.017c0.108,0.179,0.31,0.512-0.641,1.098c-4.119,2.542-6.398,5.92-6.969,10.327
      c-0.84,6.492,2.493,12.336,8.294,14.54c3.873,1.475,8.029,1.304,12.356-0.507c1.025-0.431,1.267-0.326,1.268-0.326
      c0.003,0.001,0.224,0.132,0.505,1.118c0.73,2.561,1.973,4.561,3.799,6.115c2.249,1.916,4.964,2.914,7.77,2.914
      c1.133,0,2.28-0.163,3.418-0.494c4.127-1.202,7.375-4.467,8.688-8.734c0.542-1.764,0.742-3.441,0.635-5h0.113v-16h-0.024V117.423z"
      />
    <rect class="st8-dt" x="100.964" y="99.709" width="26.383" height="1"/>
    <polygon class="st8-dt" points="115.979,84.235 100.964,84.235 100.964,83.235 115.565,83.235 125.291,73.515 125.998,74.222 	"/>
    <polygon class="st8-dt" points="125.291,127.152 115.565,117.433 100.964,117.433 100.964,116.433 115.979,116.433 125.998,126.445 	"/>
    <path class="st8-dt" d="M133.899,107.262c-3.889,0-7.053-3.164-7.053-7.053c0-3.89,3.164-7.054,7.053-7.054c3.89,0,7.054,3.164,7.054,7.054
      C140.953,104.098,137.789,107.262,133.899,107.262z M133.899,94.156c-3.338,0-6.053,2.716-6.053,6.054s2.715,6.053,6.053,6.053
      s6.054-2.715,6.054-6.053S137.237,94.156,133.899,94.156z"/>
    <path class="st8-dt" d="M129.474,75.986c-3.89,0-7.054-3.164-7.054-7.053c0-3.89,3.164-7.054,7.054-7.054c3.889,0,7.053,3.164,7.053,7.054
      C136.527,72.822,133.363,75.986,129.474,75.986z M129.474,62.879c-3.338,0-6.054,2.716-6.054,6.054s2.716,6.053,6.054,6.053
      s6.053-2.715,6.053-6.053S132.812,62.879,129.474,62.879z"/>
    <path class="st8-dt" d="M129.474,139.305c-3.89,0-7.054-3.164-7.054-7.053c0-3.89,3.164-7.054,7.054-7.054c3.889,0,7.053,3.164,7.053,7.054
      C136.527,136.141,133.363,139.305,129.474,139.305z M129.474,126.199c-3.338,0-6.054,2.716-6.054,6.054s2.716,6.053,6.054,6.053
      s6.053-2.715,6.053-6.053S132.812,126.199,129.474,126.199z"/>
    <rect class="st8-dt" x="100.793" y="63.837" width="9.532" height="1"/>
    <rect class="st8-dt" x="100.793" y="134.475" width="9.532" height="1"/>
    <path class="st8-dt" d="M113.347,68.242c-1.941,0-3.521-1.58-3.521-3.521c0-1.941,1.58-3.521,3.521-3.521s3.521,1.58,3.521,3.521
      C116.868,66.661,115.288,68.242,113.347,68.242z M113.347,62.199c-1.391,0-2.521,1.131-2.521,2.521
      c0,1.391,1.131,2.521,2.521,2.521s2.521-1.131,2.521-2.521C115.868,63.329,114.737,62.199,113.347,62.199z"/>
    <path class="st8-dt" d="M113.347,138.879c-1.941,0-3.521-1.58-3.521-3.521s1.58-3.521,3.521-3.521s3.521,1.579,3.521,3.521
      S115.288,138.879,113.347,138.879z M113.347,132.837c-1.391,0-2.521,1.131-2.521,2.521c0,1.391,1.131,2.521,2.521,2.521
      s2.521-1.131,2.521-2.521C115.868,133.968,114.737,132.837,113.347,132.837z"/>
    <line class="st16-dt" x1="100.283" y1="47.656" x2="100.283" y2="140.082"/>
    <path class="st35-dt" d="M158.917,96.36v-3.497c-0.067-0.279-0.131-0.56-0.193-0.839c-0.158-0.697-0.307-1.355-0.51-1.987
      c-1.349-4.18-4.007-7.089-8.127-8.896l-1.347-0.581l-0.737-0.814l0.159-0.739c1.49-4.911,1.165-9.222-0.994-13.178
      c-2.215-4.056-5.789-6.271-10.926-6.773l-0.914-0.089l-0.188-0.899c-0.087-0.416-0.162-0.831-0.236-1.241
      c-0.149-0.824-0.29-1.604-0.522-2.323c-1.794-5.554-6.769-8.23-12.674-6.81c-1.399,0.332-2.332-0.019-3.125-1.184
      c-2.979-4.358-8.098-6.377-12.738-5.024c-1.872,0.546-3.418,1.614-4.725,3.266l-0.938,1.184l-0.988-1.141
      c-2.217-2.562-4.857-3.771-8.054-3.701c-4.067,0.089-7.282,1.901-9.826,5.54c-0.347,0.498-1.068,1.535-2.707,1.148
      c-3.637-0.854-6.842-0.384-9.271,1.357c-2.449,1.756-3.937,4.677-4.301,8.446c-0.017,0.188-0.068,0.339-0.105,0.448l-0.28,0.92
      l-0.831,0.083c-5.16,0.513-8.74,2.705-10.945,6.702c-2.199,3.986-2.528,8.353-1.008,13.347l0.34,1.113l-1.087,0.418
      c-5.746,2.209-8.956,5.973-9.812,11.509c-0.88,5.694,0.846,10.385,5.275,14.339l1.038,0.927l-1.032,0.933
      c-3.537,3.199-4.808,7.143-3.776,11.721c1.101,4.886,3.852,7.817,8.409,8.963l1.203,0.302l-0.293,1.206
      c-1.736,7.128-0.485,12.295,3.937,16.261c4.448,3.991,9.903,4.896,16.676,2.772l0.97-0.305l0.589,1.049
      c0.097,0.163,0.183,0.314,0.252,0.472c1.987,4.521,5.326,7.134,10.211,7.992c0.208,0.037,0.379,0.108,0.513,0.176h3.286
      l0.535-0.132c0.468-0.114,0.937-0.229,1.398-0.361c3.361-0.968,5.924-2.874,7.837-5.826l1.765-2.74l1.267,2.059
      c0.156,0.255,0.297,0.485,0.442,0.715c2.163,3.401,5.122,5.394,9.045,6.089c0.261,0.046,0.478,0.129,0.654,0.197h3.377l0.454-0.115
      c0.458-0.115,0.915-0.23,1.367-0.361c3.985-1.152,6.766-3.499,8.504-7.175c0.154-0.326,0.316-0.651,0.479-0.974l0.208-0.411
      l0.893-0.451l0.534,0.191c6.069,2.172,12.51,1.016,16.809-3.02c4.217-3.957,5.603-9.813,3.802-16.066l-0.358-1.246l1.258-0.312
      c4.497-1.117,7.22-4.028,8.324-8.898c1.053-4.643-0.195-8.508-3.815-11.816l-1.092-0.997l1.165-0.911
      C156.318,104.099,158.068,100.916,158.917,96.36z M99.602,143.486h-0.113c0.107,1.558-0.093,3.236-0.635,5
      c-1.312,4.268-4.561,7.532-8.688,8.734c-1.138,0.331-2.285,0.494-3.418,0.494c-2.806,0-5.521-0.998-7.77-2.914
      c-1.826-1.555-3.068-3.555-3.799-6.115c-0.281-0.986-0.502-1.117-0.505-1.118c-0.001,0-0.242-0.104-1.268,0.326
      c-4.327,1.811-8.483,1.981-12.356,0.507c-5.801-2.204-9.134-8.048-8.294-14.54c0.57-4.407,2.85-7.785,6.969-10.327
      c0.95-0.586,0.749-0.919,0.641-1.098c-0.11-0.186-0.318-0.53-1.302,0.017c-1.904,1.062-3.436,2.415-4.55,4.022
      c-0.74,1.067-1.739,1.459-3.062,1.196c-3.679-0.733-6.047-3.119-7.24-7.292c-1.318-4.62,0.275-9.182,4.06-11.623
      c0.726-0.468,1.639-0.511,2.277-0.466c0.89,0.064,1.778,0.153,2.667,0.242c1.216,0.122,2.474,0.248,3.695,0.299
      c0.283,0.015,0.511-0.052,0.636-0.179c0.137-0.14,0.155-0.35,0.146-0.501c-0.01-0.164-0.029-0.506-1.049-0.566
      c-0.369-0.022-0.74-0.04-1.112-0.058c-1.586-0.075-3.227-0.153-4.816-0.579c-4.398-1.179-7.12-4.441-8.09-9.696
      c-1.367-7.427,2.513-13.581,9.886-15.677c1.13-0.321,1.302-0.54,1.318-0.563c0.006-0.021,0.073-0.297-0.384-1.429
      c-1.643-4.064-1.696-8.037-0.158-11.809c1.939-4.759,5.837-7.292,11.583-7.527c1.069-0.044,1.333-0.148,1.397-0.191
      c0.006-0.033,0.092-0.311,0.049-1.405c-0.214-5.453,3.175-9.592,8.24-10.063c0.494-0.046,1.03-0.038,1.646,0.023
      c3.255,0.334,3.715,0.776,4.101,3.946c0.091,0.753,0.272,1.482,0.565,2.319c0.104,0.296,0.266,0.513,0.445,0.597
      c0.117,0.056,0.247,0.054,0.399-0.002c0.388-0.146,0.5-0.456,0.331-0.919c-0.606-1.66-0.73-3.458-0.379-5.498
      c0.062-0.365,0.136-0.796,0.379-1.206c2.873-4.822,8.367-6.789,13.062-4.676c2.92,1.312,4.464,3.649,4.465,6.758
      c0.007,22.497,0.007,44.996,0.006,67.494v10.063h0.024V143.486z M150.765,108.166c3.104,1.674,5.024,4.461,5.408,7.848
      c0.411,3.639-1.013,7.471-3.629,9.765c-1.571,1.378-3.42,2.048-5.487,1.99c-0.86-0.025-1.152,0.145-1.188,0.19
      c-0.035,0.049-0.105,0.4,0.189,1.236c1.398,3.96,1.628,7.486,0.701,10.778c-1.712,6.087-7.923,10.092-14.433,9.319
      c-1.995-0.238-3.927-0.847-5.895-1.504c-0.891-0.296-1.124-0.191-1.146-0.18c-0.008,0.005-0.204,0.117-0.403,0.868
      c-1.137,4.272-4.099,7.43-8.126,8.66c-1.181,0.36-2.396,0.536-3.602,0.536c-2.904,0.001-5.756-1.019-7.947-2.932
      c-2.596-2.266-4.04-5.387-4.295-9.275c-0.104-1.574-0.079-3.105-0.053-4.728c0.011-0.708,0.022-1.424,0.022-2.149v-1.25h0.08v-1.33
      h-0.028v-22.117l0.028-0.001v-1.376h-0.02V98.662h0.02v-1.416h-0.058V83.735h0.058v-1.262h-0.056V61.736l0.056-0.007v-1.485
      l-0.045,0v-1.25c0-1.076-0.027-2.144-0.054-3.203c-0.061-2.374-0.123-4.829,0.136-7.23c0.221-2.048,1.308-3.805,3.06-4.948
      c2.092-1.364,4.92-1.679,7.562-0.839c2.988,0.95,5.29,2.954,6.842,5.956c0.576,1.114,0.579,1.113,1.919,0.711
      c1.511-0.451,3.137-0.891,4.742-0.837c4.87,0.156,8.47,4.006,8.56,9.153c0.018,1.014,0.035,2.04,0.167,2.268
      c0.195,0.117,1.359,0.205,2.129,0.264c5.328,0.402,8.179,3.128,9.633,5.344c2.34,3.565,2.831,8.552,1.282,13.013
      c-0.116,0.335-0.254,0.664-0.394,0.993c-0.081,0.19-0.161,0.38-0.236,0.572c-0.157,0.401-0.167,0.645-0.125,0.738
      c0.018,0.04,0.142,0.253,0.816,0.501l0.63,0.229c1.539,0.559,3.131,1.137,4.532,2.088c3.719,2.526,5.781,6.89,5.518,11.671
      c-0.265,4.814-2.812,8.953-6.813,11.07c-0.834,0.441-0.839,0.646-0.844,0.843C149.974,107.54,149.969,107.737,150.765,108.166z"/>
  </g>
  <g transform="translate(3485, 5)">
	  <path class="st0-lt" d="M1.28,47.47v5.97c0,4.28,3.38,7.75,7.55,7.75H44.2v-9.81v-3.9V11.89l-4.94-9.67"/>
		<path class="st1-lt" d="M37.62,1.24c0.78,0,1.41,0.63,1.41,1.41v44.83H1.48V7.51c0-3.46,2.81-6.27,6.27-6.27H37.62 M37.62,0.74H7.75
			c-3.74,0-6.77,3.03-6.77,6.77v40.48h38.56V2.65C39.53,1.6,38.68,0.74,37.62,0.74L37.62,0.74z"/>
	  <line class="st0-lt" x1="8.68" y1="52.67" x2="38.61" y2="52.67"/>
		<line class="st4-lt" x1="26.89" y1="18.92" x2="13.62" y2="18.92"/>
		<polyline class="st4-lt" points="23.05,15.84 26.89,18.92 23.1,21.8"/>
		<line class="st0-lt" x1="13.62" y1="28.08" x2="26.89" y2="28.08"/>
		<polyline class="st0-lt" points="17.46,31.16 13.62,28.08 17.41,25.2"/>
  </g>
  <g transform="translate(3485, 225)">
  <path class="st0-dt" d="M1.28,47.47v5.97c0,4.28,3.38,7.75,7.55,7.75H44.2v-9.81v-3.9V11.89l-4.94-9.67"/>
		<path class="st1-dt" d="M37.62,1.24c0.78,0,1.41,0.63,1.41,1.41v44.83H1.48V7.51c0-3.46,2.81-6.27,6.27-6.27H37.62 M37.62,0.74H7.75
			c-3.74,0-6.77,3.03-6.77,6.77v40.48h38.56V2.65C39.53,1.6,38.68,0.74,37.62,0.74L37.62,0.74z"/>
	  <line class="st0-dt" x1="8.68" y1="52.67" x2="38.61" y2="52.67"/>
		<line class="st4-dt" x1="26.89" y1="18.92" x2="13.62" y2="18.92"/>
		<polyline class="st4-dt" points="23.05,15.84 26.89,18.92 23.1,21.8"/>
		<line class="st0-dt" x1="13.62" y1="28.08" x2="26.89" y2="28.08"/>
		<polyline class="st0-dt" points="17.46,31.16 13.62,28.08 17.41,25.2"/>
  </g>
</svg>