<svg id="icon-sprite" version="1.1" xmlns="http://www.w3.org/2000/svg" xmlns:xlink="http://www.w3.org/1999/xlink" xml:space="preserve">
  <defs>
    <mask id="exclamation-mask">
      <circle cx="14" cy="14" r="14" mask="url(#exclamation)" fill="white"/>
      <path d="M14.0623 4C12.9496 4 12.0813 4.59703 12.0813 5.65543C12.0813 8.88469 12.4612 13.5251 12.4612 16.7544C12.4612 17.5957 13.194 17.9484 14.0624 17.9484C14.7136 17.9484 15.6363 17.5957 15.6363 16.7544C15.6363 13.5252 16.0161 8.88478 16.0161 5.65543C16.0161 4.59712 15.1207 4 14.0623 4Z" fill="black"/>
      <path d="M14.0896 19.8208C12.8956 19.8208 12 20.7706 12 21.9104C12 23.023 12.8955 24 14.0896 24C15.2022 24 16.1521 23.023 16.1521 21.9104C16.1521 20.7706 15.2021 19.8208 14.0896 19.8208Z" fill="black"/>
    </mask >
    <mask id="bell-mask">
      <circle cx="14" cy="14" r="14" fill="white"/>
      <path d="M14 24C15.1333 24 16.0513 23.0821 16.0513 21.9487H11.9487C11.9487 23.0821 12.8667 24 14 24Z" fill="black"/>
      <path d="M20.1538 17.8462V12.7179C20.1538 9.56409 18.4769 6.93332 15.5384 6.23587V5.53846C15.5384 4.68716 14.8512 4 13.9999 4C13.1486 4 12.4615 4.68716 12.4615 5.53846V6.23591C9.52302 6.93337 7.8461 9.56413 7.8461 12.718V17.8462L5.7948 19.8975V20.9231H22.205V19.8975L20.1538 17.8462Z" fill="black"/>
    </mask>
    <mask id="x-mask">
      <circle cx="14" cy="14" r="14" fill="white"/>
      <path d="M19.6667 9.175L18.4917 8L13.8333 12.6583L9.175 8L8 9.175L12.6583 13.8333L8 18.4917L9.175 19.6667L13.8333 15.0083L18.4917 19.6667L19.6667 18.4917L15.0083 13.8333L19.6667 9.175Z" fill="black"/>
    </mask>
    <mask id="bulb-mask">
      <circle cx="14" cy="14" r="14" fill="white"/>
      <path d="M16.4973 18.5835H11.5031C11.2731 18.5835 11.0864 18.8635 11.0864 19.2085C11.0864 19.5535 11.2727 19.8335 11.5031 19.8335H16.4973C16.7273 19.8335 16.9139 19.5535 16.9139 19.2085C16.9139 18.8635 16.7273 18.5835 16.4973 18.5835Z" fill="black"/>
      <path d="M16.4973 20.6667H11.5031C11.2731 20.6667 11.0864 20.9467 11.0864 21.2917C11.0864 21.6367 11.2727 21.9167 11.5031 21.9167H16.4973C16.7273 21.9167 16.9139 21.6367 16.9139 21.2917C16.9139 20.9467 16.7273 20.6667 16.4973 20.6667Z" fill="black"/>
      <path d="M15.2498 22.75H12.7498C12.5198 22.75 12.3331 23.03 12.3331 23.375C12.3331 23.72 12.5194 24 12.7498 24H15.2498C15.4798 24 15.6664 23.72 15.6664 23.375C15.6664 23.03 15.4785 22.75 15.2498 22.75Z" fill="black"/>
      <path d="M19.7568 8.21389C19.6039 7.80847 19.2464 6.8589 18.3818 5.94223C17.4697 4.97517 16.3843 4.35892 15.1551 4.1135C14.3926 3.96217 13.6077 3.96217 12.8452 4.1135C11.6177 4.35931 10.5319 4.97431 9.61851 5.9418C8.75683 6.85429 8.39684 7.80679 8.24352 8.21346C8.04895 8.72971 7.68645 9.69013 7.78852 10.9534C7.90102 12.3434 8.50602 13.3589 8.70519 13.6926C8.83019 13.8988 9.08019 14.293 9.58226 15.0005C9.70726 15.1793 9.81683 15.3255 9.91057 15.4526C10.1439 15.7693 10.2726 15.9438 10.4051 16.2193C10.586 16.595 10.7191 16.9918 10.8014 17.4005C10.841 17.5944 11.0114 17.7337 11.2093 17.7338H16.7913C16.992 17.7335 17.164 17.5903 17.2005 17.393C17.2747 16.9875 17.4065 16.5946 17.5918 16.2263C17.7368 15.9397 17.8705 15.7563 18.1134 15.423C18.2014 15.3026 18.3014 15.1651 18.4205 14.9976C18.7659 14.5109 19.0647 14.0905 19.2955 13.6905C19.5163 13.3155 20.103 12.3155 20.2122 10.9526C20.3114 9.68724 19.9505 8.72889 19.7568 8.21389Z" fill="black"/>
    </mask>
    <g id="search">
      <title>Search</title>
      <path fill-rule="evenodd" clip-rule="evenodd" d="M24.7203 24.1198C25.1912 23.7274 25.9547 23.7274 26.4257 24.1198L31.2492 28.1394C31.7201 28.5319 31.7201 29.1681 31.2492 29.5606C30.7783 29.953 30.2148 29.953 29.7439 29.5606L24.7203 25.541C24.2494 25.1485 24.2494 24.5123 24.7203 24.1198Z" />
      <path fill-rule="evenodd" clip-rule="evenodd" d="M19.8975 12.8777C16.2706 12.8777 13.3303 15.8179 13.3303 19.4449C13.3303 23.0718 16.2706 26.0121 19.8975 26.0121C23.5244 26.0121 26.4647 23.0718 26.4647 19.4449C26.4647 15.8179 23.5244 12.8777 19.8975 12.8777ZM12.0593 19.4449C12.0593 15.1159 15.5686 11.6066 19.8975 11.6066C24.2264 11.6066 27.7357 15.1159 27.7357 19.4449C27.7357 23.7738 24.2264 27.2831 19.8975 27.2831C15.5686 27.2831 12.0593 23.7738 12.0593 19.4449Z" />
      <path fill-rule="evenodd" clip-rule="evenodd" d="M19.8969 13.888C16.828 13.888 14.3401 16.3759 14.3401 19.4449C14.3401 22.5138 16.828 25.0017 19.8969 25.0017C22.9659 25.0017 25.4538 22.5138 25.4538 19.4449C25.4538 16.3759 22.9659 13.888 19.8969 13.888ZM13.2646 19.4449C13.2646 15.7819 16.234 12.8125 19.8969 12.8125C23.5599 12.8125 26.5293 15.7819 26.5293 19.4449C26.5293 23.1078 23.5599 26.0772 19.8969 26.0772C16.234 26.0772 13.2646 23.1078 13.2646 19.4449Z" />
    </g>
    <g id="menu-chevron">
      <title>Menu chevron</title>
      <path fill-rule="evenodd" clip-rule="evenodd" d="M6.37091 5.22633C6.23157 5.31341 6.05477 5.31341 5.91544 5.22633L1.3321 2.36175C1.13087 2.23597 1.06969 1.97088 1.19546 1.76964C1.32124 1.5684 1.58633 1.50722 1.78757 1.633L6.14317 4.35525L10.4988 1.633C10.7 1.50722 10.9651 1.5684 11.0909 1.76964C11.2167 1.97088 11.1555 2.23597 10.9542 2.36175L6.37091 5.22633Z" stroke-width="1.5" stroke-linecap="round" stroke-linejoin="round"/>
    </g>
    <g id="chevron">
      <title>Chevron</title>
      <path fill-rule="evenodd" clip-rule="evenodd" d="M26.8289 9.79745C27.4586 10.3934 27.4825 11.3832 26.8827 12.0088L17.1614 22.1491C16.8665 22.4566 16.458 22.6322 16.0296 22.6342C15.6012 22.6361 15.1907 22.4652 14.8925 22.1603L5.12864 12.0563C4.52222 11.4367 4.53683 10.4468 5.15985 9.8443C5.78354 9.2418 6.77985 9.25632 7.38627 9.87532L16.0103 18.8139L24.6025 9.8509C25.2023 9.2253 26.1992 9.20154 26.8289 9.79745Z"/>
    </g>
    <g id="exclamation-circle">
      <title>Exclamation circle</title>
      <circle cx="14" cy="14" r="14" mask="url(#exclamation-mask)"/>
    </g>
    <g id="sun">
      <title>Sun</title>
      <path id="Vector" d="M10 15.625C6.89836 15.625 4.375 13.1016 4.375 10C4.375 6.89836 6.89836 4.375 10 4.375C13.1016 4.375 15.625 6.89836 15.625 10C15.625 13.1016 13.1016 15.625 10 15.625ZM10 5.625C7.58762 5.625 5.625 7.58762 5.625 10C5.625 12.4124 7.58762 14.375 10 14.375C12.4124 14.375 14.375 12.4124 14.375 10C14.375 7.58762 12.4124 5.625 10 5.625Z"/>
      <path id="Vector_2" d="M10 3.125C9.6548 3.125 9.375 2.84516 9.375 2.5V0.625C9.375 0.279844 9.6548 0 10 0C10.3452 0 10.625 0.279844 10.625 0.625V2.5C10.625 2.84516 10.3452 3.125 10 3.125Z"/>
      <path id="Vector_3" d="M10 20C9.6548 20 9.375 19.7202 9.375 19.375V17.5C9.375 17.1548 9.6548 16.875 10 16.875C10.3452 16.875 10.625 17.1548 10.625 17.5V19.375C10.625 19.7202 10.3452 20 10 20Z"/>
      <path id="Vector_4" d="M19.375 10.625H17.5C17.1548 10.625 16.875 10.3452 16.875 10C16.875 9.65484 17.1548 9.375 17.5 9.375H19.375C19.7202 9.375 20 9.65484 20 10C20 10.3452 19.7202 10.625 19.375 10.625Z"/>
      <path id="Vector_5" d="M2.5 10.625H0.625C0.279805 10.625 0 10.3452 0 10C0 9.65484 0.279805 9.375 0.625 9.375H2.5C2.8452 9.375 3.125 9.65484 3.125 10C3.125 10.3452 2.8452 10.625 2.5 10.625Z"/>
      <path id="Vector_6" d="M15.3034 5.32168C14.7516 5.32168 14.4666 4.64957 14.8615 4.25473L16.1873 2.92891C16.4314 2.68485 16.8272 2.68481 17.0712 2.92891C17.3153 3.17297 17.3153 3.56872 17.0712 3.81278L15.7454 5.1386C15.6233 5.26067 15.4633 5.32168 15.3034 5.32168Z"/>
      <path id="Vector_7" d="M3.3708 17.2541C2.819 17.2541 2.534 16.582 2.92889 16.1872L4.25471 14.8613C4.49885 14.6173 4.89459 14.6173 5.13857 14.8613C5.38268 15.1054 5.38268 15.5011 5.13857 15.7452L3.81272 17.0711C3.69068 17.193 3.53076 17.2541 3.3708 17.2541Z"/>
      <path id="Vector_8" d="M16.629 17.2542C16.4691 17.2542 16.3091 17.1931 16.1871 17.0711L14.8613 15.7453C14.6172 15.5012 14.6172 15.1055 14.8613 14.8614C15.1054 14.6173 15.5011 14.6173 15.7452 14.8614L17.071 16.1872C17.4658 16.582 17.1808 17.2542 16.629 17.2542Z"/>
      <path id="Vector_9" d="M4.69645 5.32172C4.53649 5.32172 4.37657 5.2607 4.25454 5.13867L2.92868 3.81285C2.68458 3.56875 2.68458 3.17305 2.92868 2.92899C3.17274 2.68489 3.56849 2.68489 3.81255 2.92899L5.13837 4.25481C5.53325 4.64961 5.24825 5.32172 4.69645 5.32172Z"/>
    </g>
    <g id="moon">
      <title>Moon</title>
      <path id="Vector" d="M17.6765 11.1056C17.5123 11.0646 17.3482 11.1056 17.2046 11.2082C16.6711 11.6596 16.0555 12.029 15.3784 12.2752C14.7423 12.5214 14.0446 12.6446 13.306 12.6446C11.6439 12.6446 10.1255 11.9674 9.03801 10.8799C7.9505 9.79241 7.27337 8.27401 7.27337 6.61197C7.27337 5.91433 7.39649 5.2372 7.60168 4.62163C7.82739 3.96503 8.15569 3.36998 8.58659 2.857C8.77126 2.63129 8.73022 2.30299 8.50451 2.11832C8.36088 2.01573 8.19673 1.97469 8.03258 2.01573C6.28846 2.48766 4.77006 3.53413 3.68256 4.92942C2.63609 6.30419 2 8.00726 2 9.87449C2 12.1111 2.90283 14.1424 4.3802 15.6198C5.85757 17.0972 7.88894 18 10.1255 18C12.0133 18 13.7574 17.3434 15.1527 16.2559C16.5685 15.1479 17.5944 13.5679 18.0253 11.7622C18.1279 11.4545 17.9638 11.1672 17.6765 11.1056ZM14.5371 15.3941C13.347 16.338 11.8286 16.9125 10.1665 16.9125C8.21725 16.9125 6.45262 16.1123 5.18044 14.8401C3.90826 13.5679 3.10802 11.8033 3.10802 9.85397C3.10802 8.23297 3.64152 6.75561 4.56487 5.56551C5.20096 4.74475 6.0012 4.06762 6.92455 3.59569C6.82196 3.82139 6.71936 4.0471 6.63729 4.29333C6.37054 5.03201 6.24743 5.81173 6.24743 6.63249C6.24743 8.58179 7.04767 10.3669 8.31984 11.6391C9.59202 12.9113 11.3772 13.7115 13.3265 13.7115C14.1883 13.7115 15.009 13.5679 15.7682 13.2806C16.035 13.178 16.3017 13.0754 16.5479 12.9523C16.0555 13.8962 15.3784 14.7375 14.5371 15.3941Z"/>
    </g>
    <g id="circle-check">
      <path d="M14 0C6.2807 0 0 6.2807 0 14C0 21.7193 6.2807 28 14 28C21.7193 28 28 21.7193 28 14C28 6.2807 21.7193 0 14 0ZM21.8246 10.3158L12.8772 19.193C12.3509 19.7193 11.5088 19.7544 10.9474 19.2281L6.21053 14.9123C5.64912 14.386 5.61403 13.5088 6.10526 12.9474C6.63158 12.386 7.50877 12.3509 8.07018 12.8772L11.8246 16.3158L19.8246 8.31579C20.386 7.75439 21.2632 7.75439 21.8246 8.31579C22.386 8.87719 22.386 9.75439 21.8246 10.3158Z"/>
    </g>
    <g id="right-arrow">
      <path d="M16.1925 9.68748H1.44444C0.888325 9.68748 0.4375 10.0932 0.4375 10.5937C0.4375 11.0942 0.888325 11.5 1.44444 11.5H16.1925L8.7681 18.9243C8.41419 19.2782 8.41419 19.8521 8.7681 20.206C9.12201 20.5599 9.69582 20.5599 10.0497 20.206L17.7395 12.5162C18.2075 12.0482 18.4692 11.4521 18.5246 10.8407C18.5493 10.7622 18.5625 10.6794 18.5625 10.5937C18.5625 10.5081 18.5493 10.4253 18.5246 10.3467C18.4692 9.73541 18.2075 9.13927 17.7395 8.67129L10.0497 0.981499C9.69582 0.627586 9.12201 0.627586 8.7681 0.981499C8.41419 1.33541 8.41419 1.90922 8.7681 2.26313L16.1925 9.68748Z"/>
    </g>
  </defs>
  <view id="search-lt" viewBox="8 7 28 28"/>
  <view id="search-dt" viewBox="8 47 28 28"/>
  <view id="menu-chevron-default-lt" viewBox="40 0 12 7"/>
  <view id="menu-chevron-blue-lt" viewBox="40 40 12 7"/>
  <view id="menu-chevron-blue-light-lt" viewBox="40 80 12 7"/>
  <view id="menu-chevron-default-dt" viewBox="40 120 12 7"/>
  <view id="menu-chevron-blue-dt" viewBox="40 160 12 7"/>
  <view id="menu-chevron-blue-light-dt" viewBox="40 200 12 7"/>
  <view id="chevron-blue-lt" viewBox="80 0 32 32"/>
  <view id="chevron-blue-light-lt" viewBox="80 40 32 32"/>
  <view id="chevron-blue-dt" viewBox="80 80 32 32"/>
  <view id="chevron-blue-light-dt" viewBox="80 120 32 32"/>
  <view id="chevron-white" viewBox="80 160 32 32"/>
  <view id="sun-lt" viewBox="120 0 20 20"/>
  <view id="sun-dt" viewBox="120 40 20 20"/>
  <view id="moon-lt" viewBox="160 0 20 20"/>
  <view id="moon-dt" viewBox="160 40 20 20"/>
  <view id="circle-check-lt" viewBox="200 0 28 28"/>
  <view id="circle-check-dt" viewBox="200 40 28 28"/>
  <view id="circle-exclamation-blue-lt" viewBox="240 0 28 28"/>
  <view id="circle-exclamation-orange" viewBox="240 40 28 28"/>
  <view id="circle-exclamation-red-lt" viewBox="240 80 28 28"/>
  <view id="circle-exclamation-blue-dt" viewBox="240 120 28 28"/>
  <view id="circle-exclamation-red-dt" viewBox="240 160 28 28"/>
  <view id="circle-bell-lt" viewBox="280 0 28 28"/>
  <view id="circle-bell-dt" viewBox="280 40 28 28"/>
  <view id="circle-x-lt" viewBox="320 0 28 28"/>
  <view id="circle-x-dt" viewBox="320 40 28 28"/>
  <view id="circle-bulb" viewBox="360 0 28 28"/>
  <view id="right-arrow-lt" viewBox="400 0 19 21"/>
  <view id="right-arrow-dt" viewBox="400 40 19 21"/>
  <g>
    <use xlink:href="#search" fill="#256bd1"/>
  </g>
  <g transform="translate(0, 40)">
    <use xlink:href="#search" fill="#499cfe"/>
  </g>
  <g transform="translate(40, 0)">
    <use xlink:href="#menu-chevron" stroke="black"/>
  </g>
  <g transform="translate(40, 40)">
    <use xlink:href="#menu-chevron" stroke="#256bd1"/>
  </g>
  <g transform="translate(40, 80)">
    <use xlink:href="#menu-chevron" stroke="#3585f9"/>
  </g>
  <g transform="translate(40, 120)">
    <use xlink:href="#menu-chevron" stroke="#ffffff"/>
  </g>
  <g transform="translate(40, 160)">
    <use xlink:href="#menu-chevron" stroke="#499cfe"/>
  </g>
  <g transform="translate(40, 200)">
    <use xlink:href="#menu-chevron" stroke="#6ca2f0"/>
  </g>
  <g transform="translate(80, 0)">
    <use xlink:href="#chevron" fill="#256bd1"/>
  </g>
  <g transform="translate(80, 40)">
    <use xlink:href="#chevron" fill="#3585f9"/>
  </g>
  <g transform="translate(80, 80)">
    <use xlink:href="#chevron" fill="#499cfe"/>
  </g>
  <g transform="translate(80, 120)">
    <use xlink:href="#chevron" fill="#6ca2f0"/>
  </g>
  <g transform="translate(80, 160)">
    <use xlink:href="#chevron" fill="#ffffff"/>
  </g>
  <g transform="translate(120, 0)">
    <use xlink:href="#sun" fill="black"/>
  </g>
  <g transform="translate(120, 40)">
    <use xlink:href="#sun" fill="white"/>
  </g>
  <g transform="translate(160, 0)">
    <use xlink:href="#moon" fill="black"/>
  </g>
  <g transform="translate(160, 40)">
    <use xlink:href="#moon" fill="white"/>
  </g>
  <g transform="translate(200, 0)">
    <use xlink:href="#circle-check" fill="#3585f9"/>
  </g>
  <g transform="translate(200, 40)">
    <use xlink:href="#circle-check" fill="#499cfe"/>
  </g>
  <g transform="translate(240, 0)">
    <use xlink:href="#exclamation-circle" fill="#3585f9"/>
  </g>
  <g transform="translate(240, 40)">
    <use xlink:href="#exclamation-circle" fill="#ff7a2f"/>
  </g>
  <g transform="translate(240, 80)">
    <use xlink:href="#exclamation-circle" fill="#bd271e"/>
  </g>
  <g transform="translate(240, 120)">
    <use xlink:href="#exclamation-circle" fill="#499cfe"/>
  </g>
  <g transform="translate(240, 160)">
    <use xlink:href="#exclamation-circle" fill="#f86b63"/>
  </g>
  <g transform="translate(280, 0)">
    <circle cx="14" cy="14" r="14" fill="#3585f9" mask="url(#bell-mask)"/>
  </g>
  <g transform="translate(280, 40)">
    <circle cx="14" cy="14" r="14" fill="#499cfe" mask="url(#bell-mask)"/>
  </g>
  <g transform="translate(320, 0)">
    <circle cx="14" cy="14" r="14" fill="#BD271E" mask="url(#x-mask)"/>
  </g>
  <g transform="translate(320, 40)">
    <circle cx="14" cy="14" r="14" fill="#f86b63" mask="url(#x-mask)"/>
  </g>
  <g transform="translate(360, 0)">
    <circle cx="14" cy="14" r="14" fill="#207D82" mask="url(#bulb-mask)"/>
  </g>
  <g transform="translate(400, 0)">
    <use xlink:href="#right-arrow" fill="black"/>
  </g>
  <g transform="translate(400, 40)">
    <use xlink:href="#right-arrow" fill="white"/>
  </g>
</svg>
