<svg id="icon-sprite" version="1.1" xmlns="http://www.w3.org/2000/svg" xmlns:xlink="http://www.w3.org/1999/xlink" xml:space="preserve">    
    <g viewBox="10 10 28 28" id="search" transform="scale(1.5),translate(-10,-9)">
        <title>Search</title>
        <path fill-rule="evenodd" clip-rule="evenodd" d="M24.7203 24.1198C25.1912 23.7274 25.9547 23.7274 26.4257 24.1198L31.2492 28.1394C31.7201 28.5319 31.7201 29.1681 31.2492 29.5606C30.7783 29.953 30.2148 29.953 29.7439 29.5606L24.7203 25.541C24.2494 25.1485 24.2494 24.5123 24.7203 24.1198Z" />
        <path fill-rule="evenodd" clip-rule="evenodd" d="M19.8975 12.8777C16.2706 12.8777 13.3303 15.8179 13.3303 19.4449C13.3303 23.0718 16.2706 26.0121 19.8975 26.0121C23.5244 26.0121 26.4647 23.0718 26.4647 19.4449C26.4647 15.8179 23.5244 12.8777 19.8975 12.8777ZM12.0593 19.4449C12.0593 15.1159 15.5686 11.6066 19.8975 11.6066C24.2264 11.6066 27.7357 15.1159 27.7357 19.4449C27.7357 23.7738 24.2264 27.2831 19.8975 27.2831C15.5686 27.2831 12.0593 23.7738 12.0593 19.4449Z" />
        <path fill-rule="evenodd" clip-rule="evenodd" d="M19.8969 13.888C16.828 13.888 14.3401 16.3759 14.3401 19.4449C14.3401 22.5138 16.828 25.0017 19.8969 25.0017C22.9659 25.0017 25.4538 22.5138 25.4538 19.4449C25.4538 16.3759 22.9659 13.888 19.8969 13.888ZM13.2646 19.4449C13.2646 15.7819 16.234 12.8125 19.8969 12.8125C23.5599 12.8125 26.5293 15.7819 26.5293 19.4449C26.5293 23.1078 23.5599 26.0772 19.8969 26.0772C16.234 26.0772 13.2646 23.1078 13.2646 19.4449Z" />
    </g>
    <g viewBox="0 0 32 32" id="chevron" transform="scale(1),translate(50,0)">
      <title>chevron</title>
      <path fill-rule="evenodd" clip-rule="evenodd" d="M26.8289 9.79745C27.4586 10.3934 27.4825 11.3832 26.8827 12.0088L17.1614 22.1491C16.8665 22.4566 16.458 22.6322 16.0296 22.6342C15.6012 22.6361 15.1907 22.4652 14.8925 22.1603L5.12864 12.0563C4.52222 11.4367 4.53683 10.4468 5.15985 9.8443C5.78354 9.2418 6.77985 9.25632 7.38627 9.87532L16.0103 18.8139L24.6025 9.8509C25.2023 9.2253 26.1992 9.20154 26.8289 9.79745Z" fill="black"/>
    </g>
    <g viewBox="0 0 20 20" id="sun">
      <path id="Vector" d="M10 15.625C6.89836 15.625 4.375 13.1016 4.375 10C4.375 6.89836 6.89836 4.375 10 4.375C13.1016 4.375 15.625 6.89836 15.625 10C15.625 13.1016 13.1016 15.625 10 15.625ZM10 5.625C7.58762 5.625 5.625 7.58762 5.625 10C5.625 12.4124 7.58762 14.375 10 14.375C12.4124 14.375 14.375 12.4124 14.375 10C14.375 7.58762 12.4124 5.625 10 5.625Z"/>
      <path id="Vector_2" d="M10 3.125C9.6548 3.125 9.375 2.84516 9.375 2.5V0.625C9.375 0.279844 9.6548 0 10 0C10.3452 0 10.625 0.279844 10.625 0.625V2.5C10.625 2.84516 10.3452 3.125 10 3.125Z"/>
      <path id="Vector_3" d="M10 20C9.6548 20 9.375 19.7202 9.375 19.375V17.5C9.375 17.1548 9.6548 16.875 10 16.875C10.3452 16.875 10.625 17.1548 10.625 17.5V19.375C10.625 19.7202 10.3452 20 10 20Z"/>
      <path id="Vector_4" d="M19.375 10.625H17.5C17.1548 10.625 16.875 10.3452 16.875 10C16.875 9.65484 17.1548 9.375 17.5 9.375H19.375C19.7202 9.375 20 9.65484 20 10C20 10.3452 19.7202 10.625 19.375 10.625Z"/>
      <path id="Vector_5" d="M2.5 10.625H0.625C0.279805 10.625 0 10.3452 0 10C0 9.65484 0.279805 9.375 0.625 9.375H2.5C2.8452 9.375 3.125 9.65484 3.125 10C3.125 10.3452 2.8452 10.625 2.5 10.625Z"/>
      <path id="Vector_6" d="M15.3034 5.32168C14.7516 5.32168 14.4666 4.64957 14.8615 4.25473L16.1873 2.92891C16.4314 2.68485 16.8272 2.68481 17.0712 2.92891C17.3153 3.17297 17.3153 3.56872 17.0712 3.81278L15.7454 5.1386C15.6233 5.26067 15.4633 5.32168 15.3034 5.32168Z"/>
      <path id="Vector_7" d="M3.3708 17.2541C2.819 17.2541 2.534 16.582 2.92889 16.1872L4.25471 14.8613C4.49885 14.6173 4.89459 14.6173 5.13857 14.8613C5.38268 15.1054 5.38268 15.5011 5.13857 15.7452L3.81272 17.0711C3.69068 17.193 3.53076 17.2541 3.3708 17.2541Z"/>
      <path id="Vector_8" d="M16.629 17.2542C16.4691 17.2542 16.3091 17.1931 16.1871 17.0711L14.8613 15.7453C14.6172 15.5012 14.6172 15.1055 14.8613 14.8614C15.1054 14.6173 15.5011 14.6173 15.7452 14.8614L17.071 16.1872C17.4658 16.582 17.1808 17.2542 16.629 17.2542Z"/>
      <path id="Vector_9" d="M4.69645 5.32172C4.53649 5.32172 4.37657 5.2607 4.25454 5.13867L2.92868 3.81285C2.68458 3.56875 2.68458 3.17305 2.92868 2.92899C3.17274 2.68489 3.56849 2.68489 3.81255 2.92899L5.13837 4.25481C5.53325 4.64961 5.24825 5.32172 4.69645 5.32172Z"/>
    </g>
    <g viewBox="0 0 20 20" id="moon">
      <path id="Vector" d="M17.6765 11.1056C17.5123 11.0646 17.3482 11.1056 17.2046 11.2082C16.6711 11.6596 16.0555 12.029 15.3784 12.2752C14.7423 12.5214 14.0446 12.6446 13.306 12.6446C11.6439 12.6446 10.1255 11.9674 9.03801 10.8799C7.9505 9.79241 7.27337 8.27401 7.27337 6.61197C7.27337 5.91433 7.39649 5.2372 7.60168 4.62163C7.82739 3.96503 8.15569 3.36998 8.58659 2.857C8.77126 2.63129 8.73022 2.30299 8.50451 2.11832C8.36088 2.01573 8.19673 1.97469 8.03258 2.01573C6.28846 2.48766 4.77006 3.53413 3.68256 4.92942C2.63609 6.30419 2 8.00726 2 9.87449C2 12.1111 2.90283 14.1424 4.3802 15.6198C5.85757 17.0972 7.88894 18 10.1255 18C12.0133 18 13.7574 17.3434 15.1527 16.2559C16.5685 15.1479 17.5944 13.5679 18.0253 11.7622C18.1279 11.4545 17.9638 11.1672 17.6765 11.1056ZM14.5371 15.3941C13.347 16.338 11.8286 16.9125 10.1665 16.9125C8.21725 16.9125 6.45262 16.1123 5.18044 14.8401C3.90826 13.5679 3.10802 11.8033 3.10802 9.85397C3.10802 8.23297 3.64152 6.75561 4.56487 5.56551C5.20096 4.74475 6.0012 4.06762 6.92455 3.59569C6.82196 3.82139 6.71936 4.0471 6.63729 4.29333C6.37054 5.03201 6.24743 5.81173 6.24743 6.63249C6.24743 8.58179 7.04767 10.3669 8.31984 11.6391C9.59202 12.9113 11.3772 13.7115 13.3265 13.7115C14.1883 13.7115 15.009 13.5679 15.7682 13.2806C16.035 13.178 16.3017 13.0754 16.5479 12.9523C16.0555 13.8962 15.3784 14.7375 14.5371 15.3941Z"/>
    </g>
  </g>
</svg>